<?xml version="1.0" encoding="UTF-8"?>
<!-- Generator: Adobe Illustrator 25.2.0, SVG Export Plug-In . SVG Version: 6.00 Build 0)  -->
<svg xmlns="http://www.w3.org/2000/svg" xmlns:xlink="http://www.w3.org/1999/xlink" version="1.1" id="Capa_1" x="0px" y="0px" viewBox="0 0 512 512" style="enable-background:new 0 0 512 512;" xml:space="preserve" width="512" height="512">
<g>
	<path style="fill:#A5D5C9;" d="M235.185,221.917c0,0-19.053-31.556-63.879-20.877C171.306,201.039,191.289,245.346,235.185,221.917   z"/>
	<path style="fill:#A5D5C9;" d="M289.962,154.041c0,0-19.351,10.122-29.175,35.426C260.788,189.468,296.512,182.323,289.962,154.041   z"/>
	<path style="fill:#241726;" d="M275.973,257.641c-0.047,0-0.093-0.002-0.142-0.009c-0.654-0.077-1.121-0.667-1.042-1.321   c0.07-0.612,7.673-61.589,48.127-90.143c0.533-0.381,1.281-0.256,1.658,0.286c0.379,0.537,0.251,1.279-0.286,1.658   c-39.594,27.951-47.065,87.875-47.137,88.477C277.082,257.194,276.568,257.641,275.973,257.641z"/>
	<path style="fill:#241726;" d="M259.297,260.022c-0.6,0-1.116-0.454-1.182-1.065c-5.905-55.502,10.564-142.375,10.731-143.245   c0.123-0.649,0.758-1.068,1.393-0.947c0.647,0.123,1.07,0.749,0.947,1.393c-0.167,0.868-16.569,87.398-10.703,142.547   c0.07,0.654-0.405,1.24-1.058,1.309C259.383,260.02,259.339,260.022,259.297,260.022z"/>
	<path style="fill:#F5D66E;" d="M206.602,157.421c0,0,7.823-42.643-14.023-52.849c-17.534-8.192-8.57,18.104-8.57,18.104   s-17.933-26.627-23.507-11.185c-5.574,15.442,7.494,20.765,7.494,20.765s-24.135-16.124-26.014-4.09   c-1.879,12.034,13.242,20.469,13.242,20.469s-24.974-9.428-21.423,4.147c3.551,13.576,18.889,14.164,18.889,14.164   s-23.906-0.266-15.968,9.447S195.166,192.029,206.602,157.421z"/>
	<g>
		<path style="fill:#E97E93;" d="M382.22,76.876c0,0-20.167-3.841-19.153,7.434c1.014,11.275,18.825,18.8,26.927,4.297    c0,0-6.666,11.798,1.993,12.195C400.646,101.199,403.685,85.808,382.22,76.876z"/>
		<path style="fill:#E97E93;" d="M386.587,73.632c0,0-10.245-17.791,0.739-20.532c10.984-2.741,23.935,11.615,12.893,24.027    c0,0,10.801-8.436,14.017-0.387C417.451,84.789,402.066,90.978,386.587,73.632z"/>
		<path style="fill:#241726;" d="M379.542,74.444c-0.293,0-0.586-0.107-0.814-0.323c-1.961-1.837-7.963-6.382-12.073-5.37    c-1.826,0.449-3.151,1.921-4.054,4.505c-0.214,0.621-0.891,0.956-1.516,0.73c-0.621-0.216-0.949-0.895-0.73-1.516    c1.172-3.358,3.103-5.387,5.738-6.033c6.214-1.519,13.941,5.642,14.266,5.949c0.479,0.449,0.502,1.202,0.051,1.682    C380.175,74.318,379.858,74.444,379.542,74.444z"/>
		<path style="fill:#241726;" d="M381.842,71.997c-0.237,0-0.477-0.07-0.684-0.216c-11.599-8.151-6.903-17.478-6.854-17.572    c0.307-0.58,1.033-0.807,1.607-0.502c0.581,0.304,0.807,1.02,0.507,1.601l0,0c-0.158,0.307-3.726,7.613,6.107,14.525    c0.54,0.379,0.668,1.121,0.291,1.658C382.584,71.82,382.217,71.997,381.842,71.997z"/>
	</g>
	<g>
		<path style="fill:#E97E93;" d="M166.669,51.681c0,0,11.963-16.684,1.306-20.503c-10.657-3.82-24.972,9.178-15.218,22.626    c0,0-7.903-11.008-11.903-3.318C136.854,58.174,149.541,67.402,166.669,51.681z"/>
		<path style="fill:#E97E93;" d="M167.777,57.007c0,0,20.449-1.817,18.319,9.302s-20.601,16.835-27.221,1.598    c0,0,3.114,13.347-5.541,12.881C144.679,80.321,145.531,63.76,167.777,57.007z"/>
		<path style="fill:#241726;" d="M171.082,51.965c-0.47,0-0.916-0.281-1.105-0.745c-0.244-0.611,0.051-1.304,0.661-1.55    c2.489-1.005,9.131-4.526,9.945-8.695c0.363-1.844-0.419-3.667-2.382-5.573c-0.472-0.458-0.484-1.212-0.028-1.684    c0.458-0.471,1.214-0.484,1.684-0.026c2.556,2.477,3.586,5.082,3.063,7.744c-1.235,6.289-10.98,10.276-11.394,10.443    C171.38,51.937,171.231,51.965,171.082,51.965z"/>
		<path style="fill:#241726;" d="M189.621,55.943c-0.354,0-0.707-0.158-0.94-0.461l0,0c-0.216-0.273-5.352-6.581-15.75-0.564    c-0.563,0.329-1.298,0.135-1.626-0.434c-0.33-0.57-0.135-1.298,0.435-1.627c12.269-7.104,18.762,1.085,18.825,1.169    c0.4,0.522,0.302,1.27-0.219,1.67C190.13,55.863,189.875,55.943,189.621,55.943z"/>
	</g>
	<path style="fill:#241726;" d="M57.572,320.77c-0.9,0-1.83,0-4.461-10.499c-8.95-1.714-9.708-2.73-9.961-3.072   c-0.223-0.295-0.321-0.865-0.221-1.221c0.144-0.502,0.519-1.826,10.694-5.921c3.64-9.501,4.863-9.501,5.598-9.501   c0.377,0,0.916,0.281,1.142,0.584c0.635,0.856,1.223,3.124,2.119,6.759c0.293,1.191,0.649,2.637,0.844,3.217   c0.509,0.237,1.749,0.681,2.775,1.049c5.086,1.823,6.498,2.482,6.726,3.642c0.079,0.412-0.14,1.04-0.451,1.319   c-1.07,0.958-6.498,2.954-8.796,3.772c-4.298,9.787-5.205,9.833-5.938,9.871C57.621,320.77,57.593,320.77,57.572,320.77z    M46.065,306.171c1.719,0.535,5.205,1.335,8.238,1.902c0.458,0.086,0.826,0.43,0.937,0.884c0.772,3.128,1.791,6.698,2.484,8.545   c0.986-1.714,2.589-5.073,3.882-8.033c0.133-0.302,0.384-0.537,0.695-0.647c2.6-0.916,5.547-2.049,7.217-2.803   c-1.216-0.537-3.061-1.2-4.221-1.614c-2.91-1.044-3.512-1.291-3.868-1.77c-0.314-0.421-0.533-1.216-1.261-4.17   c-0.307-1.254-0.795-3.24-1.207-4.577c-0.902,1.64-2.254,4.752-3.296,7.501c-0.119,0.314-0.363,0.561-0.672,0.686   C51.644,303.41,47.841,305.126,46.065,306.171z"/>
	<path style="fill:#241726;" d="M243.337,30.215c-0.9,0-1.83,0.001-4.461-10.501c-8.95-1.714-9.708-2.732-9.961-3.072   c-0.223-0.297-0.321-0.864-0.221-1.221c0.142-0.502,0.516-1.823,10.694-5.92C243.028,0,244.251,0,244.986,0   c0.377,0,0.916,0.283,1.142,0.584c0.635,0.855,1.223,3.122,2.119,6.758c0.293,1.192,0.647,2.637,0.842,3.217   c0.512,0.237,1.751,0.681,2.775,1.049c5.091,1.825,6.501,2.484,6.729,3.645c0.079,0.412-0.14,1.037-0.451,1.318   c-1.07,0.957-6.498,2.953-8.796,3.77c-4.298,9.789-5.205,9.837-5.938,9.875C243.386,30.215,243.358,30.215,243.337,30.215z    M231.829,15.614c1.719,0.536,5.205,1.336,8.238,1.901c0.458,0.086,0.826,0.433,0.937,0.886c0.772,3.128,1.791,6.698,2.484,8.545   c0.986-1.715,2.589-5.073,3.882-8.033c0.133-0.304,0.384-0.538,0.695-0.648c2.6-0.915,5.547-2.048,7.217-2.803   c-1.216-0.537-3.063-1.199-4.224-1.615c-2.907-1.042-3.51-1.288-3.865-1.765c-0.314-0.423-0.533-1.219-1.261-4.172   c-0.307-1.255-0.795-3.24-1.207-4.577c-0.902,1.641-2.254,4.752-3.296,7.502c-0.119,0.312-0.363,0.561-0.672,0.684   C237.409,12.855,233.606,14.569,231.829,15.614z"/>
	<path style="fill:#241726;" d="M437.956,356.587c-0.9,0-1.83,0-4.461-10.501c-8.952-1.716-9.71-2.733-9.964-3.072   c-0.221-0.298-0.319-0.863-0.219-1.221c0.142-0.5,0.516-1.821,10.694-5.921c3.64-9.501,4.863-9.501,5.598-9.501   c0.377,0,0.916,0.281,1.142,0.584c0.635,0.856,1.223,3.124,2.119,6.759c0.293,1.193,0.647,2.637,0.842,3.219   c0.512,0.235,1.749,0.679,2.77,1.044c5.093,1.826,6.505,2.486,6.733,3.647c0.079,0.412-0.14,1.037-0.451,1.316   c-1.07,0.958-6.498,2.954-8.796,3.772c-4.298,9.789-5.205,9.836-5.938,9.873C438.005,356.587,437.977,356.587,437.956,356.587z    M426.448,341.985c1.721,0.537,5.205,1.337,8.238,1.902c0.458,0.084,0.826,0.43,0.937,0.884c0.772,3.128,1.791,6.701,2.484,8.547   c0.986-1.716,2.589-5.073,3.882-8.036c0.133-0.302,0.384-0.537,0.695-0.647c2.6-0.914,5.545-2.049,7.217-2.803   c-1.219-0.537-3.065-1.2-4.226-1.616c-2.905-1.042-3.507-1.286-3.861-1.763c-0.316-0.423-0.535-1.219-1.263-4.172   c-0.307-1.256-0.795-3.242-1.207-4.579c-0.902,1.64-2.254,4.752-3.296,7.501c-0.119,0.314-0.363,0.561-0.672,0.686   C432.03,339.225,428.228,340.941,426.448,341.985z"/>
	<path style="fill:#241726;" d="M111.338,456.898c-0.9,0-1.83,0-4.461-10.501c-8.952-1.716-9.71-2.733-9.964-3.072   c-0.221-0.298-0.319-0.863-0.219-1.221c0.142-0.5,0.516-1.821,10.694-5.921c3.64-9.501,4.863-9.501,5.598-9.501   c0.377,0,0.916,0.281,1.142,0.584c0.635,0.856,1.223,3.124,2.119,6.759c0.293,1.193,0.647,2.637,0.842,3.219   c0.512,0.235,1.749,0.679,2.77,1.044c5.093,1.826,6.505,2.486,6.733,3.647c0.079,0.412-0.14,1.037-0.451,1.316   c-1.07,0.958-6.498,2.954-8.796,3.772c-4.298,9.789-5.205,9.836-5.938,9.873C111.386,456.898,111.359,456.898,111.338,456.898z    M99.83,442.297c1.721,0.537,5.205,1.337,8.238,1.902c0.458,0.084,0.826,0.43,0.937,0.884c0.772,3.128,1.791,6.701,2.484,8.547   c0.986-1.716,2.589-5.073,3.882-8.036c0.133-0.302,0.384-0.537,0.695-0.647c2.6-0.914,5.545-2.049,7.217-2.803   c-1.219-0.537-3.065-1.2-4.226-1.616c-2.905-1.042-3.507-1.286-3.861-1.763c-0.316-0.423-0.535-1.219-1.263-4.172   c-0.307-1.256-0.795-3.242-1.207-4.579c-0.902,1.64-2.254,4.752-3.296,7.501c-0.119,0.314-0.363,0.561-0.672,0.686   C105.411,439.536,101.609,441.253,99.83,442.297z"/>
	<path style="fill:#241726;" d="M127.123,367.294c-0.002,0-0.04,0-0.04,0c-2.361-0.009-4.575-0.94-6.235-2.614   c-1.663-1.675-2.57-3.898-2.561-6.256c0.021-4.852,3.984-8.796,8.831-8.796c2.4,0.009,4.614,0.94,6.275,2.614   c1.663,1.677,2.57,3.898,2.561,6.256C135.933,363.35,131.97,367.294,127.123,367.294z M127.148,352.009   c-3.57,0-6.463,2.882-6.48,6.424c-0.007,1.723,0.656,3.347,1.87,4.57s2.83,1.902,4.554,1.909l0.03,1.191v-1.191   c3.54,0,6.433-2.882,6.449-6.424c0.007-1.723-0.656-3.347-1.87-4.57C130.488,352.696,128.872,352.016,127.148,352.009z"/>
	<path style="fill:#241726;" d="M312.885,24.345c-0.002,0-0.035,0-0.037,0c-2.361-0.01-4.575-0.938-6.235-2.614   c-1.663-1.676-2.57-3.898-2.561-6.259c0.021-4.849,3.984-8.794,8.831-8.794c2.4,0.009,4.614,0.938,6.275,2.613   c1.663,1.676,2.57,3.898,2.561,6.259C321.698,20.399,317.734,24.345,312.885,24.345z M312.913,9.06c-3.57,0-6.463,2.882-6.48,6.424   c-0.007,1.723,0.656,3.346,1.87,4.57c1.214,1.223,2.83,1.901,4.554,1.909l0.028,1.191v-1.191c3.542,0,6.435-2.882,6.452-6.425   c0.007-1.723-0.656-3.346-1.87-4.57C316.253,9.745,314.637,9.067,312.913,9.06z"/>
	<path style="fill:#241726;" d="M380.863,368.916c-0.002,0-0.04,0-0.04,0c-4.87-0.021-8.815-4-8.796-8.871   c0.021-4.852,3.984-8.796,8.833-8.796c2.398,0.009,4.612,0.94,6.273,2.614c1.663,1.677,2.57,3.898,2.561,6.256   C389.676,364.969,385.715,368.916,380.863,368.916z M380.891,353.631c-3.572,0-6.466,2.882-6.482,6.424   c-0.014,3.556,2.868,6.463,6.424,6.48l0.03,1.191v-1.191c3.542,0,6.435-2.882,6.449-6.424c0.007-1.723-0.656-3.347-1.87-4.57   S382.612,353.637,380.891,353.631z"/>
	<path style="fill:#241726;" d="M258.723,512c-0.002,0-0.04,0-0.04,0c-2.361-0.009-4.575-0.94-6.235-2.614   c-1.663-1.675-2.57-3.898-2.561-6.256c0.021-4.852,3.984-8.796,8.831-8.796c2.4,0.009,4.614,0.94,6.275,2.614   c1.663,1.675,2.57,3.898,2.561,6.256C267.533,508.055,263.57,512,258.723,512z M258.749,496.715c-3.57,0-6.463,2.882-6.48,6.424   c-0.007,1.723,0.656,3.347,1.87,4.57c1.214,1.223,2.83,1.902,4.554,1.909l0.03,1.191v-1.191c3.54,0,6.433-2.882,6.449-6.424   c0.007-1.723-0.656-3.347-1.87-4.57C262.089,497.401,260.472,496.722,258.749,496.715z"/>
	<g>
		<path style="fill:#E97E93;" d="M245.01,462.459c0,0-9.288-114.278-10.125-125.48c-2.799-37.493-59.315-40.683-69.362-65.801    s-16.875-59.923-25.248-48.201c-8.373,11.722-2.515,65.439,4.183,80.511c6.698,15.071,20.249,43.491,20.249,43.491l-6.626,116.671    L245.01,462.459z"/>
		<path style="fill:#E97E93;" d="M175.94,286.875c0,0-35.101-36.848-36.841-51.912c-3.415-29.584-16.746-45.213-21.769-30.142    c-5.024,15.071-11.722,45.213,3.349,63.634s28.468,33.491,28.468,33.491s-23.444-48.562-26.793-55.261s-6.695-41.848-15.071-40.19    c-13.678,2.709-12.913,57.795-1.437,79.218c6.375,11.901,83.491,73.168,88.515,88.239c5.024,15.071,20.095,0,20.095,0    S201.059,305.296,175.94,286.875z"/>
		<path style="fill:#241726;" d="M208.178,372.483c-0.112,0-0.226-0.016-0.337-0.049c-0.63-0.186-0.991-0.849-0.805-1.479    c0.093-0.319,9.296-32.04-0.567-46.134c-6.552-9.357-22.244-13.764-34.854-17.306c-7.01-1.97-13.064-3.67-17.069-5.917    c-6.301-3.535-12.127-12.231-16.806-19.218c-2.04-3.042-3.8-5.67-5.256-7.368c-4.014-4.684-9.324-7.161-11.85-5.487    c-3.27,2.161-3,12.082,7.563,33.452c7.694,15.564,16.676,18.688,24.602,21.441c5.005,1.74,9.733,3.382,13.545,7.782    c0.43,0.495,0.377,1.249-0.121,1.679c-0.495,0.43-1.249,0.377-1.679-0.121c-3.396-3.917-7.626-5.389-12.527-7.091    c-8.359-2.905-17.832-6.196-25.956-22.635c-12.61-25.512-10.627-33.928-6.74-36.494c4.1-2.712,10.773,1.028,14.971,5.924    c1.547,1.805,3.344,4.486,5.424,7.594c4.54,6.775,10.189,15.208,15.994,18.462c3.758,2.109,9.971,3.854,16.548,5.703    c12.976,3.645,29.121,8.18,36.159,18.232c10.524,15.034,1.3,46.83,0.902,48.176C209.167,372.148,208.692,372.483,208.178,372.483z    "/>
		<path style="fill:#241726;" d="M120.022,268.514c-0.451,0-0.881-0.258-1.081-0.693c-7.229-15.736-4.891-48.488-4.789-49.874    c0.049-0.656,0.633-1.154,1.277-1.1c0.656,0.049,1.149,0.621,1.1,1.277c-0.026,0.333-2.396,33.524,4.575,48.702    c0.274,0.598,0.014,1.305-0.584,1.579C120.357,268.479,120.19,268.514,120.022,268.514z"/>
		<path style="fill:#241726;" d="M173.173,304.501c-0.216,0-0.433-0.058-0.63-0.179c-0.87-0.542-21.4-13.473-28.83-31.303    c-7.375-17.702-7.459-42.162-7.459-43.194c0-0.658,0.533-1.191,1.191-1.191c0.658,0,1.191,0.533,1.191,1.191    c0,0.249,0.088,25.023,7.277,42.278c7.138,17.134,27.684,30.068,27.891,30.196c0.558,0.349,0.728,1.081,0.381,1.642    C173.959,304.301,173.571,304.501,173.173,304.501z"/>
		<path style="fill:#241726;" d="M125.697,296.207c-0.451,0-0.884-0.258-1.084-0.698c-0.272-0.6-0.007-1.305,0.591-1.577    c0.998-0.454,1.665-1.207,2.044-2.307c1.502-4.363-2.028-12.724-3.514-15.578c-0.305-0.584-0.077-1.302,0.505-1.607    c0.586-0.298,1.302-0.079,1.607,0.505c0.237,0.456,5.796,11.24,3.654,17.455c-0.595,1.728-1.709,2.972-3.31,3.7    C126.03,296.172,125.862,296.207,125.697,296.207z"/>
	</g>
	<g>
		<path style="fill:#E97E93;" d="M265.032,462.459c0,0,9.288-114.278,10.125-125.48c2.799-37.493,59.315-40.683,69.362-65.801    c10.047-25.119,16.875-59.923,25.248-48.201c8.373,11.722,2.515,65.439-4.183,80.511s-20.249,43.491-20.249,43.491l6.626,116.671    L265.032,462.459z"/>
		<path style="fill:#E97E93;" d="M334.102,286.875c0,0,35.101-36.848,36.841-51.912c3.415-29.584,16.746-45.213,21.769-30.142    c5.024,15.071,11.722,45.213-3.349,63.634s-28.468,33.491-28.468,33.491s23.444-48.562,26.793-55.261    c3.349-6.698,6.695-41.848,15.071-40.19c13.678,2.709,12.913,57.795,1.437,79.218c-6.375,11.901-83.491,73.168-88.515,88.239    c-5.024,15.071-20.095,0-20.095,0S308.983,305.296,334.102,286.875z"/>
		<path style="fill:#241726;" d="M301.863,372.483c-0.514,0-0.988-0.335-1.142-0.854c-0.398-1.347-9.622-33.142,0.905-48.176    c7.035-10.052,23.183-14.587,36.157-18.232c6.577-1.849,12.789-3.593,16.55-5.703c5.803-3.254,11.452-11.687,15.992-18.462    c2.079-3.107,3.877-5.789,5.424-7.594c4.196-4.896,10.868-8.636,14.971-5.924c3.886,2.565,5.87,10.982-6.74,36.494    c-8.124,16.439-17.597,19.73-25.956,22.635c-4.9,1.702-9.131,3.175-12.527,7.091c-0.43,0.498-1.181,0.551-1.679,0.121    s-0.551-1.184-0.121-1.679c3.812-4.4,8.54-6.042,13.545-7.782c7.926-2.754,16.908-5.877,24.602-21.441    c10.564-21.369,10.833-31.291,7.563-33.452c-2.528-1.658-7.836,0.802-11.85,5.487c-1.456,1.698-3.217,4.326-5.256,7.368    c-4.679,6.987-10.506,15.683-16.804,19.218c-4.007,2.247-10.061,3.947-17.071,5.917c-12.608,3.542-28.302,7.95-34.852,17.306    c-9.866,14.094-0.663,45.816-0.57,46.134c0.186,0.63-0.174,1.293-0.805,1.479C302.089,372.467,301.975,372.483,301.863,372.483z"/>
		<path style="fill:#241726;" d="M390.02,268.514c-0.167,0-0.335-0.035-0.498-0.109c-0.598-0.274-0.858-0.982-0.584-1.579    c6.97-15.178,4.6-48.369,4.575-48.702c-0.049-0.656,0.444-1.228,1.1-1.277c0.635-0.049,1.228,0.444,1.277,1.1    c0.102,1.386,2.44,34.138-4.789,49.874C390.901,268.256,390.471,268.514,390.02,268.514z"/>
		<path style="fill:#241726;" d="M336.871,304.501c-0.398,0-0.788-0.2-1.014-0.561c-0.347-0.558-0.177-1.293,0.381-1.642    c0.207-0.128,20.76-13.078,27.891-30.196c7.194-17.267,7.277-42.029,7.277-42.278c0-0.658,0.533-1.191,1.191-1.191    c0.658,0,1.191,0.533,1.191,1.191c0,1.033-0.084,25.493-7.459,43.194c-7.431,17.829-27.961,30.761-28.83,31.303    C337.301,304.443,337.085,304.501,336.871,304.501z"/>
		<path style="fill:#241726;" d="M384.345,296.207c-0.165,0-0.333-0.035-0.493-0.107c-1.6-0.728-2.714-1.972-3.31-3.7    c-2.142-6.215,3.417-16.999,3.654-17.455c0.305-0.581,1.03-0.8,1.605-0.505c0.584,0.305,0.812,1.023,0.507,1.605    c-1.486,2.858-5.017,11.227-3.514,15.58c0.379,1.1,1.049,1.854,2.044,2.307c0.598,0.272,0.863,0.977,0.591,1.577    C385.229,295.949,384.796,296.207,384.345,296.207z"/>
	</g>
	<path style="fill:#241726;" d="M161.793,184.465c-0.307,0-0.612-0.116-0.844-0.351c-0.602-0.607-14.645-14.941-5.991-23.737   c1.628-1.656,3.403-2.719,5.189-3.307c-2.007-3.219-3.061-7.217-2.512-10.868c0.828-5.496,5.005-8.496,11.655-8.412   c2.442,0.056,4.679,0.398,6.684,0.942c0.777-5.487,4.061-10.915,9.536-10.692c1.572,0.042,3,0.214,4.275,0.486   c0.188-4.775,1.712-10.219,4.728-12.752c1.9-1.602,5.175-2.772,9.945,0.698c0.533,0.386,0.649,1.133,0.263,1.663   c-0.386,0.535-1.133,0.647-1.663,0.263c-2.535-1.844-4.691-2.258-6.394-1.244c-2.979,1.775-4.421,7.447-4.498,12.059   c3.131,1.165,4.889,3.017,5.052,4.756c0.06,0.635,0.002,2.763-3.272,3.472c-0.602,0.135-2.105,0.207-3.124-1.872   c-0.556-1.133-0.898-2.749-1.014-4.591c-1.214-0.302-2.661-0.512-4.359-0.556c-0.049-0.002-0.098-0.002-0.144-0.002   c-4.091,0-6.47,4.484-7.015,8.973c-0.005,0.03-0.007,0.058-0.012,0.088c4.489,1.716,7.512,4.479,8.722,7.075   c0.809,1.735,0.768,3.361-0.112,4.459c-0.54,0.667-1.877,1.7-4.791,1.061c-4.554-1-6.38-6.047-6.31-10.95   c-1.868-0.54-4.045-0.895-6.554-0.954c-0.144-0.005-0.288-0.005-0.43-0.005c-6.477,0-8.373,3.454-8.812,6.389   c-0.495,3.298,0.677,7.105,2.7,9.982c2.856-0.263,5.552,0.554,7.552,1.954c1.791,1.251,2.533,2.689,1.986,3.84   c-0.874,1.842-3.835,1.002-4.807,0.73c-2.165-0.612-4.161-2.044-5.787-3.951c-1.563,0.37-3.291,1.221-4.98,2.937   c-7.022,7.138,5.852,20.255,5.982,20.388c0.463,0.467,0.461,1.221-0.005,1.684C162.4,184.348,162.095,184.465,161.793,184.465z    M164.835,158.939c0.998,0.865,2.096,1.507,3.233,1.828c0.728,0.207,1.237,0.291,1.584,0.321c-0.574-0.591-1.791-1.442-3.572-1.912   C165.721,159.083,165.303,158.995,164.835,158.939z M178.176,141.973c0.13,3.707,1.535,7.138,4.433,7.775   c1.405,0.309,2.17,0.086,2.421-0.226c0.284-0.351,0.212-1.105-0.188-1.961C184.128,146.029,182.018,143.622,178.176,141.973z    M192.289,131.856c0.007,0.07,0.016,0.137,0.026,0.205c0.314,2.349,0.954,3.017,1.095,3.056c0.274-0.056,1.491-0.351,1.437-0.926   C194.796,133.644,193.984,132.674,192.289,131.856z"/>
	<path style="fill:#241726;" d="M186.098,176.487c-1.902,0-3.965-0.335-5.426-1.488c-1.261-0.995-1.909-2.484-1.875-4.307   c0.03-1.542,0.884-4.17,6.287-4.431c1.137-0.056,2.817,0.047,4.591,0.284c-0.828-1.044-1.549-2.082-2.077-2.919   c-1.554-2.465-3.893-6.963-2.126-9.392c0.961-1.319,2.765-1.651,5.377-0.981c2.649,0.677,5.049,1.67,7.108,2.784   c-0.612-2.696-0.872-5.54-0.751-7.715c0.163-2.921,0.951-4.724,2.344-5.356c0.74-0.333,1.963-0.47,3.603,0.805   c6.919,5.396,4.914,16.594,4.826,17.069c-0.121,0.647-0.74,1.068-1.389,0.951c-0.644-0.121-1.072-0.742-0.951-1.388   c0.019-0.102,1.821-10.252-3.952-14.752c-0.667-0.519-1.044-0.577-1.151-0.514c-0.219,0.098-0.816,0.888-0.954,3.319   c-0.167,3.01,0.419,6.645,1.347,9.424c2.775,1.968,4.475,3.982,4.682,5.133c0.112,0.628-0.107,1.2-0.586,1.53   c-0.863,0.6-1.993,0.07-2.879-0.461c-1.321-0.788-2.396-2.549-3.205-4.705c-2.121-1.421-5.017-2.882-8.682-3.817   c-1.726-0.44-2.603-0.254-2.849,0.063c-0.337,0.435-0.421,2.054,1.4,5.373c1.435,2.617,3.198,4.807,4.675,6.266   c2.516,0.633,4.559,1.542,4.689,2.665c0.014,0.135,0.107,1.33-1.461,1.619c-1.307,0.223-2.868-0.707-4.377-2.091   c-3.212-0.754-7.659-1.302-9.987-0.254c-1.021,0.46-1.161,1.063-1.17,1.537c-0.021,1.077,0.295,1.861,0.965,2.391   c1.996,1.577,6.601,0.851,8.205,0.437c0.64-0.167,1.286,0.219,1.451,0.856c0.163,0.637-0.219,1.286-0.856,1.451   C190.554,175.973,188.451,176.487,186.098,176.487z"/>
	<path style="fill:#BE7995;" d="M278.369,126.733c0,0,41.965-10.889,42.007-35.001c0.034-19.353-20.029-0.137-20.029-0.137   s16.581-27.488,0.229-26.031c-16.353,1.457-15.668,15.551-15.668,15.551s4.443-28.683-7.261-25.313   c-11.705,3.371-12.976,20.638-12.976,20.638s-1.983-26.621-12.795-17.676c-10.812,8.944-4.878,23.101-4.878,23.101   s-9.839-21.789-15.3-10.495C226.238,82.664,242.166,130.957,278.369,126.733z"/>
	<path style="fill:#241726;" d="M294.251,108.716c-0.856,0-1.968-0.393-3.103-1.886c-0.37-0.488-1.074-1.819,0.381-3.621   c0.791-0.984,2.114-1.975,3.735-2.856c-0.237-1.228-0.658-2.628-1.335-4.186c-1.663-3.835-6.796-4.121-11.15-2.71   c-0.028,0.009-0.056,0.019-0.086,0.028c0.337,4.793-0.893,8.698-2.737,10.892c-1.235,1.465-2.733,2.114-4.089,1.779   c-0.835-0.205-2.335-0.981-2.984-3.896c-1.012-4.552,2.791-8.336,7.27-10.338c-0.3-1.923-0.895-4.045-1.9-6.345   c-2.733-6.252-6.766-6.54-9.687-5.691c-3.2,0.942-6.159,3.612-7.915,6.659c1.44,2.47,1.837,5.268,1.414,7.673   c-0.379,2.142-1.361,3.419-2.63,3.419c-0.005,0-0.009,0-0.014,0c-2.037-0.014-2.526-3.054-2.686-4.054   c-0.358-2.219,0.098-4.633,1.14-6.91c-0.993-1.263-2.496-2.472-4.763-3.279c-9.417-3.328-15.897,13.852-15.964,14.024   c-0.226,0.619-0.916,0.937-1.528,0.705c-0.619-0.228-0.933-0.912-0.705-1.528c0.293-0.802,7.354-19.583,18.997-15.443   c2.189,0.779,3.9,1.94,5.187,3.31c2.072-3.175,5.252-5.817,8.796-6.859c5.335-1.568,9.903,0.991,12.541,7.022   c0.979,2.237,1.614,4.41,1.965,6.456c5.298-1.607,11.501-0.956,13.715,4.138c0.626,1.442,1.07,2.81,1.361,4.079   c4.414-1.842,9.994-2.749,13.557-1.091c2.254,1.051,4.7,3.521,3.563,9.317c-0.126,0.644-0.751,1.068-1.398,0.937   c-0.644-0.126-1.065-0.751-0.937-1.398c0.602-3.075,0.074-5.2-1.572-6.321c-2.861-1.956-8.615-0.87-12.829,1.005   c0.263,3.328-0.672,5.705-2.182,6.587C295.437,108.474,294.923,108.716,294.251,108.716z M295.514,102.974   c-0.06,0.035-0.119,0.072-0.177,0.109c-1.996,1.275-2.33,2.137-2.307,2.282c0.167,0.226,0.956,1.209,1.447,0.912   C294.951,106,295.486,104.856,295.514,102.974z M280.389,94.445c-3.305,1.679-5.824,4.403-5.18,7.298   c0.312,1.402,0.837,2.005,1.223,2.1c0.442,0.105,1.093-0.277,1.7-1C279.222,101.551,280.515,98.622,280.389,94.445z    M259.381,89.501c-0.363,1.272-0.484,2.535-0.295,3.703c0.121,0.747,0.258,1.244,0.379,1.572c0.291-0.772,0.549-2.233,0.223-4.047   C259.622,90.366,259.525,89.95,259.381,89.501z"/>
	<path style="fill:#241726;" d="M275.554,129.46c-0.53,0-1.014-0.358-1.154-0.895c-0.163-0.635,0.221-1.284,0.858-1.449   c0.1-0.026,10.066-2.672,11.713-9.801c0.188-0.821,0.077-1.179-0.019-1.263c-0.184-0.156-1.154-0.363-3.414,0.537   c-2.798,1.116-5.847,3.182-7.977,5.193c-0.614,3.347-1.723,5.735-2.679,6.41c-0.523,0.37-1.133,0.409-1.637,0.114   c-0.905-0.533-0.9-1.779-0.793-2.807c0.156-1.528,1.3-3.244,2.914-4.889c0.393-2.521,0.498-5.763-0.2-9.482   c-0.328-1.749-0.868-2.468-1.261-2.556c-0.549-0.116-2.044,0.491-4.284,3.542c-1.765,2.403-3.007,4.924-3.705,6.875   c0.486,2.547,0.523,4.782-0.44,5.373c-0.116,0.072-1.156,0.665-2.082-0.642c-0.765-1.075-0.572-2.896,0.047-4.847   c-0.67-3.235-2.049-7.498-3.979-9.164c-0.854-0.737-1.456-0.605-1.889-0.414c-0.986,0.437-1.563,1.054-1.761,1.886   c-0.588,2.47,2.012,6.342,3.063,7.624c0.416,0.509,0.342,1.258-0.165,1.677c-0.514,0.416-1.258,0.342-1.675-0.165   c-0.465-0.563-4.503-5.626-3.54-9.685c0.37-1.561,1.447-2.777,3.114-3.514c1.402-0.63,4.152-0.961,6.668,3.833   c0.53,1.009,1.147,2.572,1.679,4.282c0.598-1.193,1.235-2.284,1.77-3.117c1.582-2.447,4.698-6.438,7.619-5.887   c1.6,0.314,2.663,1.816,3.158,4.461c0.505,2.689,0.616,5.284,0.474,7.619c2.186-1.691,4.654-3.126,6.677-3.933   c2.721-1.086,4.684-1.126,5.845-0.133c0.619,0.53,1.256,1.586,0.791,3.605c-1.977,8.55-12.976,11.454-13.443,11.573   C275.749,129.448,275.652,129.46,275.554,129.46z"/>
	<path style="fill:#F5D66E;" d="M318.48,191.773c0,0,40.467,15.56,54.53-4.026c11.288-15.721-16.21-11.765-16.21-11.765   s29.479-12.709,15.332-21.038s-21.791,3.532-21.791,3.532s20.303-20.743,8.822-24.812c-11.481-4.068-22.561,9.236-22.561,9.236   s13.876-22.804-0.121-21.821c-13.998,0.984-17.408,15.95-17.408,15.95s4.675-23.446-6.337-17.438   C301.722,125.6,286.578,174.145,318.48,191.773z"/>
	<path style="fill:#241726;" d="M358.308,197.552c-0.316,0-0.633-0.126-0.865-0.374c-0.451-0.477-0.43-1.23,0.049-1.682   c2.279-2.151,3.086-4.189,2.4-6.056c-1.195-3.256-6.503-5.721-11.022-6.647c-1.721,2.861-3.831,4.226-5.605,4.089   c-0.635-0.06-2.714-0.509-2.81-3.861c-0.016-0.612,0.184-2.103,2.417-2.723c1.216-0.335,2.868-0.372,4.698-0.149   c0.523-1.135,0.995-2.521,1.351-4.182c0.877-4.086-3.13-7.31-7.494-8.691c-0.028-0.009-0.056-0.016-0.084-0.026   c-2.516,4.093-5.789,6.554-8.564,7.266c-1.851,0.467-3.444,0.135-4.363-0.933c-0.561-0.651-1.326-2.158-0.158-4.905   c1.826-4.291,7.115-5.159,11.929-4.179c0.875-1.737,1.626-3.81,2.144-6.266c1.414-6.677-1.702-9.266-4.566-10.264   c-3.151-1.098-7.115-0.647-10.312,0.812c-0.265,2.847-1.57,5.354-3.314,7.063c-1.565,1.528-3.11,1.991-4.14,1.242   c-1.647-1.198-0.277-3.954,0.174-4.861c0.998-2.012,2.775-3.71,4.947-4.956c-0.072-1.605-0.591-3.461-1.965-5.438   c-5.717-8.205-20.99,2.016-21.146,2.119c-0.549,0.365-1.286,0.223-1.654-0.319c-0.367-0.544-0.228-1.284,0.316-1.654   c0.709-0.479,17.39-11.634,24.437-1.505c1.328,1.905,2.044,3.845,2.293,5.707c3.531-1.377,7.659-1.672,11.145-0.46   c5.249,1.826,7.477,6.566,6.115,13.006c-0.507,2.391-1.254,4.526-2.158,6.396c5.247,1.777,9.91,5.919,8.747,11.345   c-0.33,1.537-0.765,2.91-1.268,4.112c4.659,1.068,9.726,3.57,11.661,7.001c1.221,2.165,1.775,5.596-2.521,9.647   C358.894,197.445,358.601,197.552,358.308,197.552z M345.325,182.392c-1.809,0-2.43,0.416-2.489,0.533   c0.007,0.279,0.07,1.53,0.647,1.584c0.458,0.053,1.644-0.565,2.765-2.084c-0.07-0.005-0.14-0.009-0.209-0.012   C345.783,182.399,345.546,182.392,345.325,182.392z M336.704,166.514c-2.833,0-5.328,0.919-6.254,3.093   c-0.563,1.326-0.486,2.121-0.226,2.423c0.295,0.342,1.049,0.412,1.965,0.177c1.637-0.421,4.391-2.049,6.721-5.519   C338.166,166.575,337.425,166.514,336.704,166.514z M324.698,150.446c-1.035,0.821-1.865,1.779-2.391,2.84   c-0.337,0.674-0.514,1.161-0.609,1.495c0.686-0.458,1.747-1.495,2.537-3.161C324.393,151.287,324.556,150.894,324.698,150.446z"/>
	<path style="fill:#241726;" d="M323.272,194.024c-4.389,0-8.143-1.426-8.405-1.528c-0.614-0.237-0.916-0.926-0.679-1.54   c0.235-0.614,0.926-0.923,1.54-0.679c0.095,0.035,9.74,3.679,15.229-1.161c0.633-0.556,0.749-0.914,0.719-1.037   c-0.058-0.233-0.723-0.968-3.086-1.549c-2.924-0.719-6.601-0.812-9.51-0.419c-2.437,2.356-4.721,3.654-5.896,3.654   c-0.005,0-0.009,0-0.014,0c-0.637-0.005-1.158-0.326-1.395-0.858c-0.428-0.961,0.3-1.97,0.984-2.744   c1.019-1.151,2.947-1.884,5.217-2.282c1.789-1.821,3.758-4.398,5.354-7.826c0.751-1.614,0.73-2.512,0.463-2.814   c-0.365-0.412-1.947-0.788-5.535,0.386c-2.837,0.926-5.317,2.254-7.024,3.438c-1.086,2.361-2.435,4.147-3.486,4.117   c-0.135-0.009-1.326-0.14-1.321-1.735c0.005-1.319,1.223-2.686,2.863-3.914c1.335-3.021,2.696-7.289,2.093-9.766   c-0.265-1.091-0.83-1.34-1.295-1.437c-1.051-0.212-1.882-0.051-2.528,0.509c-1.916,1.668-2.054,6.326-1.944,7.982   c0.042,0.656-0.454,1.223-1.109,1.268c-0.633,0.019-1.223-0.449-1.268-1.109c-0.049-0.728-0.386-7.196,2.756-9.936   c1.209-1.051,2.798-1.419,4.577-1.044c1.512,0.312,3.935,1.637,3.196,6.991c-0.156,1.13-0.565,2.761-1.126,4.463   c1.181-0.623,2.337-1.142,3.258-1.505c2.71-1.072,7.559-2.537,9.615-0.351c1.119,1.186,1.109,3.024-0.026,5.463   c-1.154,2.479-2.572,4.656-4.047,6.473c2.756-0.1,5.603,0.165,7.719,0.686c2.84,0.7,4.466,1.807,4.831,3.293   c0.193,0.791,0.098,2.019-1.456,3.391C329.805,193.31,326.379,194.024,323.272,194.024z"/>
	<path style="fill:#241726;" d="M246.752,277.375c-0.616,0-1.14-0.477-1.186-1.102c-2.947-39.892-15.313-67.194-25.17-83.072   c-10.643-17.148-20.655-24.953-20.755-25.03c-0.521-0.402-0.619-1.149-0.219-1.67c0.402-0.521,1.151-0.616,1.67-0.219   c0.412,0.316,41.136,32.487,46.851,109.814c0.047,0.656-0.444,1.228-1.1,1.277C246.812,277.375,246.782,277.375,246.752,277.375z"/>
	<path style="fill:#BE7995;" d="M189.024,267.569c0,0,26.118,32.172,56.653,39.72c30.535,7.548,80.338-32.409,80.148-34.851   c-0.19-2.442-28.789-30.075-65.793-32.113C235.556,238.976,189.024,267.569,189.024,267.569z"/>
	<path style="fill:#A5D5C9;" d="M229.847,160.2c0,0-5.957,39.133,5.544,54.509C235.391,214.709,257.275,175.69,229.847,160.2z"/>
	<path style="fill:#241726;" d="M314.199,275.191c-7.24,0-14.266-3.605-22.3-7.726c-10.489-5.382-22.365-11.473-37.694-10.62   c-27.621,1.556-51.697,13.257-51.937,13.373c-0.591,0.291-1.302,0.049-1.593-0.542s-0.049-1.305,0.542-1.593   c0.244-0.121,24.756-12.034,52.853-13.615c15.969-0.909,28.154,5.356,38.915,10.878c8.431,4.326,15.697,8.057,22.965,7.382   c0.642-0.049,1.233,0.421,1.295,1.077c0.06,0.654-0.421,1.235-1.077,1.295C315.511,275.161,314.853,275.191,314.199,275.191z"/>
	<path style="fill:#241726;" d="M295.465,288.934c-5.005,0.002-9.889-2.31-15.19-4.817c-7.661-3.624-16.357-7.731-28.449-7.029   c-26.614,1.542-35.245,10.264-35.329,10.352c-0.454,0.477-1.207,0.495-1.684,0.037c-0.474-0.454-0.491-1.207-0.037-1.684   c0.37-0.386,9.371-9.487,36.91-11.082c12.715-0.751,22.079,3.693,29.605,7.252c9.154,4.328,15.769,7.459,24.086,0.561   c0.507-0.419,1.258-0.351,1.677,0.156c0.421,0.507,0.349,1.258-0.156,1.677C302.882,287.688,299.14,288.934,295.465,288.934z"/>
	<path style="fill:#241726;" d="M273.984,298.128c-0.223,0-0.449-0.063-0.649-0.193c-0.212-0.14-21.388-13.666-39.531-0.433   c-0.53,0.384-1.275,0.27-1.665-0.26c-0.386-0.533-0.27-1.277,0.26-1.665c19.492-14.213,42.013,0.216,42.239,0.365   c0.551,0.358,0.705,1.095,0.344,1.647C274.754,297.937,274.373,298.128,273.984,298.128z"/>
	<path style="fill:#A5D5C9;" d="M230.72,129.034c0,0,29.472-2.382,30.365,30.961C261.085,159.995,228.934,175.178,230.72,129.034z"/>
	<path style="fill:#A5D5C9;" d="M286.688,223.108c0,0,22.03-24.709,51.8-10.717C338.487,212.39,314.671,249.305,286.688,223.108z"/>
	<path style="fill:#241726;" d="M233.697,222.512c-0.267,0-0.535-0.088-0.756-0.272c-3.931-3.235-27.102-6.494-35.698-7.475   c-0.654-0.074-1.123-0.665-1.049-1.319c0.074-0.654,0.681-1.107,1.319-1.049c3.235,0.37,31.759,3.735,36.94,8.005   c0.509,0.419,0.581,1.168,0.163,1.675C234.381,222.363,234.039,222.512,233.697,222.512z"/>
	<path style="fill:#241726;" d="M233.995,215.665c-0.498,0-0.963-0.316-1.13-0.814c-1.823-5.47,1.902-31,2.335-33.894   c0.095-0.654,0.714-1.095,1.351-1.002c0.651,0.095,1.1,0.702,1.002,1.351c-1.147,7.705-3.819,28.619-2.428,32.791   c0.207,0.623-0.13,1.298-0.754,1.507C234.246,215.647,234.12,215.665,233.995,215.665z"/>
	<path style="fill:#241726;" d="M260.788,190.658c-0.228,0-0.458-0.065-0.661-0.2c-0.547-0.365-0.695-1.105-0.33-1.651   c3.638-5.456,20.388-18.483,21.099-19.037c0.514-0.4,1.265-0.309,1.672,0.212c0.402,0.521,0.307,1.268-0.212,1.672   c-0.172,0.133-17.155,13.336-20.579,18.474C261.548,190.472,261.171,190.658,260.788,190.658z"/>
	<path style="fill:#241726;" d="M284.604,224.894c-0.365,0-0.728-0.17-0.961-0.488c-0.388-0.53-0.272-1.277,0.258-1.663   c7.963-5.819,33.554-5.887,34.64-5.887c0.658,0,1.191,0.533,1.191,1.191c0,0.658-0.533,1.191-1.191,1.191   c-0.258,0-25.898,0.065-33.235,5.426C285.094,224.819,284.848,224.894,284.604,224.894z"/>
	<path style="fill:#241726;" d="M259.895,160.293c-0.451,0-0.884-0.258-1.084-0.698c-0.991-2.179-10.154-9.452-15.697-13.524   c-0.53-0.391-0.644-1.135-0.256-1.665c0.395-0.533,1.14-0.642,1.665-0.256c1.519,1.116,14.883,11.001,16.455,14.459   c0.272,0.6,0.007,1.305-0.591,1.577C260.227,160.258,260.06,160.293,259.895,160.293z"/>
	<path style="fill:#241726;" d="M437.108,303.31c-0.472,0-0.919-0.284-1.105-0.749c-0.244-0.612,0.051-1.302,0.663-1.547   c1.498-0.6,2.954-1.202,4.368-1.812c0.6-0.263,1.307,0.019,1.565,0.621c0.26,0.605-0.019,1.305-0.621,1.565   c-1.437,0.619-2.912,1.23-4.428,1.835C437.405,303.282,437.254,303.31,437.108,303.31z M445.855,299.537   c-0.447,0-0.875-0.254-1.077-0.684c-0.281-0.595-0.026-1.305,0.57-1.584c1.458-0.686,2.875-1.377,4.245-2.072   c0.586-0.298,1.302-0.065,1.6,0.521c0.3,0.586,0.065,1.302-0.521,1.6c-1.393,0.709-2.828,1.409-4.31,2.105   C446.197,299.5,446.025,299.537,445.855,299.537z M454.332,295.214c-0.416,0-0.823-0.221-1.04-0.612   c-0.321-0.574-0.114-1.3,0.461-1.619c1.407-0.786,2.763-1.577,4.065-2.377c0.558-0.347,1.291-0.17,1.637,0.391   c0.344,0.561,0.17,1.293-0.391,1.637c-1.33,0.819-2.714,1.628-4.154,2.428C454.728,295.165,454.53,295.214,454.332,295.214z    M462.44,290.227c-0.379,0-0.754-0.181-0.984-0.521c-0.37-0.542-0.23-1.284,0.314-1.654c1.333-0.909,2.603-1.823,3.81-2.747   c0.523-0.398,1.268-0.3,1.67,0.223c0.4,0.523,0.298,1.272-0.223,1.67c-1.244,0.947-2.547,1.889-3.917,2.821   C462.905,290.16,462.673,290.227,462.44,290.227z M469.999,284.441c-0.335,0-0.665-0.14-0.902-0.414   c-0.428-0.498-0.374-1.249,0.126-1.679c1.191-1.028,2.344-2.096,3.428-3.175c0.465-0.461,1.219-0.465,1.684,0.005   c0.463,0.465,0.463,1.219-0.005,1.684c-1.121,1.116-2.316,2.223-3.554,3.291C470.552,284.345,470.276,284.441,469.999,284.441z    M476.725,277.722c-0.274,0-0.549-0.093-0.774-0.286c-0.5-0.428-0.558-1.179-0.13-1.679c1.021-1.191,1.984-2.426,2.863-3.665   c0.381-0.537,1.126-0.658,1.661-0.284c0.537,0.381,0.663,1.126,0.284,1.661c-0.923,1.3-1.93,2.591-2.998,3.838   C477.395,277.58,477.06,277.722,476.725,277.722z M482.207,269.958c-0.2,0-0.402-0.049-0.586-0.154   c-0.572-0.326-0.774-1.051-0.451-1.623c0.765-1.351,1.456-2.747,2.051-4.147c0.258-0.605,0.961-0.888,1.561-0.63   c0.605,0.256,0.888,0.956,0.63,1.561c-0.63,1.484-1.358,2.961-2.168,4.389C483.023,269.742,482.621,269.958,482.207,269.958z    M485.912,261.209c-0.109,0-0.219-0.014-0.328-0.047c-0.633-0.181-0.998-0.842-0.816-1.472c0.423-1.475,0.758-2.989,0.995-4.5   c0.102-0.654,0.716-1.088,1.361-0.993c0.651,0.102,1.095,0.712,0.993,1.361c-0.254,1.609-0.609,3.221-1.061,4.789   C486.907,260.869,486.43,261.209,485.912,261.209z M487.375,251.826c-0.012,0-0.026,0-0.037,0c-0.658-0.021-1.174-0.57-1.154-1.228   c0.012-0.361,0.016-0.716,0.016-1.075c0-1.163-0.056-2.354-0.165-3.535c-0.06-0.654,0.421-1.235,1.077-1.295   c0.647-0.04,1.235,0.421,1.295,1.077c0.116,1.254,0.174,2.516,0.174,3.754c0,0.381-0.005,0.765-0.016,1.149   C488.545,251.317,488.017,251.826,487.375,251.826z M486.503,242.363c-0.549,0-1.044-0.384-1.163-0.944   c-0.312-1.482-0.716-2.986-1.198-4.475c-0.202-0.626,0.14-1.298,0.765-1.5c0.635-0.2,1.3,0.142,1.5,0.765   c0.509,1.568,0.933,3.156,1.263,4.717c0.135,0.644-0.277,1.277-0.919,1.412C486.668,242.353,486.586,242.363,486.503,242.363z    M483.586,233.315c-0.458,0-0.898-0.267-1.093-0.716c-0.607-1.398-1.295-2.803-2.047-4.177c-0.316-0.577-0.105-1.302,0.472-1.616   c0.579-0.316,1.302-0.105,1.616,0.472c0.786,1.44,1.507,2.91,2.144,4.372c0.26,0.602-0.016,1.305-0.619,1.568   C483.907,233.283,483.744,233.315,483.586,233.315z M479.037,224.959c-0.386,0-0.767-0.188-0.995-0.537   c-0.842-1.279-1.756-2.558-2.717-3.798c-0.405-0.519-0.309-1.268,0.209-1.67c0.514-0.407,1.268-0.312,1.67,0.209   c1.002,1.288,1.954,2.619,2.828,3.952c0.361,0.549,0.207,1.288-0.342,1.649C479.488,224.896,479.262,224.959,479.037,224.959z    M440.687,220.977c-0.565,0-1.065-0.402-1.17-0.979c-0.116-0.647,0.314-1.268,0.961-1.384c1.314-0.237,2.747-0.695,4.259-1.361   c0.605-0.258,1.305,0.009,1.57,0.612c0.265,0.602-0.009,1.305-0.612,1.57c-1.682,0.74-3.296,1.251-4.793,1.523   C440.829,220.97,440.759,220.977,440.687,220.977z M435.975,220.8c-0.121,0-0.242-0.019-0.363-0.056   c-1.882-0.605-3.351-1.83-4.254-3.547c-0.307-0.581-0.081-1.302,0.5-1.607c0.577-0.302,1.302-0.081,1.607,0.5   c0.614,1.168,1.582,1.97,2.872,2.384c0.628,0.202,0.972,0.872,0.772,1.498C436.947,220.479,436.48,220.8,435.975,220.8z    M473.204,217.43c-0.326,0-0.651-0.133-0.886-0.395c-1.021-1.135-2.116-2.263-3.256-3.351c-0.474-0.454-0.493-1.207-0.037-1.684   c0.454-0.472,1.205-0.493,1.684-0.037c1.181,1.128,2.319,2.3,3.382,3.482c0.44,0.488,0.4,1.242-0.091,1.682   C473.771,217.33,473.487,217.43,473.204,217.43z M449.418,217.305c-0.4,0-0.791-0.202-1.014-0.567   c-0.344-0.561-0.17-1.293,0.391-1.637c0.995-0.612,2.033-1.305,3.114-2.086c0.24-0.172,0.474-0.351,0.705-0.53   c0.521-0.407,1.265-0.309,1.672,0.207c0.405,0.519,0.312,1.268-0.207,1.672c-0.254,0.198-0.512,0.391-0.775,0.581   c-1.133,0.819-2.221,1.544-3.263,2.184C449.846,217.249,449.632,217.305,449.418,217.305z M431.621,213.209   c-0.04,0-0.079-0.002-0.119-0.005c-0.654-0.065-1.133-0.649-1.07-1.302c0.165-1.679,0.712-3.396,1.579-4.968   c0.316-0.577,1.042-0.788,1.619-0.465c0.574,0.319,0.784,1.042,0.465,1.619c-0.712,1.288-1.158,2.689-1.291,4.047   C432.744,212.749,432.226,213.209,431.621,213.209z M456.767,211.323c-0.27,0-0.542-0.091-0.765-0.277   c-0.505-0.423-0.57-1.175-0.149-1.679c0.963-1.149,1.798-2.407,2.477-3.742c0.023-0.044,0.049-0.088,0.077-0.128   c-0.179-0.007-0.361-0.053-0.528-0.147c-1.421-0.777-2.824-1.437-4.17-1.961c-0.612-0.237-0.916-0.928-0.677-1.542   c0.24-0.612,0.933-0.916,1.542-0.677c1.44,0.561,2.937,1.265,4.449,2.091c0.577,0.314,0.788,1.04,0.472,1.616   c-0.019,0.033-0.04,0.067-0.06,0.098c0.167,0.007,0.337,0.049,0.498,0.13c0.586,0.298,0.819,1.016,0.519,1.602   c-0.761,1.491-1.693,2.9-2.77,4.189C457.444,211.179,457.107,211.323,456.767,211.323z M466.317,210.858   c-0.265,0-0.533-0.088-0.754-0.267c-1.23-1.005-2.486-1.949-3.733-2.803c-0.542-0.372-0.679-1.112-0.307-1.656   c0.372-0.54,1.112-0.679,1.656-0.307c1.298,0.891,2.607,1.872,3.891,2.919c0.509,0.416,0.584,1.168,0.17,1.677   C467.003,210.709,466.661,210.858,466.317,210.858z M436.068,205.046c-0.34,0-0.677-0.144-0.912-0.426   c-0.423-0.505-0.358-1.256,0.147-1.677c1.314-1.102,2.816-1.965,4.468-2.563c0.621-0.226,1.302,0.093,1.526,0.712   c0.226,0.619-0.095,1.302-0.712,1.526c-1.391,0.505-2.651,1.228-3.751,2.149C436.61,204.955,436.338,205.046,436.068,205.046z    M461.082,202.911c-0.1,0-0.202-0.012-0.302-0.04c-0.637-0.167-1.016-0.819-0.849-1.454c0.374-1.421,0.628-2.93,0.754-4.484   c0.051-0.656,0.633-1.13,1.281-1.091c0.656,0.051,1.144,0.626,1.091,1.282c-0.135,1.695-0.414,3.342-0.823,4.898   C462.093,202.557,461.61,202.911,461.082,202.911z M449.574,202.148c-0.074,0-0.147-0.007-0.221-0.021   c-1.561-0.291-3.079-0.402-4.468-0.34c-0.019,0-0.035,0-0.051,0c-0.635,0-1.163-0.5-1.191-1.14   c-0.028-0.658,0.484-1.214,1.14-1.242c1.57-0.063,3.272,0.056,5.007,0.381c0.647,0.121,1.072,0.742,0.951,1.389   C450.634,201.748,450.134,202.148,449.574,202.148z M461.903,193.463c-0.623,0-1.147-0.486-1.186-1.116   c-0.093-1.477-0.281-3.021-0.561-4.591c-0.116-0.649,0.316-1.268,0.963-1.382c0.656-0.107,1.268,0.314,1.382,0.963   c0.295,1.661,0.495,3.296,0.593,4.861c0.042,0.656-0.458,1.221-1.114,1.263C461.954,193.463,461.928,193.463,461.903,193.463z    M460.277,184.093c-0.523,0-1.005-0.349-1.149-0.877c-0.393-1.444-0.867-2.944-1.407-4.459c-0.221-0.619,0.102-1.3,0.721-1.521   c0.623-0.226,1.3,0.1,1.521,0.721c0.561,1.572,1.054,3.131,1.463,4.631c0.172,0.635-0.2,1.291-0.835,1.463   C460.486,184.079,460.379,184.093,460.277,184.093z M457.095,175.113c-0.461,0-0.9-0.27-1.095-0.721   c-0.612-1.43-1.272-2.854-1.975-4.265c-0.291-0.588-0.051-1.305,0.537-1.598c0.584-0.288,1.302-0.051,1.598,0.537   c0.721,1.454,1.4,2.919,2.03,4.386c0.258,0.605-0.021,1.305-0.626,1.565C457.412,175.083,457.253,175.113,457.095,175.113z    M452.865,166.566c-0.416,0-0.821-0.219-1.04-0.609c-0.768-1.37-1.57-2.723-2.398-4.056c-0.347-0.558-0.174-1.291,0.384-1.64   c0.556-0.34,1.293-0.174,1.64,0.384c0.847,1.361,1.668,2.747,2.454,4.149c0.321,0.572,0.116,1.298-0.458,1.621   C453.262,166.517,453.062,166.566,452.865,166.566z M447.832,158.469c-0.379,0-0.751-0.181-0.981-0.519   c-0.898-1.309-1.816-2.591-2.749-3.835c-0.393-0.528-0.286-1.272,0.24-1.668c0.526-0.393,1.272-0.288,1.668,0.24   c0.951,1.272,1.889,2.582,2.805,3.919c0.372,0.542,0.235,1.282-0.309,1.654C448.299,158.402,448.064,158.469,447.832,158.469z    M442.108,150.843c-0.344,0-0.686-0.149-0.921-0.437c-1.016-1.242-2.044-2.433-3.072-3.568c-0.442-0.488-0.405-1.24,0.081-1.682   c0.488-0.44,1.24-0.405,1.682,0.081c1.056,1.163,2.112,2.386,3.151,3.661c0.416,0.509,0.342,1.261-0.167,1.675   C442.641,150.755,442.373,150.843,442.108,150.843z M411.533,150.008c-0.058,0-0.114-0.005-0.172-0.012   c-2.163-0.309-3.649-1.816-4.082-4.135c-0.121-0.647,0.305-1.268,0.951-1.388c0.633-0.119,1.268,0.302,1.388,0.951   c0.244,1.307,0.944,2.051,2.082,2.214c0.651,0.093,1.102,0.698,1.009,1.349C412.624,149.58,412.115,150.008,411.533,150.008z    M416.127,149.045c-0.451,0-0.881-0.258-1.084-0.695c-0.272-0.598-0.009-1.305,0.588-1.579c1.186-0.542,2.496-1.321,3.893-2.316   c0.535-0.379,1.279-0.256,1.661,0.279c0.381,0.535,0.256,1.279-0.279,1.661c-1.519,1.081-2.961,1.937-4.284,2.544   C416.462,149.011,416.294,149.045,416.127,149.045z M435.7,143.785c-0.302,0-0.605-0.114-0.837-0.344   c-1.156-1.142-2.314-2.212-3.442-3.177c-0.5-0.428-0.558-1.179-0.13-1.679c0.428-0.5,1.181-0.558,1.679-0.13   c1.17,1.002,2.37,2.109,3.568,3.293c0.467,0.463,0.472,1.216,0.009,1.684C436.314,143.666,436.007,143.785,435.7,143.785z    M423.939,143.65c-0.33,0-0.658-0.137-0.893-0.405c-0.435-0.493-0.386-1.247,0.107-1.679c0.533-0.47,1.084-0.968,1.649-1.495   c0.616-0.572,1.191-1.142,1.726-1.709c0.449-0.477,1.205-0.502,1.684-0.047c0.477,0.451,0.498,1.205,0.047,1.684   c-0.568,0.6-1.179,1.207-1.833,1.816c-0.584,0.542-1.149,1.054-1.7,1.537C424.499,143.552,424.218,143.65,423.939,143.65z    M408.993,142.154c-0.135,0-0.272-0.023-0.405-0.072c-0.619-0.223-0.94-0.905-0.714-1.523c0.584-1.614,1.489-3.156,2.617-4.461   c0.43-0.498,1.184-0.551,1.679-0.121c0.498,0.43,0.551,1.182,0.121,1.679c-0.94,1.086-1.693,2.37-2.179,3.712   C409.938,141.854,409.48,142.154,408.993,142.154z M428.435,137.619c-0.235,0-0.472-0.07-0.679-0.212   c-1.405-0.977-2.726-1.747-3.924-2.291c-0.6-0.27-0.865-0.977-0.593-1.575c0.27-0.6,0.979-0.863,1.575-0.593   c1.33,0.602,2.777,1.444,4.3,2.5c0.03,0.023,0.06,0.044,0.088,0.07c-0.007-0.242,0.06-0.486,0.207-0.7   c0.895-1.316,1.605-2.647,2.107-3.952c0.237-0.612,0.93-0.921,1.54-0.684c0.614,0.237,0.919,0.926,0.684,1.54   c-0.57,1.477-1.365,2.968-2.363,4.435c-0.37,0.549-1.114,0.681-1.654,0.314c-0.035-0.023-0.067-0.047-0.098-0.074   c0.007,0.244-0.063,0.493-0.212,0.709C429.181,137.44,428.811,137.619,428.435,137.619z M415.127,135.17   c-0.442,0-0.868-0.249-1.074-0.674c-0.284-0.593-0.035-1.305,0.558-1.591c1.591-0.763,3.303-1.149,5.093-1.149   c0.658,0,1.207,0.533,1.207,1.191c0,0.658-0.519,1.191-1.177,1.191c-1.461,0-2.828,0.307-4.091,0.916   C415.475,135.133,415.301,135.17,415.127,135.17z M433.656,127.855c-0.023,0-0.047,0-0.07-0.002   c-0.658-0.04-1.158-0.602-1.119-1.258c0.014-0.251,0.021-0.505,0.021-0.756c0.002-1.184-0.163-2.382-0.491-3.563   c-0.177-0.633,0.193-1.291,0.828-1.465c0.642-0.181,1.291,0.195,1.465,0.828c0.386,1.388,0.581,2.803,0.579,4.203   c0,0.295-0.007,0.595-0.026,0.893C434.807,127.367,434.282,127.855,433.656,127.855z M431.244,118.799   c-0.405,0-0.8-0.207-1.021-0.579c-0.728-1.216-1.64-2.442-2.707-3.638c-0.437-0.491-0.395-1.244,0.095-1.682   c0.493-0.435,1.242-0.395,1.682,0.095c1.168,1.309,2.168,2.656,2.972,4c0.34,0.565,0.154,1.295-0.409,1.633   C431.663,118.745,431.454,118.799,431.244,118.799z M424.988,111.661c-0.274,0-0.549-0.093-0.772-0.286   c-1.133-0.963-2.372-1.914-3.689-2.826c-0.542-0.374-0.677-1.116-0.302-1.656c0.372-0.544,1.116-0.679,1.656-0.302   c1.384,0.956,2.689,1.956,3.879,2.975c0.5,0.426,0.561,1.177,0.133,1.677C425.658,111.519,425.323,111.661,424.988,111.661z    M417.164,106.221c-0.202,0-0.405-0.051-0.591-0.158c-2.4-1.372-4.119-2.126-4.135-2.135c-0.605-0.263-0.879-0.963-0.616-1.565   s0.965-0.877,1.565-0.616c0.074,0.03,1.849,0.807,4.368,2.251c0.572,0.326,0.77,1.054,0.442,1.623   C417.978,106.007,417.576,106.221,417.164,106.221z"/>
	<path style="fill:#241726;" d="M49.011,230.999c-0.298,0-0.595-0.112-0.828-0.335c-0.053-0.051-1.349-1.305-3.349-3.533   c-0.44-0.488-0.4-1.242,0.091-1.682c0.486-0.442,1.24-0.405,1.682,0.091c1.937,2.158,3.219,3.4,3.233,3.412   c0.472,0.456,0.486,1.209,0.028,1.684C49.635,230.878,49.323,230.999,49.011,230.999z M42.604,223.908   c-0.342,0-0.684-0.149-0.919-0.433c-0.944-1.149-1.951-2.414-2.986-3.784c-0.398-0.526-0.293-1.272,0.23-1.668   c0.528-0.398,1.272-0.295,1.668,0.23c1.016,1.342,2,2.584,2.926,3.705c0.419,0.509,0.347,1.258-0.16,1.677   C43.139,223.819,42.871,223.908,42.604,223.908z M36.861,216.295c-0.377,0-0.751-0.181-0.981-0.516   c-0.884-1.288-1.77-2.635-2.637-4.038c-0.347-0.561-0.174-1.293,0.384-1.64c0.561-0.347,1.293-0.174,1.64,0.384   c0.849,1.37,1.712,2.689,2.577,3.945c0.372,0.542,0.235,1.284-0.307,1.656C37.329,216.228,37.094,216.295,36.861,216.295z    M31.854,208.183c-0.421,0-0.828-0.223-1.044-0.621c-0.765-1.4-1.5-2.84-2.191-4.317c-0.279-0.595-0.021-1.305,0.574-1.584   c0.591-0.277,1.302-0.023,1.584,0.574c0.667,1.43,1.379,2.828,2.121,4.186c0.316,0.577,0.105,1.3-0.474,1.614   C32.245,208.137,32.047,208.183,31.854,208.183z M27.837,199.547c-0.479,0-0.93-0.291-1.112-0.765   c-0.6-1.563-1.121-3.114-1.549-4.612c-0.181-0.633,0.184-1.291,0.816-1.472c0.635-0.188,1.293,0.184,1.472,0.816   c0.409,1.43,0.909,2.917,1.484,4.417c0.235,0.614-0.072,1.302-0.686,1.537C28.123,199.522,27.979,199.547,27.837,199.547z    M25.214,190.4c-0.563,0-1.063-0.4-1.168-0.975c-0.305-1.644-0.512-3.279-0.616-4.859c-0.044-0.656,0.454-1.223,1.109-1.268   c0.658-0.056,1.223,0.454,1.268,1.109c0.098,1.489,0.293,3.031,0.581,4.584c0.119,0.647-0.309,1.268-0.956,1.388   C25.36,190.393,25.286,190.4,25.214,190.4z M24.611,180.918c-0.028,0-0.053,0-0.079-0.002c-0.656-0.042-1.154-0.609-1.112-1.265   c0.107-1.654,0.335-3.298,0.677-4.886c0.14-0.64,0.747-1.042,1.416-0.914c0.642,0.14,1.051,0.772,0.914,1.416   c-0.319,1.475-0.53,3-0.63,4.538C25.756,180.434,25.232,180.918,24.611,180.918z M26.614,171.645c-0.142,0-0.286-0.026-0.426-0.079   c-0.614-0.235-0.921-0.923-0.686-1.537c0.584-1.528,1.293-3.03,2.109-4.465c0.323-0.574,1.049-0.777,1.623-0.447   c0.572,0.323,0.772,1.051,0.447,1.623c-0.756,1.33-1.414,2.723-1.956,4.14C27.544,171.354,27.093,171.645,26.614,171.645z    M88.757,167.368c-0.593,0-1.107-0.444-1.179-1.049c-0.079-0.651,0.386-1.244,1.04-1.323c0.656-0.079,1.319-0.272,1.972-0.572   c0.521-0.237,0.868-0.561,1.061-0.986c0.274-0.6,0.981-0.858,1.577-0.591c0.598,0.272,0.863,0.979,0.591,1.577   c-0.43,0.944-1.202,1.693-2.235,2.165c-0.877,0.402-1.779,0.663-2.682,0.77C88.852,167.366,88.805,167.368,88.757,167.368z    M84.175,166.438c-0.186,0-0.374-0.044-0.551-0.135c-1.375-0.719-2.733-1.786-4.035-3.172c-0.451-0.481-0.428-1.235,0.051-1.684   c0.479-0.449,1.233-0.428,1.684,0.051c1.121,1.193,2.265,2.098,3.403,2.693c0.584,0.305,0.809,1.026,0.505,1.607   C85.017,166.205,84.603,166.438,84.175,166.438z M31.275,163.379c-0.254,0-0.509-0.079-0.723-0.247   c-0.523-0.4-0.621-1.147-0.221-1.668c0.97-1.27,2.056-2.514,3.221-3.698c0.461-0.472,1.214-0.472,1.684-0.014   c0.47,0.461,0.474,1.216,0.014,1.684c-1.098,1.116-2.116,2.284-3.03,3.475C31.987,163.219,31.631,163.379,31.275,163.379z    M92.21,160.535c-0.442,0-0.87-0.249-1.075-0.677c-0.549-1.147-1.421-2.398-2.519-3.621c-0.44-0.488-0.4-1.242,0.091-1.682   c0.488-0.44,1.24-0.402,1.682,0.091c1.265,1.407,2.24,2.817,2.896,4.184c0.284,0.593,0.033,1.302-0.561,1.589   C92.559,160.498,92.385,160.535,92.21,160.535z M77.567,159.723c-0.393,0-0.777-0.195-1.005-0.551   c-0.83-1.302-1.626-2.751-2.363-4.303c-0.284-0.593-0.03-1.305,0.563-1.586c0.591-0.286,1.302-0.033,1.586,0.563   c0.698,1.463,1.444,2.826,2.223,4.047c0.354,0.554,0.191,1.291-0.365,1.644C78.009,159.663,77.788,159.723,77.567,159.723z    M37.908,156.572c-0.34,0-0.677-0.144-0.912-0.423c-0.423-0.505-0.358-1.256,0.144-1.679c1.27-1.068,2.568-2.068,3.856-2.968   c0.54-0.377,1.282-0.249,1.658,0.291c0.379,0.54,0.247,1.281-0.291,1.658c-1.233,0.863-2.472,1.819-3.689,2.842   C38.452,156.481,38.18,156.572,37.908,156.572z M86.014,153.397c-0.258,0-0.516-0.084-0.735-0.254   c-1.179-0.928-2.461-1.791-3.81-2.565c-0.57-0.328-0.765-1.058-0.437-1.628c0.33-0.57,1.054-0.765,1.628-0.437   c1.444,0.833,2.821,1.761,4.089,2.756c0.519,0.407,0.607,1.156,0.202,1.672C86.717,153.241,86.366,153.397,86.014,153.397z    M73.432,151.155c-0.486,0-0.942-0.298-1.119-0.781c-0.547-1.491-1.044-3.049-1.482-4.631c-0.174-0.633,0.198-1.288,0.833-1.465   c0.514-0.142,1.051,0.081,1.323,0.514c0.186-0.047,0.386-0.051,0.586,0.005c1.586,0.412,3.156,0.937,4.668,1.556   c0.609,0.249,0.9,0.944,0.651,1.554c-0.249,0.609-0.954,0.902-1.554,0.651c-1.156-0.474-2.347-0.888-3.554-1.235   c0.242,0.758,0.498,1.505,0.765,2.233c0.226,0.616-0.091,1.302-0.709,1.528C73.706,151.132,73.567,151.155,73.432,151.155z    M45.704,151.122c-0.414,0-0.819-0.219-1.037-0.607c-0.323-0.572-0.121-1.298,0.454-1.621c1.442-0.812,2.917-1.542,4.382-2.165   c0.612-0.256,1.305,0.026,1.563,0.628c0.258,0.607-0.023,1.305-0.628,1.563c-1.386,0.591-2.782,1.279-4.149,2.049   C46.104,151.074,45.904,151.122,45.704,151.122z M54.456,147.417c-0.519,0-0.993-0.34-1.144-0.861   c-0.181-0.633,0.181-1.293,0.814-1.475c1.591-0.458,3.207-0.814,4.803-1.054c0.623-0.093,1.256,0.349,1.354,1   c0.098,0.649-0.349,1.256-1,1.354c-1.493,0.226-3.005,0.558-4.496,0.988C54.677,147.403,54.565,147.417,54.456,147.417z    M68.601,146.247c-0.049,0-0.098-0.002-0.144-0.009c-1.344-0.163-2.71-0.244-4.061-0.244l-0.535,0.005   c-0.702,0.005-1.195-0.519-1.205-1.177c-0.009-0.656,0.519-1.195,1.177-1.205l0.563-0.005c1.447,0,2.907,0.088,4.345,0.263   c0.654,0.079,1.119,0.672,1.04,1.323C69.708,145.803,69.194,146.247,68.601,146.247z M70.881,141.98   c-0.556,0-1.054-0.393-1.165-0.961c-0.309-1.563-0.567-3.175-0.768-4.789c-0.081-0.654,0.381-1.247,1.035-1.328   c0.628-0.093,1.247,0.384,1.328,1.035c0.193,1.558,0.442,3.112,0.74,4.621c0.128,0.644-0.291,1.27-0.937,1.398   C71.036,141.973,70.957,141.98,70.881,141.98z M69.746,132.528c-0.637,0-1.165-0.502-1.191-1.142   c-0.03-0.77-0.047-1.537-0.047-2.303c0-0.861,0.021-1.716,0.063-2.565c0.033-0.656,0.598-1.216,1.244-1.133   c0.658,0.03,1.165,0.588,1.133,1.244c-0.037,0.812-0.058,1.63-0.058,2.454c0,0.733,0.016,1.468,0.047,2.205   c0.026,0.658-0.486,1.212-1.142,1.24C69.778,132.528,69.762,132.528,69.746,132.528z M127.686,125.415   c-0.577,0-1.226-0.142-1.928-0.421c-0.612-0.244-0.909-0.935-0.667-1.547c0.244-0.614,0.937-0.902,1.547-0.667   c0.526,0.209,0.861,0.254,1.049,0.254c0.205-0.023,0.263-0.109,0.263-0.372c0-0.156-0.021-0.337-0.065-0.537   c-0.137-0.644,0.274-1.277,0.916-1.414c0.633-0.123,1.275,0.274,1.414,0.916c0.077,0.365,0.116,0.712,0.116,1.035   C130.33,124.334,129.293,125.415,127.686,125.415z M70.243,123.025c-0.063,0-0.126-0.005-0.188-0.014   c-0.649-0.102-1.093-0.712-0.991-1.363c0.267-1.686,0.633-3.303,1.086-4.8c0.191-0.63,0.863-0.984,1.484-0.795   c0.63,0.191,0.986,0.856,0.795,1.484c-0.423,1.395-0.763,2.903-1.012,4.484C71.325,122.606,70.818,123.025,70.243,123.025z    M122.32,122.366c-0.305,0-0.609-0.116-0.842-0.349c-1.079-1.081-2.135-2.386-3.14-3.877c-0.367-0.547-0.221-1.286,0.323-1.654   c0.542-0.365,1.284-0.226,1.654,0.323c0.919,1.365,1.877,2.551,2.847,3.524c0.465,0.467,0.465,1.221,0,1.684   C122.929,122.25,122.625,122.366,122.32,122.366z M126.89,118.859c-0.36,0-0.719-0.165-0.954-0.477   c-0.833-1.112-1.868-2.23-3.075-3.326c-0.486-0.442-0.523-1.193-0.081-1.682c0.444-0.486,1.195-0.521,1.682-0.081   c1.319,1.195,2.456,2.426,3.382,3.661c0.393,0.526,0.286,1.272-0.24,1.668C127.39,118.782,127.139,118.859,126.89,118.859z    M116.95,114.54c-0.44,0-0.861-0.244-1.068-0.665c-0.719-1.461-1.356-2.984-1.893-4.528c-0.214-0.621,0.114-1.3,0.735-1.516   c0.165-0.056,0.34-0.074,0.5-0.06c0.344-0.2,0.774-0.223,1.154-0.028c1.475,0.772,2.891,1.616,4.205,2.514   c0.544,0.37,0.684,1.112,0.314,1.654c-0.37,0.547-1.114,0.684-1.654,0.314c-0.677-0.461-1.382-0.909-2.109-1.337   c0.277,0.656,0.572,1.302,0.884,1.937c0.291,0.591,0.049,1.305-0.542,1.593C117.306,114.501,117.126,114.54,116.95,114.54z    M73.048,113.963c-0.184,0-0.367-0.042-0.542-0.13c-0.586-0.3-0.819-1.016-0.519-1.602c0.795-1.556,1.73-2.968,2.775-4.193   c0.433-0.5,1.184-0.556,1.679-0.135c0.5,0.428,0.561,1.179,0.135,1.679c-0.926,1.086-1.756,2.342-2.468,3.733   C73.897,113.726,73.481,113.963,73.048,113.963z M111.5,108.009c-0.147,0-0.295-0.028-0.442-0.084   c-1.4-0.561-2.879-1.07-4.396-1.519c-0.63-0.186-0.991-0.849-0.805-1.479c0.188-0.63,0.854-0.988,1.479-0.805   c1.586,0.47,3.135,1.005,4.605,1.589c0.609,0.244,0.907,0.937,0.665,1.549C112.421,107.726,111.973,108.009,111.5,108.009z    M79.219,106.853c-0.386,0-0.765-0.188-0.995-0.537c-0.36-0.549-0.209-1.286,0.342-1.649c1.4-0.921,2.947-1.644,4.598-2.151   c0.628-0.2,1.295,0.158,1.486,0.788c0.193,0.628-0.158,1.293-0.788,1.486c-1.433,0.442-2.775,1.07-3.989,1.868   C79.672,106.791,79.444,106.853,79.219,106.853z M113.822,105.563c-0.549,0-1.042-0.381-1.163-0.937   c-0.351-1.619-0.6-3.254-0.737-4.859c-0.056-0.656,0.43-1.233,1.084-1.288c0.63-0.049,1.23,0.426,1.288,1.084   c0.13,1.505,0.363,3.037,0.691,4.556c0.14,0.644-0.267,1.277-0.909,1.416C113.989,105.553,113.903,105.563,113.822,105.563z    M102.381,105.302c-0.081,0-0.16-0.007-0.242-0.023c-1.498-0.309-3.047-0.565-4.605-0.765c-0.654-0.084-1.114-0.681-1.03-1.333   c0.084-0.651,0.688-1.123,1.333-1.03c1.616,0.207,3.226,0.474,4.782,0.793c0.644,0.133,1.058,0.763,0.928,1.407   C103.43,104.914,102.935,105.302,102.381,105.302z M92.943,104.086c-0.023,0-0.047,0-0.07-0.002   c-0.854-0.051-1.723-0.084-2.61-0.105l-0.556-0.005c-0.493,0-0.977,0.016-1.449,0.044c-0.633,0.07-1.221-0.461-1.261-1.116   c-0.04-0.656,0.461-1.221,1.116-1.261c0.519-0.033,1.049-0.049,1.593-0.049l0.612,0.005c0.914,0.021,1.812,0.058,2.693,0.109   c0.656,0.04,1.158,0.602,1.119,1.258C94.094,103.597,93.569,104.086,92.943,104.086z M113.042,96.099c-0.023,0-0.047,0-0.07-0.002   c-0.658-0.04-1.158-0.602-1.119-1.258c0.1-1.672,0.328-3.321,0.679-4.9c0.142-0.64,0.774-1.044,1.421-0.905   c0.642,0.144,1.047,0.779,0.905,1.421c-0.326,1.456-0.537,2.979-0.628,4.524C114.194,95.611,113.668,96.099,113.042,96.099z    M115.122,86.849c-0.151,0-0.305-0.028-0.454-0.091c-0.607-0.249-0.898-0.944-0.647-1.554c0.628-1.526,1.395-3.007,2.284-4.405   c0.354-0.554,1.086-0.714,1.644-0.365c0.554,0.354,0.719,1.088,0.365,1.644c-0.814,1.279-1.516,2.635-2.093,4.033   C116.033,86.573,115.589,86.849,115.122,86.849z M120.194,78.849c-0.284,0-0.57-0.1-0.798-0.307   c-0.488-0.44-0.528-1.193-0.086-1.682c1.07-1.188,2.272-2.33,3.572-3.4c0.507-0.414,1.256-0.342,1.677,0.165   c0.416,0.507,0.344,1.258-0.165,1.677c-1.209,0.991-2.323,2.054-3.317,3.154C120.843,78.716,120.52,78.849,120.194,78.849z    M127.511,72.804c-0.395,0-0.784-0.198-1.009-0.561c-0.349-0.558-0.179-1.291,0.379-1.64c1.335-0.835,2.775-1.626,4.282-2.354   c0.593-0.288,1.307-0.04,1.591,0.554c0.286,0.593,0.037,1.305-0.554,1.591c-1.43,0.691-2.796,1.44-4.058,2.228   C127.946,72.746,127.727,72.804,127.511,72.804z M136.058,68.645c-0.481,0-0.935-0.293-1.114-0.77   c-0.233-0.616,0.079-1.302,0.693-1.535c0.36-0.135,0.726-0.27,1.098-0.4c0.621-0.221,1.3,0.107,1.519,0.728   c0.219,0.619-0.107,1.3-0.728,1.519c-0.354,0.126-0.705,0.251-1.047,0.381C136.34,68.62,136.198,68.645,136.058,68.645z"/>
</g>















</svg>
