<?xml version="1.0" encoding="UTF-8" standalone="no"?>
<!-- Generator: Adobe Illustrator 16.0.3, SVG Export Plug-In . SVG Version: 6.00 Build 0)  -->

<svg
   xmlns:dc="http://purl.org/dc/elements/1.1/"
   xmlns:cc="http://creativecommons.org/ns#"
   xmlns:rdf="http://www.w3.org/1999/02/22-rdf-syntax-ns#"
   xmlns:svg="http://www.w3.org/2000/svg"
   xmlns="http://www.w3.org/2000/svg"
   xmlns:xlink="http://www.w3.org/1999/xlink"
   xmlns:sodipodi="http://sodipodi.sourceforge.net/DTD/sodipodi-0.dtd"
   xmlns:inkscape="http://www.inkscape.org/namespaces/inkscape"
   version="1.1"
   id="Capa_1"
   x="0px"
   y="0px"
   width="213.22614"
   height="110.39445"
   viewBox="0 0 213.22613 110.39446"
   enable-background="new 0 0 382 96"
   xml:space="preserve"
   sodipodi:docname="LOGOF.svg"
   inkscape:version="0.92.5 (2060ec1f9f, 2020-04-08)"><metadata
   id="metadata4079"><rdf:RDF><cc:Work
       rdf:about=""><dc:format>image/svg+xml</dc:format><dc:type
         rdf:resource="http://purl.org/dc/dcmitype/StillImage" /><dc:title></dc:title></cc:Work></rdf:RDF></metadata><defs
   id="defs4077">
	
	

		
		
		
		
		
		
	</defs><sodipodi:namedview
   pagecolor="#ffffff"
   bordercolor="#666666"
   borderopacity="1"
   objecttolerance="10"
   gridtolerance="10"
   guidetolerance="10"
   inkscape:pageopacity="0"
   inkscape:pageshadow="2"
   inkscape:window-width="1920"
   inkscape:window-height="1012"
   id="namedview4075"
   showgrid="false"
   inkscape:zoom="2.2395288"
   inkscape:cx="254.16004"
   inkscape:cy="135.68961"
   inkscape:window-x="0"
   inkscape:window-y="38"
   inkscape:window-maximized="1"
   inkscape:current-layer="Capa_1" />
<g
   id="g4046"
   transform="matrix(0.8714776,0,0,1.0292729,42.80665,-9.4847498)">
			<g
   id="g3924">
				<defs
   id="defs3917">
					<rect
   id="SVGID_1_"
   x="-17"
   y="-268"
   width="406"
   height="423" />
				</defs>
				<clipPath
   id="SVGID_2_">
					<use
   xlink:href="#SVGID_1_"
   overflow="visible"
   id="use3919"
   style="overflow:visible"
   x="0"
   y="0"
   width="100%"
   height="100%" />
				</clipPath>
				<path
   clip-path="url(#SVGID_2_)"
   d="M 30.162,59.957 C 23.778,53.695 19.652,46.489 18.445,37.964 c -0.056,-0.399 0.4,-0.737 0.889,-0.657 8.505,1.403 16.065,4.376 22.882,8.97 0.496,0.286 0.982,0.582 1.476,0.869 0.761,-0.341 0.412,-0.184 1.174,-0.526 -0.12,-1.368 -0.234,-2.674 -0.3,-3.974 -0.037,-0.731 -0.299,-1.243 -0.945,-1.71 -5.921,-4.285 -12.656,-7.093 -20.025,-8.765 -3.9,-0.882 -7.85,-1.453 -12.11,-1.551 -0.423,-0.01 -0.781,0.28 -0.771,0.619 0.373,11.541 4.572,21.678 13.541,29.935 6.639,6.11 14.652,9.764 23.81,10.92 0.866,0.111 1.208,-0.867 0.394,-1.13 -7.031,-2.26 -13.133,-5.939 -18.298,-11.007"
   id="path3922"
   inkscape:connector-curvature="0"
   style="fill:#2c8f98" />
			</g>
			<g
   id="g3934">
				<defs
   id="defs3927">
					<rect
   id="SVGID_3_"
   x="-17"
   y="-268"
   width="406"
   height="423" />
				</defs>
				<clipPath
   id="SVGID_4_">
					<use
   xlink:href="#SVGID_3_"
   overflow="visible"
   id="use3929"
   style="overflow:visible"
   x="0"
   y="0"
   width="100%"
   height="100%" />
				</clipPath>
				<path
   clip-path="url(#SVGID_4_)"
   d="m 44.616,41.99 c -0.124,-0.002 -0.193,-0.172 -0.253,-0.368 -0.01,-0.011 -0.02,-0.019 -0.029,-0.028 -0.064,-0.069 -0.124,-0.143 -0.187,-0.212 -0.05,-0.049 -0.102,-0.099 -0.156,-0.145 -0.079,-0.067 -0.147,-0.141 -0.218,-0.212 -0.455,-0.043 -0.996,0.55 -1.367,1.62 l -0.052,0.148 c -0.412,1.173 -0.475,2.501 -0.215,3.291 0.042,0.128 0.146,0.229 0.279,0.309 0.706,0.412 1.397,0.841 2.122,1.232 0.286,0.153 0.584,0.302 0.882,0.445 0.046,0.021 0.093,0.04 0.141,0.057 1.344,0.432 2.764,0.639 4.273,0.571 0.149,-0.009 0.335,-0.144 0.503,-0.222 -2.215,-1.542 -4.11,-3.73 -5.723,-6.486"
   id="path3932"
   inkscape:connector-curvature="0"
   style="fill:#2c8f98" />
			</g>
			<g
   id="g3944">
				<defs
   id="defs3937">
					<rect
   id="SVGID_5_"
   x="-17"
   y="-268"
   width="406"
   height="423" />
				</defs>
				<clipPath
   id="SVGID_6_">
					<use
   xlink:href="#SVGID_5_"
   overflow="visible"
   id="use3939"
   style="overflow:visible"
   x="0"
   y="0"
   width="100%"
   height="100%" />
				</clipPath>
				<path
   clip-path="url(#SVGID_6_)"
   d="m 64.099,52.686 c -3.472,0.086 -6.473,-2.162 -6.301,-4.941 0.179,-2.931 2.3,-4.681 5.871,-5.014 3.364,-0.313 6.333,2.035 6.456,4.846 0.131,2.961 -2.293,5.016 -6.026,5.109"
   id="path3942"
   inkscape:connector-curvature="0"
   style="fill:#f18325" />
			</g>
			<g
   id="g3954">
				<defs
   id="defs3947">
					<rect
   id="SVGID_7_"
   x="-17"
   y="-268"
   width="406"
   height="423" />
				</defs>
				<clipPath
   id="SVGID_8_">
					<use
   xlink:href="#SVGID_7_"
   overflow="visible"
   id="use3949"
   style="overflow:visible"
   x="0"
   y="0"
   width="100%"
   height="100%" />
				</clipPath>
				<path
   clip-path="url(#SVGID_8_)"
   d="m 63.574,9.215 c 11.398,6.435 19.811,21.961 16.817,31.251 -0.856,2.655 -2.854,5.069 -4.857,7.488 C 82.507,34.726 73.375,25.447 64.498,15.964 52.234,23.645 47.532,37.542 53.338,48.11 49.101,45.686 46.296,40.819 46.689,35.676 47.516,24.863 54.595,16.639 63.574,9.215"
   id="path3952"
   inkscape:connector-curvature="0"
   style="fill:#2c8f98" />
			</g>
			<g
   id="g3964">
				<defs
   id="defs3957">
					<rect
   id="SVGID_9_"
   x="-17"
   y="-268"
   width="406"
   height="423" />
				</defs>
				<clipPath
   id="SVGID_10_">
					<use
   xlink:href="#SVGID_9_"
   overflow="visible"
   id="use3959"
   style="overflow:visible"
   x="0"
   y="0"
   width="100%"
   height="100%" />
				</clipPath>
				<path
   clip-path="url(#SVGID_10_)"
   d="m 97.383,60.771 c 6.867,-5.987 11.319,-12.874 12.655,-21.007 0.074,-0.453 -0.439,-0.844 -0.998,-0.762 -9.178,1.353 -17.339,4.208 -24.698,8.615 -0.521,0.267 -1.031,0.542 -1.548,0.811 -0.808,-0.387 -0.498,-0.239 -1.305,-0.626 0.125,-1.266 0.242,-2.473 0.309,-3.676 0.04,-0.704 0.325,-1.194 1.024,-1.645 6.405,-4.121 13.692,-6.819 21.664,-8.425 4.206,-0.847 8.464,-1.394 13.055,-1.492 0.484,-0.01 0.891,0.318 0.876,0.709 -0.429,11.049 -4.976,20.752 -14.644,28.663 -6.888,5.637 -15.141,9.096 -24.542,10.354 -0.983,0.13 -1.366,-1.012 -0.436,-1.3 7.1,-2.192 13.297,-5.608 18.588,-10.219"
   id="path3962"
   inkscape:connector-curvature="0"
   style="fill:#2c8f98" />
			</g>
			<g
   id="g3974">
				<defs
   id="defs3967">
					<rect
   id="SVGID_11_"
   x="-17"
   y="-268"
   width="406"
   height="423" />
				</defs>
				<clipPath
   id="SVGID_12_">
					<use
   xlink:href="#SVGID_11_"
   overflow="visible"
   id="use3969"
   style="overflow:visible"
   x="0"
   y="0"
   width="100%"
   height="100%" />
				</clipPath>
				<path
   clip-path="url(#SVGID_12_)"
   d="m 81.746,43.497 c 0.135,-0.002 0.209,-0.166 0.274,-0.356 0.009,-0.009 0.021,-0.018 0.031,-0.026 0.07,-0.066 0.134,-0.136 0.2,-0.204 0.056,-0.047 0.114,-0.093 0.171,-0.138 0.084,-0.067 0.159,-0.134 0.234,-0.204 0.493,-0.041 1.078,0.53 1.48,1.558 0.019,0.047 0.038,0.095 0.056,0.143 0.482,1.224 0.522,2.622 0.154,3.348 -0.843,0.429 -1.658,0.883 -2.518,1.295 -0.333,0.161 -0.681,0.313 -1.027,0.461 -1.478,0.431 -3.04,0.64 -4.704,0.571 -0.16,-0.006 -0.361,-0.137 -0.543,-0.211 2.395,-1.486 4.447,-3.588 6.192,-6.237"
   id="path3972"
   inkscape:connector-curvature="0"
   style="fill:#2c8f98" />
			</g>
			<g
   id="g3984">
				<defs
   id="defs3977">
					<rect
   id="SVGID_13_"
   x="-17"
   y="-268"
   width="406"
   height="423" />
				</defs>
				<clipPath
   id="SVGID_14_">
					<use
   xlink:href="#SVGID_13_"
   overflow="visible"
   id="use3979"
   style="overflow:visible"
   x="0"
   y="0"
   width="100%"
   height="100%" />
				</clipPath>
				<path
   clip-path="url(#SVGID_14_)"
   d="m 63.768,61.184 c -3.078,-3.425 -9.072,-4.602 -11.852,-8.928 10.19,6.895 15.001,6.236 23.839,0.276 0.139,0.114 0.276,0.229 0.414,0.345 -1.936,1.41 -3.818,2.873 -5.824,4.216 -2.06,1.38 -4.241,2.646 -6.577,4.091"
   id="path3982"
   inkscape:connector-curvature="0"
   style="fill:#fcc010" />
			</g>
			<g
   id="g3994">
				<defs
   id="defs3987">
					<rect
   id="SVGID_15_"
   x="-17"
   y="-268"
   width="406"
   height="423" />
				</defs>
				<clipPath
   id="SVGID_16_">
					<use
   xlink:href="#SVGID_15_"
   overflow="visible"
   id="use3989"
   style="overflow:visible"
   x="0"
   y="0"
   width="100%"
   height="100%" />
				</clipPath>
				<path
   clip-path="url(#SVGID_16_)"
   d="m 65.3,59.789 c -1.443,9.184 -0.848,5.393 -2.29,14.574 h -10e-4 c -0.069,0 -0.126,-0.021 -0.126,-0.047 V 59.738 c 0,-0.026 0.067,-0.049 0.141,-0.047 z"
   id="path3992"
   inkscape:connector-curvature="0"
   style="fill:#fcc010" />
			</g>
			<g
   id="g4004">
				<defs
   id="defs3997">
					<rect
   id="SVGID_17_"
   x="-17"
   y="-268"
   width="406"
   height="423" />
				</defs>
				<clipPath
   id="SVGID_18_">
					<use
   xlink:href="#SVGID_17_"
   overflow="visible"
   id="use3999"
   style="overflow:visible"
   x="0"
   y="0"
   width="100%"
   height="100%" />
				</clipPath>
				<path
   clip-path="url(#SVGID_18_)"
   d="m 72.495,71.413 c 4.14,2.618 3.875,5.723 -0.831,9.719 -6.906,5.865 -10.972,5.813 -17.709,-0.223 -4.534,-4.062 -4.591,-7.101 -0.186,-9.787 -1.519,4.433 3.36,11.219 8.762,12.163 0.347,0.061 0.739,0.063 1.084,0 5.176,-0.928 10.15,-7.59 8.88,-11.872"
   id="path4002"
   inkscape:connector-curvature="0"
   style="fill:#2c8f98" />
			</g>
			<g
   id="g4014">
				<defs
   id="defs4007">
					<rect
   id="SVGID_19_"
   x="-17"
   y="-268"
   width="406"
   height="423" />
				</defs>
				<clipPath
   id="SVGID_20_">
					<use
   xlink:href="#SVGID_19_"
   overflow="visible"
   id="use4009"
   style="overflow:visible"
   x="0"
   y="0"
   width="100%"
   height="100%" />
				</clipPath>
				<path
   clip-path="url(#SVGID_20_)"
   d="m 31.037,75.646 h 17.825 c -7.201,2.445 -14.596,2.047 -22.133,1.601 1.657,-5.545 6.246,-9.377 9.74,-8.41 -1.665,2.086 -3.331,4.177 -5.432,6.809"
   id="path4012"
   inkscape:connector-curvature="0"
   style="fill:#99c981" />
			</g>
			<g
   id="g4024">
				<defs
   id="defs4017">
					<rect
   id="SVGID_21_"
   x="-17"
   y="-268"
   width="406"
   height="423" />
				</defs>
				<clipPath
   id="SVGID_22_">
					<use
   xlink:href="#SVGID_21_"
   overflow="visible"
   id="use4019"
   style="overflow:visible"
   x="0"
   y="0"
   width="100%"
   height="100%" />
				</clipPath>
				<path
   clip-path="url(#SVGID_22_)"
   d="m 97.647,20.883 c -6.286,1.195 -12.063,3.01 -17.653,5.452 0.835,0.815 1.277,1.815 1.935,2.719 0.193,0.266 0.386,0.534 0.573,0.805 3.165,-0.997 6.206,-1.923 9.203,-2.917 1.476,-0.49 2.003,-0.127 2.199,0.953 0.368,2.042 0.8,4.081 1.238,6.219 1.851,-0.104 3.646,-0.526 5.445,-0.907 -0.207,-4.145 -1.164,-8.193 -2.94,-12.324"
   id="path4022"
   inkscape:connector-curvature="0"
   style="fill:#99c981" />
			</g>
			<g
   id="g4034">
				<defs
   id="defs4027">
					<rect
   id="SVGID_23_"
   x="-17"
   y="-268"
   width="406"
   height="423" />
				</defs>
				<clipPath
   id="SVGID_24_">
					<use
   xlink:href="#SVGID_23_"
   overflow="visible"
   id="use4029"
   style="overflow:visible"
   x="0"
   y="0"
   width="100%"
   height="100%" />
				</clipPath>
				<path
   clip-path="url(#SVGID_24_)"
   d="m 46,29.734 c 0.974,-1.08 1.318,-2.436 2.186,-3.552 -5.428,-2.329 -11.04,-4.074 -17.13,-5.232 -1.641,3.819 -2.569,7.569 -2.865,11.388 0.244,0.178 0.533,0.315 0.865,0.442 0.336,0.132 0.683,0.244 1.02,0.373 0.747,0.285 1.436,0.628 2.23,0.778 0.122,0.023 0.217,0.086 0.292,0.161 0.319,0.038 0.64,0.069 0.964,0.088 0.437,-2.138 0.869,-4.18 1.236,-6.218 0.196,-1.082 0.724,-1.444 2.198,-0.955 2.916,0.968 5.879,1.874 8.951,2.838 0.013,-0.037 0.022,-0.076 0.053,-0.111"
   id="path4032"
   inkscape:connector-curvature="0"
   style="fill:#99c981" />
			</g>
			<g
   id="g4044">
				<defs
   id="defs4037">
					<rect
   id="SVGID_25_"
   x="-17"
   y="-268"
   width="406"
   height="423" />
				</defs>
				<clipPath
   id="SVGID_26_">
					<use
   xlink:href="#SVGID_25_"
   overflow="visible"
   id="use4039"
   style="overflow:visible"
   x="0"
   y="0"
   width="100%"
   height="100%" />
				</clipPath>
				<path
   clip-path="url(#SVGID_26_)"
   d="M 97.048,75.646 H 79.259 c 7.187,2.445 14.567,2.047 22.088,1.601 -1.653,-5.545 -6.234,-9.377 -9.72,-8.41 1.66,2.086 3.325,4.177 5.421,6.809"
   id="path4042"
   inkscape:connector-curvature="0"
   style="fill:#99c981" />
			</g>
		</g><g
   id="g4092"
   transform="matrix(0.89290302,0,0,1,-109.87707,43.164453)"><g
     id="g4050"
     enable-background="new    ">
			<path
   style="fill:#676767"
   inkscape:connector-curvature="0"
   id="path4048"
   d="m 129.194,66.789 h -6.138 V 32.583 h 25.343 v 4.942 h -19.205 v 9.64 h 17.017 v 4.992 h -17.017 z" />
		</g><g
     id="g4054"
     enable-background="new    ">
			<path
   style="fill:#676767"
   inkscape:connector-curvature="0"
   id="path4052"
   d="m 163.054,61.847 h 19.996 v 4.942 H 156.916 V 32.583 h 6.138 z" />
		</g><g
     id="g4058"
     enable-background="new    ">
			<path
   style="fill:#676767"
   inkscape:connector-curvature="0"
   id="path4056"
   d="m 195.073,37.281 c 3.89,-3.181 9.359,-5.187 15.315,-5.187 6.017,0 11.426,2.006 15.377,5.187 3.828,3.181 6.32,7.536 6.32,12.381 0,4.844 -2.492,9.199 -6.32,12.381 -3.951,3.229 -9.36,5.187 -15.377,5.187 -5.956,0 -11.426,-1.958 -15.315,-5.187 -3.829,-3.182 -6.321,-7.537 -6.321,-12.381 0,-4.845 2.492,-9.2 6.321,-12.381 z m 26.317,3.524 c -2.856,-2.3 -6.808,-3.719 -11.001,-3.719 -4.193,0 -8.083,1.419 -10.879,3.719 -2.796,2.251 -4.558,5.383 -4.558,8.857 0,3.474 1.762,6.605 4.558,8.857 2.796,2.299 6.686,3.719 10.879,3.719 4.193,0 8.145,-1.42 11.001,-3.719 2.734,-2.252 4.497,-5.334 4.497,-8.857 0,-3.523 -1.763,-6.606 -4.497,-8.857 z" />
		</g><g
     id="g4062"
     enable-background="new    ">
			<path
   style="fill:#676767"
   inkscape:connector-curvature="0"
   id="path4060"
   d="m 238.961,37.281 c 3.89,-3.181 9.359,-5.187 15.315,-5.187 6.017,0 11.426,2.006 15.376,5.187 3.829,3.181 6.32,7.536 6.32,12.381 0,4.844 -2.491,9.199 -6.32,12.381 -3.95,3.229 -9.359,5.187 -15.376,5.187 -5.956,0 -11.426,-1.958 -15.315,-5.187 -3.829,-3.182 -6.321,-7.537 -6.321,-12.381 0,-4.845 2.492,-9.2 6.321,-12.381 z m 26.315,3.524 c -2.856,-2.3 -6.807,-3.719 -11,-3.719 -4.193,0 -8.083,1.419 -10.879,3.719 -2.796,2.251 -4.559,5.383 -4.559,8.857 0,3.474 1.763,6.605 4.559,8.857 2.796,2.299 6.686,3.719 10.879,3.719 4.193,0 8.144,-1.42 11,-3.719 2.735,-2.252 4.497,-5.334 4.497,-8.857 0,-3.523 -1.761,-6.606 -4.497,-8.857 z" />
		</g><g
     id="g4068"
     enable-background="new    ">
			<path
   style="fill:#676767"
   inkscape:connector-curvature="0"
   id="path4064"
   d="m 299.563,50.494 c -2.432,5.578 -5.045,11.401 -7.232,16.588 h -4.559 l -14.16,-34.499 h 6.381 l 10.149,24.712 6.989,-16.002 h 4.923 l 6.929,15.952 c 3.343,-8.172 7.051,-16.882 10.211,-24.663 h 6.442 l -14.161,34.499 h -4.559 z" />
			<path
   style="fill:#676767"
   inkscape:connector-curvature="0"
   id="path4066"
   d="m 331.348,32.583 11.608,15.023 11.608,-15.023 h 7.293 l -15.802,20.259 v 13.946 h -6.199 V 52.843 L 324.115,32.584 h 7.233 z" />
		</g></g>

</svg>