<svg xmlns="http://www.w3.org/2000/svg" width="554.51" height="514.66" data-name="Capa 1"><g><title>Layer 1</title><path id="svg_8" fill="#999540" d="m480.7,459.83l2.91,0.49l1.45,0.15l3.15,0.52l1.35,0.15c19.14,2.68 38.27,5.39 56.29,12.93a22,22 0 0 1 6,3.63c3.43,3 3.47,6.09 0,9.12c-3.11,2.75 -6.89,4.36 -10.76,5.71c-15,5.28 -30.66,8 -46.36,10.27c-43.34,6.28 -87,9 -130.72,10.55c-45,1.65 -90,1.69 -135,0.4c-40.15,-1.15 -80.23,-3.44 -120.13,-8.15c-21.89,-2.59 -43.75,-5.54 -64.86,-12.33a48,48 0 0 1 -11.12,-5.08c-5.55,-3.5 -5.57,-8 -0.13,-11.62c6.32,-4.16 13.52,-6.09 20.7,-8a303.06,303.06 0 0 1 37.55,-7.12c2.52,0.76 2.82,3.25 3.85,5.1c1.2,2.16 2.53,3.91 5.28,3.78c1.4,0.9 1.21,2.61 2,3.82c1.34,2.19 0.83,5.41 3.73,6.71c6.52,0.44 13,1.37 19.57,1c2.51,-0.14 5.25,-0.35 4.45,-4.17a3.23,3.23 0 0 0 1.07,-1.84c1.92,-6 -0.25,-11.51 -2.39,-17a1.34,1.34 0 0 0 0.64,-1.63l6.77,-1c0.94,0.31 2,0.52 2.39,1.58c-0.42,4.32 1.45,8.12 2.78,12c0.45,1.32 1.58,1.62 2.83,2c3.74,1.08 7.6,0.13 11.34,0.88c0.14,5.21 2.86,8.58 7.61,10.62c6.27,2.71 12.9,1.84 19.35,2.21c7.47,0.43 15,-0.9 22.49,-1.08q31.5,-0.74 63,-1.54a133.85,133.85 0 0 0 37.37,-6.27c1.84,0.16 3.73,-0.06 5.4,1a1.77,1.77 0 0 0 2.61,-0.5c0.82,-1.17 2.25,-1.45 3.15,-2.21c1.87,-1.57 4.06,-3 5.14,-5.4c2.52,-0.07 4.35,-1.46 6,-3.17c1.77,0 3.35,-2.53 5.43,0.19c0.94,1.24 3.08,0.21 3.36,-1.82a30.64,30.64 0 0 0 0,-4.39a14.87,14.87 0 0 0 5.93,-1.31c4.19,-1.7 7.45,-5.06 11.86,-6.22c1.22,0.11 1.63,1 1.83,2c1.62,8.7 5.28,16.83 7.11,25.46a11.81,11.81 0 0 0 1.66,4c0.52,0.81 1.12,2.08 2.13,1.69c1.4,-0.54 0.53,-1.82 0.31,-2.85q-3.45,-16 -6.84,-32l28.21,1.26a162.63,162.63 0 0 1 -2.74,31.74c-0.42,2.39 -0.38,3.92 2.89,3.9c16.34,-0.14 32.68,-0.1 49,0c2.51,0 3.2,-0.6 2.57,-3.24a160,160 0 0 1 -4,-29.56c13.36,1.56 26.82,2.14 40.1,4.46c3.29,0.64 2.5,3.58 2.91,5.62c1.08,5.34 2,10.67 4.23,15.63c1.05,-0.21 1.1,-0.79 1,-1.21q-1.78,-9.96 -3.7,-19.86zm-125.21,28.16c2.83,-4.29 2.58,-8.68 0,-12.88c-3.09,-5.07 -8,-7.27 -13.74,-7.61c-6.8,-0.4 -13.83,0.85 -17.74,6.48s-3.31,12.58 -1.53,19.18c1.81,3.22 3.49,7.06 7.65,7.24c5.53,0.25 11.11,-0.74 16.68,-0.17l0.66,-0.36l0.92,-0.14c2.85,0.12 4.4,-1.83 6,-3.74s6.54,-2.24 7.38,-0.45c2.39,5.14 3.31,5.43 8.36,2.63s10.45,-3.61 16.08,-1.61c0.84,0.3 1.72,1.13 3.35,0a18.82,18.82 0 0 0 -13.2,-2.38c-3.09,0.57 -5.8,2.09 -8.58,3.44c-2.06,1 -4.19,1 -4.43,-1.79c-0.26,-3 -2.23,-3.31 -4.11,-3c-3.73,0.66 -4.6,-1 -4.27,-4.19l0.52,-0.65zm117.69,2.69c2.44,-1.81 2.67,-3.79 1.58,-6.12s-3.24,-2.64 -5.58,-2.72c-6,-0.21 -10.83,2.17 -15.1,6c-1.44,1.3 -2.87,2.31 -4.87,2.27a42.07,42.07 0 0 0 -11.35,1.69c-5.05,1.32 -10.26,2.48 -14.6,5.9a5.69,5.69 0 0 0 3.58,1.37a65,65 0 0 0 22.89,-0.43a10.67,10.67 0 0 1 7.78,1a17.8,17.8 0 0 0 14.37,1.42c2.39,-0.75 4.78,-1.4 5.1,-4.56c0.28,-2.82 -0.76,-4.76 -3.8,-5.82z" class="cls-4"/><path id="svg_9" fill="#b7b86e" d="m486.77,282.3c0.09,-1.44 -0.95,-2.51 -1.28,-3.8c-0.42,-1.68 -0.71,-3.39 0.79,-4.79a4,4 0 0 1 4.72,-0.78c1.89,0.81 3.83,1.51 5.74,2.26l9.63,9.27c-0.86,-5.21 -1.76,-9.21 -4.72,-12.46c-0.17,-4.76 -3.36,-8.2 -5.55,-12c-2.84,-4.89 -6.68,-9.2 -9.63,-14c-1.81,-3 -4,-3.17 -6.9,-2.62c-6.59,1.23 -11.86,-1.27 -16.13,-6.13c-1.42,-1.62 -1.92,-3.66 -0.3,-5.41s3.35,-1.71 5.39,-0.59c3.34,1.81 7.12,2.65 11.16,5.39c-2.85,-5.38 -5.43,-9.77 -7.56,-14.38a73.38,73.38 0 0 1 -7,-24.4c-0.33,-3.69 -0.66,-7.38 -0.7,-11.08c0,-2.81 -1.87,-2.39 -3.56,-2.42a25.09,25.09 0 0 1 -17.9,-7.65c-2.9,-2.9 -4,-7.69 -2.44,-9.75c1.72,-2.23 5.41,-2.54 9.62,-0.45c4.85,2.41 8.57,6.23 12,10.38a3.24,3.24 0 0 0 2.54,1.77c0.13,-13.06 2.48,-26.07 -2.53,-38.73c-0.27,-0.69 -0.54,-1.38 -0.87,-2c-2.21,-4.54 -2.43,-4.5 -6.5,-1.61a15,15 0 0 1 -14.72,1.72c-2.25,-0.86 -4.33,-2.59 -3.61,-5.33a6.23,6.23 0 0 1 6,-4.79c2.72,-0.16 5.45,0 8.18,-0.06c0.8,0 1.88,0.42 2.29,-0.64c0.32,-0.8 -0.49,-1.3 -1,-1.81a36.6,36.6 0 0 0 -12,-8.61c-3.08,-1.28 -5.6,-0.94 -8.09,1.5c-4.11,4 -9.12,4.62 -14.43,2.8c-2.32,-0.8 -3.85,-2.49 -3.55,-5.05s2.07,-3.8 4.32,-4.53c5,-1.62 9.78,-0.46 14.47,1.26c2.4,0.89 4.74,1.9 7.78,1.44c-2.29,-4.28 -4.28,-8.33 -3.66,-13.19c0.36,-2.86 1.16,-5.21 4.13,-5.82c3.18,-0.66 4.67,1.58 5.67,4.17c2,5.29 1.79,10.69 0.45,16.05c-0.37,1.5 -0.52,2.71 0.83,3.6c8,5.31 14.34,12 17.84,22.31c1,-2.92 1.7,-4.8 2.3,-6.69a27.9,27.9 0 0 1 7.37,-11.42c2.26,-2.22 5.25,-3.13 7.78,-1.56c2.36,1.46 1.53,4.41 0.72,6.83c-2.54,7.56 -7.95,13.06 -13.57,18.27a8,8 0 0 0 -2.59,8.59c0.75,3.18 -0.14,6.38 -0.14,9.54c0,13 -1.47,26 1.32,38.87c0.22,1 0.65,2 1.16,3.63c1,-6 1.7,-11.38 5.56,-15.69c1.47,-1.64 3.13,-2.57 5.21,-1.92s2.15,2.71 2.17,4.63c0,3.11 -1.39,5.82 -2.66,8.42c-2.06,4.21 -3.44,8.73 -6,12.72a4.4,4.4 0 0 0 -0.31,4.56c5.65,11.86 13.71,22.15 21.6,32.88c0,-3.14 0.1,-6.28 0,-9.41a11.82,11.82 0 0 1 2,-7.34c1.36,-2.07 2.65,-4 5.54,-3.33s3.49,3 3.63,5.39c0.42,7.2 0,14.34 -2.31,21.24c-0.48,1.41 -1.19,2.75 -1.54,4.18c-0.66,2.63 -0.17,4.8 2.94,5.48c0,1.1 -0.41,2.37 0,3.28a61.46,61.46 0 0 1 5.13,22.4a6,6 0 0 0 0.64,1.57c2.64,-2.95 4.43,-6.26 7.34,-8.58c2.52,-2 5,-4.06 8.31,-4.62c3.93,-0.67 6,1.62 4.72,5.42c-1.32,4.07 -4.35,6.85 -7.74,9.19a68.68,68.68 0 0 1 -7.95,4.75c-3.28,1.64 -6.11,3.49 -6.55,7.52a7.14,7.14 0 0 0 -1.56,-4.46c0,-3.84 0.07,-7.67 0.13,-11.5c0,-2.7 -1,-4.19 -4,-4c-3.16,0.19 -6.05,-1 -9,-2.07c-3.29,-1.33 -5.56,-4.12 -8.57,-5.81z" class="cls-5"/><path id="svg_10" fill="#b7b86e" d="m100.31,470.33c-2.76,0.13 -4.09,-1.62 -5.29,-3.78c-1,-1.85 -1.33,-4.34 -3.85,-5.1c0.93,-1.33 0.28,-2.63 -0.09,-3.91c-4.22,-14.58 -5.81,-29.4 -3.14,-44.41c1,-5.63 -3.14,-6.38 -6.3,-8.29a23.53,23.53 0 0 1 -9.43,-9.69c-0.94,-1.92 -1.5,-4.12 0.46,-5.79s4,-0.95 5.81,0.32c2.49,1.68 4.28,4.08 6.29,6.24c1.41,1.52 2.74,3.12 4.14,4.72c1.58,-1.55 1.07,-3.41 1.42,-5c3.13,-14.26 2,-28.53 0.28,-42.84c-1.27,-10.57 -2.5,-21.17 -2,-31.84c0.19,-3.66 -0.92,-5.9 -4,-7.92c-6.28,-4.14 -10.68,-9.6 -9.93,-17.79c4.64,-0.87 6.38,0.07 9,4.28c1.64,2.67 2.48,5.9 5.56,8.35c1,-5.2 2.1,-9.93 2.88,-14.71c0.21,-1.27 -1.27,-2.05 -2.17,-2.85a23.36,23.36 0 0 1 -7.63,-12a17.22,17.22 0 0 1 -0.44,-4c0,-1.17 0.19,-2.29 1.5,-2.67a2.58,2.58 0 0 1 3.24,1c2.3,3.48 4.69,6.9 7.2,10.55c2.64,-2.5 2.58,-6.06 3.33,-9.11c2.24,-9.05 5.4,-17.89 5,-27.54a14.85,14.85 0 0 1 5.83,-12c2.18,-1.76 4.69,-1.07 5,1.6c0.34,3 0.27,5.93 -1.58,8.85c-3.8,6 -7.77,12 -9.14,19.23c-0.2,1.05 -0.88,2.37 0.28,3s1.6,-0.83 2.37,-1.37c2.32,-1.59 4.55,-3.23 7.55,-3.63c1.61,-0.21 2.91,-0.52 3.88,1a3.71,3.71 0 0 1 -0.38,4.51c-1.84,2.4 -4.47,3.86 -7,5.35a25.12,25.12 0 0 1 -4,2c-4.2,1.56 -6.89,4.18 -7.11,8.93c-0.15,3.21 -1.89,6.11 -1.9,9.4c0,2.24 0.82,3 2.93,2.2a15.77,15.77 0 0 1 5.78,-1.16c1.61,0 3,0.35 3.69,1.91s-0.24,2.88 -1.2,4c-1.86,2.16 -4.52,3 -7.12,3.66c-7.35,1.78 -7.36,1.69 -7.77,9c-0.08,1.34 -0.34,2.68 -0.51,4c0,7.28 -0.89,14.65 1.76,22.23c2.37,-3 3.46,-6.25 6,-8.47c1.62,-1.42 3.28,-3.08 5.52,-1.56s1.91,3.92 1,6c-2,4.67 -4.52,9.24 -8.26,12.68c-3.12,2.87 -3.38,5.87 -2.88,9.63c0.89,6.75 1.6,13.56 0.86,20.35c-1.67,15.48 -3.56,30.94 -5.34,46.41c-0.18,1.63 -0.42,3.36 1.3,4.86c1,-1.48 1.82,-2.68 2.57,-3.94a14.74,14.74 0 0 1 5.41,-5c2.11,-1.25 4.59,-1.64 6.7,-0.21s1.87,3.9 1.15,6.09a34.93,34.93 0 0 1 -10.3,15.12c-1.88,1.69 -4.59,3 -4.29,6.07c0.45,4.67 1.14,9.32 3.61,13.47c0.71,2 0,4.75 3.06,5.41c0.23,1.46 0.46,2.81 0.69,4.16z" class="cls-5"/><path id="svg_12" fill="#b7b86e" d="m480.7,459.83q1.86,9.9 3.69,19.83c0.08,0.42 0,1 -1,1.21c-2.18,-5 -3.15,-10.29 -4.23,-15.63c-0.41,-2 0.38,-5 -2.91,-5.62c1.8,-0.63 1.79,-2 1.66,-3.61a222.87,222.87 0 0 1 0,-37.88a4.86,4.86 0 0 0 -2.25,-5a12.11,12.11 0 0 1 -5.18,-8.3c-0.26,-1.64 -0.79,-3.76 1.31,-4.56s3,1.13 3.9,2.6c1,1.7 1.56,3.74 3.25,5.14c1.18,-2.15 1.06,-4.32 1.46,-6.38c1.95,-10.11 5.06,-19.91 7.86,-29.79c0.53,-1.86 0.67,-3.09 -1.47,-4.17c-3.37,-1.69 -4.7,-5 -5.24,-8.53c-0.32,-2.05 -0.63,-4.71 2,-5.36s3.78,1.56 4.6,3.79c0.72,2 0.76,4.27 2.65,6.08a233.44,233.44 0 0 0 7.9,-22.37c5.66,0.13 11.46,0.83 16.08,-3.61c2.29,-2.2 5.69,-3.29 6.77,-6.72c2.94,1.79 3.4,4.79 0.88,7.64c-5.42,6.1 -12.5,9.64 -20.12,12c-3,0.95 -4.78,2.34 -5.7,5.45c-2.18,7.35 -4.72,14.59 -7,21.89c-0.32,1 -1.12,2 -0.41,3.35c1.93,-0.8 3.09,-2.86 5.19,-3.3c1.1,-0.23 2.33,-0.51 3.17,0.38s0.71,2.26 0.05,3.44c-2.6,4.67 -7,7.64 -10.84,11.05c-1,0.85 -1.91,1.56 -2.14,2.83c-1.81,10.1 -4.31,20.08 -4.8,30.38c0,0.68 -0.33,1.48 0.73,2.16c1.36,-1.44 2.68,-3 4.16,-4.36a13.34,13.34 0 0 1 3.1,-2c1.93,-1 4.18,-1.84 5.82,0.06s0.77,4.28 -0.53,6.16a32,32 0 0 1 -9.15,9.11c-3.33,2.1 -4.78,4.62 -4.27,8.6c0.53,4.65 0.7,9.35 1.01,14.04z" class="cls-5"/><path id="svg_13" fill="#ce6361" d="m508.17,305.61a7.14,7.14 0 0 1 1.56,4.46c-0.06,0.51 -0.11,1 -0.17,1.53c-0.08,0.07 -0.23,0.14 -0.22,0.19a2.64,2.64 0 0 0 0.19,0.51c0,0.51 -0.07,1 -0.11,1.54a25.19,25.19 0 0 1 -9.34,19.3l0,0l-1.44,0.05c-4.77,1.52 -9.63,-0.39 -13.4,-5.26c0,-0.13 0,-0.25 -0.06,-0.37c-3.7,-12.7 -0.4,-21.33 10.82,-28.31c0.24,-0.16 0.27,-0.65 0.4,-1l1.45,0.25l0.89,0.34c4.62,0.2 7.1,3.38 9.43,6.77z" class="cls-6"/><path id="svg_15" fill="#d97f78" d="m485.24,327.93c3.76,4.87 8.62,6.78 13.39,5.26c0.51,0.74 1,0.71 1.44,-0.05l0,0c3.76,0.68 4.9,-3.24 7.66,-4.34c1.59,-0.64 2.9,-3 4.7,0.08c0.94,1.59 2.27,-0.49 2.89,-1c1,-0.87 -1.13,-0.51 -1.09,-1.35c6.11,-0.47 7.25,0.23 7.29,4.46c-1.08,3.43 -4.48,4.52 -6.77,6.72c-4.62,4.44 -10.42,3.74 -16.08,3.61l0,0a2.59,2.59 0 0 0 -0.4,-0.41l-1.08,-0.4c0.62,-1.11 1.14,-2.3 -0.23,-3.18c-1.72,-1.1 -2.92,0.28 -4.21,1.09c-1.86,-0.63 -3,-2.54 -4.95,-2.94l-1.1,-1.67c-1.12,-1.54 -2.42,-3 -2.27,-5.1l0.81,-0.78z" class="cls-7"/><path id="svg_16" fill="#de8583" d="m514.24,326.49c0,0.84 2.06,0.48 1.09,1.35c-0.62,0.55 -2,2.63 -2.89,1c-1.8,-3 -3.11,-0.72 -4.7,-0.08c-2.76,1.1 -3.9,5 -7.66,4.34a25.19,25.19 0 0 0 9.34,-19.3c1.14,2.41 3.16,1.14 4.83,1.1s3.68,-0.91 4.78,0.77c1.23,1.87 -0.56,3.43 -1.32,5c-1.01,2.07 -3.62,3.1 -3.47,5.82z" class="cls-8"/><path id="svg_17" fill="#b7b86e" d="m509.76,265.9a1.49,1.49 0 0 1 1.44,-1.16c-0.2,0.74 -0.58,1.24 -1.44,1.16z" class="cls-5"/><path id="svg_18" fill="#b7b86e" d="m485.1,460.47l-1.45,-0.15a0.89,0.89 0 0 1 1.45,0.15z" class="cls-5"/><path id="svg_19" fill="#b7b86e" d="m489.6,461.14l-1.35,-0.15a1,1 0 0 1 1.35,0.15z" class="cls-5"/><path id="svg_20" fill="#de8583" d="m509.53,312.3a2.64,2.64 0 0 1 -0.19,-0.51c0,-0.05 0.14,-0.12 0.22,-0.19a0.53,0.53 0 0 1 -0.03,0.7z" class="cls-8"/><path id="svg_21" fill="#b7b86e" d="m511.29,264.67l0.68,-0.66l-0.68,0.66z" class="cls-5"/><path id="svg_22" fill="#b7b86e" d="m506.07,268.97l0.63,-0.54l-0.63,0.54z" class="cls-5"/><path id="svg_23" fill="#693112" d="m290.2,118.11c-0.6,-2.16 1.47,-2.54 2.5,-3.35c9.39,-7.38 20.33,-9.2 31.88,-8.28c6.82,0.55 13.47,2 19.48,5.48c6.47,3.8 10.95,9.15 12.81,16.54c0.62,2.47 1.54,4.72 4.73,4.58c1.1,0.88 2.42,0.61 3.57,0.44c6.81,-1 13,-0.38 17.54,7.13c-1.45,-7.58 -5.68,-10.72 -11.8,-9.62c-3.14,0.57 -6.25,1.4 -9.37,2.11c4.31,-3.87 9.55,-4.33 14.75,-3.18c5.6,1.24 7.82,6.06 8.33,11.11a64.16,64.16 0 0 0 2.52,12.83c3.15,10.17 -4.78,23.48 -16.07,28.32c-4.93,2.12 -10.06,2.37 -15.28,2.1l-5.92,-1.69a21.84,21.84 0 0 1 -5,-4.37c-1.95,-3.83 -0.58,-7.63 0.1,-11.45c0.05,-0.28 0.11,-0.56 0.17,-0.85l-0.75,0.31l-3.37,1.48c-5.45,2.37 -11,4.16 -17.1,4c-6.68,-0.17 -11,-4.13 -15.15,-8.57a20,20 0 0 1 -2.2,-7.73c-0.57,-5.07 -4.89,-7.19 -9.49,-4.9c-5.82,2.91 -9.11,12.12 -6.5,18.22c-1.47,2.71 -2,5.41 0.07,8.09c-3.32,4.08 -3.37,8 -0.27,11.51c1.43,1.61 3.46,2.17 5.14,3.32a10.9,10.9 0 0 1 -6.95,2.31c-0.86,-0.46 -1.73,-0.94 -2.61,-1.4s-1.67,-1.94 -2.8,-1.46s-0.47,2 -0.52,3c-0.33,7.14 -3.53,10.34 -10.91,10.82c-1.12,-0.14 -2.3,-1.25 -3.32,0.21l-2.68,-0.1c2.45,-2.48 -1.53,-2.7 -1.53,-4.32c1.86,-1.06 2.61,2.47 4.87,1c-4.81,-2.36 -2.7,-7.61 -5,-11.41a11.17,11.17 0 0 0 -1.45,4.31c-0.47,2.36 2.07,3.81 1.61,6.1c-3.13,-2.15 -3.5,-5.08 -2.45,-8.46c1.18,-3.8 0.8,-4.61 -3.32,-4.4a21.21,21.21 0 0 1 -13.58,-3.81a18.49,18.49 0 0 1 -7.54,-20.82a16.78,16.78 0 0 1 16.27,-11.7a17.58,17.58 0 0 1 6.81,1.61c2.94,1.32 4.63,0.29 5.95,-2.29q1.86,-3.63 3.89,-7.18c4.86,-8.51 11.49,-15.77 17,-23.81c0.61,-0.9 1.23,-2.46 3,-1.84l-0.72,1.55l-0.77,0.71l-0.11,0.29l0.06,-0.33c0.53,0.06 0.81,-0.16 0.77,-0.72c1,0.3 1.45,-0.28 1.86,-1l1.29,-1l1.75,-1.15a48.25,48.25 0 0 1 25.24,-8.36c-9.49,-0.35 -18.32,1.46 -25.85,7.64l-1.71,1.27l-1.11,1.14l-0.76,0.02zm66.37,64.64c17.93,1.43 32.32,-12.49 29.25,-28.3c-5.17,19.54 -12.72,26.35 -29.2,26.36c-9.3,-1.51 -9.5,-8.44 -9.17,-15.75a28.73,28.73 0 0 0 -1.58,4.62c-1.6,6.22 0.64,10.36 6.72,12.28a37.35,37.35 0 0 0 3.98,0.79zm-43.94,-17.73a16.2,16.2 0 0 0 11.26,5.23c7.46,0.43 14,-2.33 20.33,-5.82c0.88,-0.48 1.9,-1 1.64,-2.16a2.54,2.54 0 0 0 -2.53,-1.83a25.23,25.23 0 0 0 -7.35,0.35c-7.46,1.43 -14.54,4.77 -23.35,4.23zm-60.77,-11.66a14.47,14.47 0 0 0 -13.49,11.2c-1.77,6.7 0.83,13.74 6.33,17.15c-2.15,-10.77 0.09,-19.65 7.16,-28.35zm99.89,-32c-4.34,-8.22 -19.27,-14.77 -28.15,-12.4c9.91,2.88 18.85,8 28.15,12.41l0,-0.01zm-82.78,80.84c4,2 6.65,1.63 8.44,-1.29c-2.71,1.71 -5.34,0.9 -8.44,1.3l0,-0.01z" class="cls-9"/><path id="svg_24" fill="#513d32" d="m265.7,205.07l2.68,0.1c0.05,1 0.15,2 0.15,2.95q0.06,25.8 0.1,51.61c0,1.48 -0.19,3 1.06,4.15c11.32,10.57 24.32,16.79 40.22,15.61c2.7,-0.2 4,-1.26 4.68,-4.05a88.8,88.8 0 0 0 -1.41,-47.23c1.92,0.12 2.82,1.42 3.46,3c4.1,15.14 5.53,30.41 2,45.94l5.78,0c0.67,0.28 1.54,0.51 1.45,1.41c-0.56,5.65 -0.3,11.45 -2.87,16.76c-3.15,-0.84 -5.06,1.58 -7.42,2.83c-1.3,-0.64 -1.68,-2.05 -2.55,-3.05c-3.14,-3.62 -6.76,-5.6 -11.62,-3.6c-7.76,1.27 -13.15,8.27 -12,15.54c-1.64,-0.15 -3.53,-1.53 -4.8,0.34c-1.13,1.66 0.34,3.27 0.81,4.89c0.61,2.11 3,3 3.42,5.19c0,0.83 0.05,1.65 0.07,2.48c-0.1,1.13 -0.19,2.25 -0.29,3.38c-3.2,0.12 -6.85,-0.75 -8.11,3.67c-2,4.77 -1.69,7 1.53,9.83c-2.12,2.48 -0.86,3.46 1.69,4.14c3.28,0.89 5.76,-1.46 8.7,-1.89c2.36,11.09 4.8,22.17 7.06,33.29c1.22,6 3.14,11.89 3.4,18.09a16.74,16.74 0 0 1 -1.21,-1.32a268.39,268.39 0 0 1 -19.64,-32.19c0.92,-2.85 6.29,-2.78 5.21,-6c-0.87,-2.6 -4.19,-4.39 -6.42,-6.54c-0.18,-0.17 -0.35,-0.35 -0.52,-0.53a4.92,4.92 0 0 0 -5,-1.64c-6,-14.4 -11.25,-28.95 -12.92,-44.65a251.8,251.8 0 0 0 -4.24,-27.8l-0.18,-2l0.19,-1.67c2.5,-4.84 5.28,-9.4 5.38,-15.31c0.28,-15.22 1.13,-30.43 1.76,-45.65l0.4,-0.08z" class="cls-10"/><path id="svg_25" fill="#b7b86e" d="m126.35,416.44c1.78,-8.07 3.71,-16.11 5.31,-24.22c2.27,-11.51 0.18,-22.87 -1.77,-34.19c-0.82,-4.74 -2,-9.42 -2.74,-14.16a7.64,7.64 0 0 0 -4.27,-6a32.83,32.83 0 0 1 -12.18,-11.12c0.43,-1.95 -0.28,-4.61 2.42,-5.31a7.22,7.22 0 0 1 7.13,2.12c0.7,0.7 1.39,1.42 2.06,2.15s1.12,2.64 2.68,2c1.4,-0.59 0.78,-2.22 0.75,-3.37c-0.31,-14.43 3.21,-28.11 8.16,-41.49c2.61,-7.07 5.38,-14.08 8.18,-21.07c1.08,-2.69 1.07,-4.63 -1.56,-6.68c-5.65,-4.4 -8.9,-10.41 -10.5,-17.39c-0.53,-2.3 -0.64,-4.47 1.58,-5.48s4.3,0.37 5.79,2.22c3.71,4.59 5.78,10 8.11,15.89c2.71,-4.22 2.6,-8.92 4,-13.11c0.87,-2.55 1,-5.33 1.88,-7.9c0.78,-2.36 0,-3.67 -1.94,-4.91c-8.32,-5.27 -13.22,-12.46 -12.55,-22.74c0.13,-2.1 -0.3,-4.54 2.35,-5.25a6.2,6.2 0 0 1 7.2,2.54c2.64,3.83 3.52,8.41 5.38,12.58c0.44,1 0.78,2 1.17,3c1.41,-0.33 1.55,-1.39 1.73,-2.31c1.95,-9.9 3.85,-19.82 5.82,-29.72a5.08,5.08 0 0 0 -0.65,-4.27c-4.21,-5.5 -1.55,-19.92 2.67,-24.49c1.25,-1.36 2.38,-3.36 4.44,-2.57s3.26,2.92 3.43,5.34a32.57,32.57 0 0 1 -4.28,18.15c-2.87,5.26 -5.82,19.22 -5.12,25.73c3.66,-2.52 7.29,-4.8 10.65,-7.42a14.76,14.76 0 0 1 7.55,-2.69c1.88,-0.25 3.74,0 4.81,2c1,1.83 0.27,3.4 -0.78,4.83c-4.25,5.77 -9.95,10.06 -16.76,11.5s-9,5.08 -9.82,11.59a165.7,165.7 0 0 1 -5.16,25.72c-3.05,10.71 -7.45,20.93 -11.54,31.26a2.66,2.66 0 0 0 -0.34,2.3c4.13,-1.91 7.63,-4.68 11.81,-6.21a20.6,20.6 0 0 1 7.61,-1.14c1.81,0 3.66,0.32 4.42,2.12s-0.07,3.69 -1.45,5.07c-2.85,2.84 -6.55,4.46 -10.14,6a74.79,74.79 0 0 1 -12.73,3.86a6.43,6.43 0 0 0 -5.27,4.91c-4.14,13 -5.12,26.38 -4.29,39.94c1.15,6.79 2.29,13.58 3.55,21c2.44,-2.55 2.86,-5.19 3.92,-7.48c1.38,-3 2.9,-5.78 6,-7.25c1.63,-0.76 3.39,-1.05 5,0s1.56,3 1.15,4.74c-1.54,6.51 -6,11.34 -10,16.33c-2.72,3.4 -4.26,6.69 -3.8,11.13c1.44,13.91 -1.56,27.34 -4.84,40.72c-0.38,1.56 -0.82,3.11 -1.23,4.67l-3,-1.47z" class="cls-5"/><path id="svg_26" fill="#decdc2" d="m313.19,228.21a88.8,88.8 0 0 1 1.41,47.23c-0.66,2.79 -2,3.85 -4.68,4.05c-15.9,1.18 -28.9,-5 -40.22,-15.61c-1.25,-1.16 -1.06,-2.67 -1.06,-4.15q0,-25.8 -0.1,-51.61c0,-1 -0.1,-2 -0.15,-2.95c1,-1.46 2.2,-0.35 3.32,-0.21c1.89,1.63 3,4.26 5.94,4.53c0.89,8.95 2.47,17.63 8.32,25c2.26,2.82 9,4 12,2.1c4,-2.57 6.69,-6.34 9.56,-10c2,0.22 4.17,-0.2 5.66,1.62z" class="cls-11"/><path id="svg_27" fill="#f4b28a" d="m344.85,178.26a21.84,21.84 0 0 0 5,4.37a17.71,17.71 0 0 1 0.64,12.11l-0.76,0.75a1.47,1.47 0 0 0 -1.47,1.53l-1.41,1.4a2.44,2.44 0 0 0 -1.52,2.39c0.65,2.54 -2,2.5 -3,3.56a41.55,41.55 0 0 1 -10.7,7.92c-7.58,3.95 -15.35,3.93 -23.31,4.16a7.15,7.15 0 0 0 -1.78,-1.24c-8.51,-2.62 -14.05,-8.46 -17.8,-16.26c-0.05,-1.65 -0.1,-3.29 -0.16,-4.94a10.9,10.9 0 0 0 6.95,-2.31c7.37,-0.05 8.78,-0.9 10.73,-6.78c1,-3 1.44,-5.94 -1.68,-8.09c-2.2,-1.52 -4.43,-3 -6.64,-4.48c-1.3,-3.61 -2.81,-4.35 -7.35,-3.57c-2.61,-6.1 0.68,-15.31 6.5,-18.22c4.6,-2.29 8.92,-0.17 9.49,4.9a20,20 0 0 0 2.2,7.73c-3.11,3.42 -0.66,6.89 -0.09,10.34c0.44,2.67 2.23,3.21 4.35,2.31c2.87,-1.23 5.45,-0.72 8.13,0.45a7.39,7.39 0 0 0 7.1,-0.24c4.8,-3 9.08,-2 13.08,1.33c1.13,0.95 2.03,1.72 3.5,0.88zm-26.3,32.08a11.91,11.91 0 0 0 7.15,-2.78c1.13,-0.86 1.25,-2.17 -0.6,-2.16a9.82,9.82 0 0 1 -8.73,-4.67c-0.68,-1 -1.71,-1.11 -2.32,0.18a7,7 0 0 0 0.14,6.45c1.02,1.9 2.51,3.2 4.36,2.98zm10,-26.46c5.64,-1.42 10.3,-0.58 15.6,0.75c-4.17,-5.64 -10.02,-5.89 -15.64,-0.75l0.04,0zm12.15,6.15c-0.17,-2.25 -1.21,-3.64 -3.39,-3.75a3.22,3.22 0 0 0 -3.66,3.27a3.29,3.29 0 0 0 3.35,3.61c2.26,0.17 3.2,-1.3 3.7,-3.13z" class="cls-12"/><path id="svg_28" fill="#decdc2" d="m265.36,205.19c-0.63,15.22 -1.48,30.43 -1.76,45.65c-0.1,5.91 -2.88,10.47 -5.38,15.31c-1.5,-0.77 -1.29,-2.2 -1.42,-3.54c-0.15,-1.55 0.57,-3.23 -0.68,-4.61a22.34,22.34 0 0 0 -0.12,-3c-1.3,-7.72 -2.73,-8.68 -10.76,-9.09a36.42,36.42 0 0 0 -17.9,3.42c-6.37,3 -7.78,6.66 -5.1,12.86a65.7,65.7 0 0 1 3.92,14.45a11.42,11.42 0 0 0 -6.39,-1.56c-1.62,0.09 -2.94,-0.25 -3.16,-2.26a73.89,73.89 0 0 1 0.65,-23.42a61.53,61.53 0 0 1 16.31,-30.7a73.42,73.42 0 0 1 15.25,-12.14c3.92,-2.36 8.49,-1.94 12.89,-1.86a28.7,28.7 0 0 1 3.65,0.49z" class="cls-11"/><path id="svg_29" fill="#ee946c" d="m226.16,276.68a65.7,65.7 0 0 0 -3.92,-14.45c-2.68,-6.2 -1.27,-9.84 5.1,-12.86a36.42,36.42 0 0 1 17.9,-3.42c8,0.41 9.46,1.37 10.76,9.09a22.34,22.34 0 0 1 0.12,3a18.3,18.3 0 0 1 -9.47,6.38c-2.14,0.68 -5,0.67 -6.28,3.18c-2.56,5.15 -5.83,10.08 -5.87,16.1c0,3.2 -1.36,4.54 -4.5,4.12c-1.81,-3 -2.11,-6.47 -3.13,-9.72l-0.71,-1.42zm19.78,-14.71c0.08,0 0.19,-0.07 0.22,-0.13s0,-0.19 0,-0.28l-0.34,0.18l0.12,0.23zm-0.74,-4.41l0.15,-0.51c-0.09,0 -0.26,0.05 -0.26,0.08a1.48,1.48 0 0 0 0.11,0.43z" class="cls-13"/><path id="svg_30" fill="#aaa652" d="m186.97,353.92c-3.31,-6.05 -5,-12.66 -6.88,-19.24c-0.8,-5.11 -1.57,-10.23 -2.42,-15.34c-0.31,-1.83 -1,-2.82 -3.26,-3.62c-5.58,-2 -8.77,-7 -11.78,-11.84c-1.71,-2.76 -2.47,-6 -6,-7.57c-2,-0.87 -2.15,-3.24 -0.84,-5.19c1.14,-1.71 2.51,-3.19 4.9,-2.24c2.11,0.84 3.68,2.83 2.73,4.61c-2.23,4.21 0.28,6.82 2.42,9.59c2.55,3.32 5,6.8 8.64,9.07c1.67,1 2.79,1 2.69,-1.46c-0.59,-13.45 2.19,-26.29 7.09,-38.74a7.45,7.45 0 0 0 -0.18,-5.45c-0.73,-2 0.2,-3.27 1.88,-4.27s2.78,-0.27 4,0.75c1.75,1.45 1.35,3.23 0.37,4.66c-7.61,11.1 -8.07,24 -9.51,36.71c-0.1,0.88 -0.46,2.16 0.76,2.61s1.81,-0.55 2.49,-1.25c6,-6.16 10.65,-13.3 15.49,-20.32a5,5 0 0 0 0.63,-3.23c-0.13,-1.92 1.12,-2.62 2.65,-3a2.38,2.38 0 0 1 3,1.64c0.63,1.46 0,2.47 -1.33,3.4c-3,2.13 -4.33,5.67 -6.38,8.57c-4.56,6.47 -8.64,13.28 -15.28,18a4.4,4.4 0 0 0 -2,3.76a62.3,62.3 0 0 0 3.2,20.36c0.78,5.65 3.22,10.77 5.21,16c-0.42,1.27 -0.51,2.77 -2.29,3.03z" class="cls-14"/><path id="svg_31" fill="#ee946c" d="m323,295.33c2.57,-5.31 2.31,-11.11 2.87,-16.76c0.09,-0.9 -0.78,-1.13 -1.45,-1.41c-0.24,-1.93 -0.42,-3.87 -0.73,-5.78c-0.41,-2.56 0.42,-3.87 3.2,-3.91a60.16,60.16 0 0 1 11.91,1c2.71,3.79 2.78,8.49 4.36,12.67a5.11,5.11 0 0 1 -1.23,6c-2,1.93 -3.64,4.28 -6.06,5.75a4.91,4.91 0 0 0 -2.44,3.84c-5.1,5.27 -4.09,11.06 -1.45,17a2,2 0 0 0 0.05,2.44c0,1.5 0,3 0,4.5a5,5 0 0 0 -0.67,0c-2.63,-2.36 -4.36,0 -6.29,1.22c0.76,-2.21 0.69,-4.23 -1.32,-5.81c3.08,-2.65 3.87,-6.49 5,-10.08c0.8,-2.64 -1.21,-4.12 -3.85,-3.31c-1.19,0.36 -1.94,1.62 -3.31,1.51c-0.7,-3.2 0.92,-5.94 1.41,-8.87z" class="cls-13"/><path id="svg_32" fill="#ce6361" d="m448.07,281.01l2.21,1.9l2,3.45c2.34,4.95 2.82,9.47 -2.22,13.33c-1,0.81 -3.07,2.58 -1.56,4.35c1.91,2.23 2.18,4.89 2.71,7.46a7.67,7.67 0 0 0 3.49,5.28a1.32,1.32 0 0 0 1.45,1.49l0,0l0,1.73c-3.68,0.22 -6.59,-1.84 -9.71,-3.27c-1.35,-2.57 -3.15,-4.9 -3.31,-8c-0.07,-1.35 -0.72,-2.68 -2.61,-2.2a1.36,1.36 0 0 0 -0.62,-0.19c-0.39,-0.47 -0.72,-0.6 -0.91,0.14c-0.58,0.73 -1.34,0.42 -2.06,0.36l-0.83,-0.4c-2.58,-2 -6.22,-2.42 -8.19,-5.36c-1.1,-2.45 -2.65,-4.71 -3.13,-7.42l0.05,0c0.37,-0.05 0.62,-0.18 0.46,-0.62a0.71,0.71 0 0 1 0.32,-0.38l5.13,0.26c1.75,2.21 3.43,4.46 5.27,6.58a11.8,11.8 0 0 0 2.85,2.25a1.49,1.49 0 0 0 2,-0.26c0.39,-0.6 -0.18,-1.12 -0.67,-1.51c-1.75,-1.39 -2.21,-3.38 -2.82,-5.4c-1.15,-3.81 -0.41,-7.51 0.14,-11.25l0,0l0.84,-0.78c2.87,-3.24 6.2,-2.99 9.72,-1.54z" class="cls-6"/><path id="svg_33" fill="#ce6361" d="m484.45,328.71c-0.15,2.1 1.15,3.56 2.27,5.1l-3.25,0.18c-3.87,-1.58 -8.08,-2.56 -11,-5.87c0,-0.5 -0.16,-0.79 -0.59,-0.21a0.88,0.88 0 0 1 -0.53,0.06c-0.12,-0.54 -0.25,-1.08 -0.37,-1.62c-0.71,-2.7 -4.09,-4 -3.79,-7.28c0,-0.14 -0.74,-0.54 -0.84,-0.46c-3.49,2.86 -6.76,-0.29 -10.12,-0.34l0,0l-0.06,-1.49c-2.62,-5.26 -1.85,-10.35 1,-15.19c2.35,-4 5.37,-5.2 9.22,-4.18c2.78,0 3.28,2.81 5,4.1l0.3,0.86a0.36,0.36 0 0 0 0.24,0.39c0.3,1.89 -0.87,4.37 2.1,5.17c1.82,3.53 4.68,6.61 4.51,11c-0.21,4.52 2.32,7.48 5.91,9.78z" class="cls-6"/><path id="svg_34" fill="#decdc2" d="m338.8,268.44a60.16,60.16 0 0 0 -11.91,-1c-2.78,0 -3.61,1.35 -3.2,3.91c0.31,1.91 0.49,3.85 0.73,5.78l-5.78,0c3.54,-15.53 2.11,-30.8 -2,-45.94c1.82,0.54 3.14,1.82 4.61,2.93a62.9,62.9 0 0 1 11.05,11.13a29.82,29.82 0 0 1 5.76,13.18c0.64,3.34 2.5,6.53 0.74,10.01z" class="cls-11"/><path id="svg_35" fill="#decdc2" d="m226.87,278.06c1,3.25 1.32,6.72 3.13,9.72c1.34,4.94 2.39,10 4.1,14.79c1.6,4.51 3.25,8.94 3.44,13.77c-0.52,1.09 -1.05,2.19 -1.55,3.29c-1.67,3.69 -2.17,9.29 -5.27,10.55c-2.78,1.13 -7.28,-2 -11,-3.26a1.21,1.21 0 0 1 -0.3,-0.22c0.56,-2.26 0.38,-5.3 1.8,-6.64c3.36,-3.16 4,-6.54 3.48,-10.82c-0.5,-3.93 1,-8 -0.91,-11.89l0.36,-1.53l0.22,-0.12l-0.2,-0.36l-0.26,-3.78c0.78,-3.59 1.59,-7.18 2.32,-10.78c0.17,-0.92 -0.18,-1.96 0.64,-2.72z" class="cls-11"/><path id="svg_36" fill="#f4b28a" d="m307.55,226.56c-2.87,3.63 -5.54,7.4 -9.56,10c-3,1.94 -9.76,0.72 -12,-2.1c-5.85,-7.33 -7.43,-16 -8.32,-24.95c2.67,-1 4,-4.15 7.13,-4.41c0.78,0.37 0.83,1.09 1,1.82c2.23,8.78 9.56,18.31 21.57,18.3l0.18,1.34z" class="cls-12"/><path id="svg_37" fill="#aaa652" d="m380.77,334.12c4,-1.61 8,-3.17 11.95,-4.85a67.48,67.48 0 0 0 18.21,-11.94c1.54,-1.36 1.73,-2.42 0.61,-4.08c-6.34,-9.33 -7.57,-19.58 -5.4,-30.45a9.78,9.78 0 0 0 -0.73,-6.86c-1.31,-2.39 -0.42,-4.21 2,-5.47a3.11,3.11 0 0 1 4.43,1.43c0.92,1.8 1.29,4.13 -1.32,5.38c-3.08,1.48 -2.17,4.63 -2.44,6.93c-1.14,9.76 -0.06,19.2 6.36,28.25a115.42,115.42 0 0 1 1.46,-15.77c0.67,-4 1.13,-8.06 1.59,-12.1c0.33,-3 1.63,-6 -0.52,-8.95a2.2,2.2 0 0 1 1.06,-3.17a3.58,3.58 0 0 1 3.87,0.3a2.39,2.39 0 0 1 0.53,3.36c-4.57,5.32 -3,12 -4,18a83.86,83.86 0 0 0 -1.65,16.74c3.58,-3.41 5.67,-7.14 8.07,-10.61l1.62,1c-1.47,3.93 -4.87,6.69 -6.73,10.71c2.47,0.43 4.27,-0.84 6.21,-1.38c2.92,-0.82 5.44,-2.94 8.69,-2.76c-3.83,2.78 -8.21,4.39 -12.67,5.81c-0.77,0.25 -1.95,0 -2.1,1.13c-0.19,1.3 1.1,1.53 1.91,1.91c6,2.8 12.39,4 18.78,5.35c0,0.47 0,0.94 0,1.41c-6.39,-1.29 -13.61,-1 -18.94,-4.36c-5.61,-3.53 -8.22,-1 -11.95,2a72.86,72.86 0 0 1 -28.13,14.34l-0.77,-1.3z" class="cls-14"/><path id="svg_38" fill="#ce6361" d="m331.98,313.66c-2.64,-5.93 -3.65,-11.72 1.45,-17c2.31,-0.26 1.79,2.82 3.65,3.1a15.5,15.5 0 0 1 -1,6.52c-1,3.24 -0.64,5.24 1.18,7.55c0.46,-5.6 2,-8.28 6.1,-11.86c1.73,-1.5 4.35,-1.19 5.73,-3.18c2.18,0.3 3.15,2.3 4.76,3.39c0.2,1.65 0.41,3.31 0.62,5c0,1.93 -1.26,3.68 -0.9,5.67a2.88,2.88 0 0 0 -2.42,3.17a5.49,5.49 0 0 0 -2.08,0.55c-3.3,2.61 -6.73,3.15 -10.45,1a3.64,3.64 0 0 0 -2.93,-1.49a2.26,2.26 0 0 0 -0.63,-0.17c-0.46,-1.53 -1.8,-1.84 -3.08,-2.25z" class="cls-6"/><path id="svg_39" fill="#ee946c" d="m307.37,225.21c-12,0 -19.34,-9.52 -21.57,-18.3c-0.19,-0.73 -0.24,-1.45 -1,-1.82c0.92,-2.29 1.69,-4.69 3.92,-6.14c3.75,7.8 9.29,13.64 17.8,16.26a7.15,7.15 0 0 1 1.78,1.24c-0.1,1.95 -0.21,3.89 -0.31,5.83l-0.51,0.86c-0.04,0.69 -0.07,1.42 -0.11,2.07z" class="cls-13"/><path id="svg_40" fill="#aaa652" d="m224.13,295.82l-0.36,1.53c-1.37,0.55 -2.73,1 -3.52,2.49c-4.76,8.76 -10.1,17.21 -14.23,26.31c-0.68,1.51 -2.19,3.35 -1,4.78s3.45,0.61 5.25,0.46a3.25,3.25 0 0 0 1,-0.47l1,1.11c-1.31,1.5 -3.19,1.45 -4.76,1.12c-4.12,-0.86 -5.7,1.32 -6.53,4.77c-0.2,0.82 -0.5,1.62 -0.76,2.43a11.53,11.53 0 0 1 -6.47,5.41q1,-3.66 2,-7.32c1.83,-1.69 2,-4.19 2.9,-6.3c5.06,-11.44 11.77,-22 18.12,-32.67a9.57,9.57 0 0 0 1.5,-3.72c0.42,-3.23 2.22,-4.86 5.63,-4.19c0.09,1.26 0.17,2.52 0.26,3.78a0.54,0.54 0 0 0 -0.03,0.48z" class="cls-14"/><path id="svg_41" fill="#de8583" d="m466.36,297.41c-3.85,-1 -6.87,0.2 -9.22,4.18c-2.86,4.84 -3.63,9.93 -1,15.19l-1.44,0a7.67,7.67 0 0 1 -3.49,-5.28c-0.53,-2.57 -0.8,-5.23 -2.71,-7.46c-1.51,-1.77 0.51,-3.54 1.56,-4.35c5,-3.86 4.56,-8.38 2.22,-13.33a5.81,5.81 0 0 1 0.58,-0.09l1.08,0.06c0.3,0.44 0.52,0.34 0.71,-0.09l0,0c2.1,0.21 3.69,0.65 2.79,3.47s1.05,1 1.88,1a1,1 0 0 1 0.52,0.49c-0.84,2 -5,1.54 -3.83,5.33c2.67,-0.45 5,-4 8.1,-1.38c0.84,0.69 2.31,0.72 2.25,2.26z" class="cls-8"/><path id="svg_42" fill="#aaa652" d="m366.86,328.06c4,-8 8.64,-15.58 13.28,-23.19a20.63,20.63 0 0 0 2.86,-6.77c0.31,-1.53 0.91,-2.85 2.82,-2.9c1.3,0 2.6,0 3.17,1.39a4,4 0 0 1 -1,4.46c-8,8.09 -11.94,18.56 -17,28.36a1.32,1.32 0 0 0 -1.08,1.44l-2.91,-0.05l-0.14,-2.74z" class="cls-14"/><path id="svg_43" fill="#f4b28a" d="m337.08,299.77c-1.86,-0.28 -1.34,-3.36 -3.65,-3.1a4.91,4.91 0 0 1 2.44,-3.84c2.42,-1.47 4.05,-3.82 6.06,-5.75a5.11,5.11 0 0 0 1.23,-6c1.89,0.26 1.84,1.89 2.25,3.19c-0.15,2.56 -0.37,5.14 2.06,6.94c0.91,2.22 1.79,4.45 1.56,6.93c-1.89,-0.43 -3.78,-0.89 -5.68,-1.26c-2.75,-0.51 -5.11,-0.09 -6.27,2.89z" class="cls-12"/><path id="svg_45" fill="#aaa652" d="m347.47,291.24c-2.43,-1.8 -2.21,-4.38 -2.06,-6.94c1.86,-4.76 4.76,-9.24 3,-14.84c-0.78,-2.45 1.16,-3.79 3.34,-3.82s3.77,1.17 3.31,3.78a4.87,4.87 0 0 1 -0.61,2.1c-4.65,5.77 -5.13,12.98 -6.98,19.72z" class="cls-14"/><path id="svg_46" fill="#aaa652" d="m354.46,307.16c-0.21,-1.66 -0.42,-3.32 -0.62,-5c4.68,-4.83 9.39,-9.66 10.79,-16.6c0.31,-1.51 1,-2.59 2.48,-2.77a3,3 0 0 1 3.07,1.64c0.71,1.42 -0.08,2.34 -1.19,3.43c-4.26,4.13 -6.73,9.62 -10.4,14.21c-1.07,1.34 -2,2.81 -3,4.22l-1.13,0.87z" class="cls-14"/><path id="svg_47" fill="#de8583" d="m337.08,299.77c1.16,-3 3.52,-3.4 6.27,-2.86c1.9,0.37 3.79,0.83 5.68,1.26a0.91,0.91 0 0 1 0.05,0.63c-1.38,2 -4,1.68 -5.73,3.18c-4.14,3.58 -5.64,6.26 -6.1,11.86c-1.82,-2.31 -2.22,-4.31 -1.18,-7.55a15.5,15.5 0 0 0 1.01,-6.52z" class="cls-8"/><path id="svg_48" fill="#d2ad79" d="m354.46,307.16l1.15,-0.84c0.27,2.48 -1.45,5.48 2.26,7.05c1.17,0.5 0.46,2.14 0.2,3.37c-1,4.73 3.87,10.9 8.79,11.32l0.06,2.75l-1.55,0.11c-0.83,-1.07 -2.14,-1.08 -3.26,-1.48c-3,-1.08 -5.28,-2.63 -4.88,-6.31a2.09,2.09 0 0 0 -0.75,-2c0,-0.17 0,-0.33 0,-0.49a2.31,2.31 0 0 0 -1.54,-2.48c0,-1.51 3.61,-2.9 0.14,-4.52l-1.51,-0.84c-0.37,-1.96 0.87,-3.71 0.89,-5.64z" class="cls-16"/><path id="svg_49" fill="#d2ad79" d="m448.07,281.01c-3.52,-1.44 -6.85,-1.7 -9.66,1.48l-0.84,0.78l0,0a4.8,4.8 0 0 0 -5,4c-0.46,1.93 -1.36,3.67 -1.76,5.58l-5.13,-0.26c3.47,-1.45 3.06,-5.17 4.55,-7.79c1.13,0.12 1.4,-0.88 2,-1.51c3.66,-2.47 7.33,-4.94 12.09,-4.45c1.53,0.18 3.17,0.21 3.75,2.17z" class="cls-16"/><path id="svg_50" fill="#aaa652" d="m432.15,283.3c-0.56,0.63 -0.83,1.63 -2,1.51c0.36,-2.94 0.67,-5.88 1.09,-8.81c0.38,-2.68 1.1,-5.3 -1.27,-7.63c-1.09,-1.08 -0.63,-2.58 0.53,-3.63a3.17,3.17 0 0 1 4.2,-0.18c1.17,0.72 2,2.19 1.16,3.16c-3.93,4.64 -2.63,10.37 -3.71,15.58z" class="cls-14"/><path id="svg_51" fill="#7c8b9e" d="m380.77,334.12c0.25,0.43 0.51,0.86 0.77,1.29a38,38 0 0 0 4,3.2c1.87,1.14 1.52,2.24 0.34,3.54c-1.12,1.79 -2.5,3.46 -2.65,5.7c-0.9,0.29 -1.59,-0.31 -2.36,-0.58c0.23,-4.74 1.25,-9.67 -3.26,-13.25l1.93,0l1.23,0.1z" class="cls-17"/><path id="svg_52" fill="#ee946c" d="m350.51,194.74a17.71,17.71 0 0 0 -0.64,-12.11l5.92,1.69c-1.38,3.67 -2.46,7.48 -5.28,10.42z" class="cls-13"/><path id="svg_53" fill="#d97f78" d="m464.13,295.17c-3.13,-2.65 -5.43,0.93 -8.1,1.38c-1.15,-3.79 3,-3.29 3.83,-5.33c4.44,-0.84 4.63,-0.66 4.27,3.95z" class="cls-7"/><path id="svg_54" fill="#d97f78" d="m459.34,290.73c-0.83,0 -2.75,1.71 -1.88,-1s-0.69,-3.26 -2.79,-3.47c0.71,-0.63 1.34,-1.63 2.16,-1.83c1.79,-0.45 4,-0.89 3.11,2.4a38.79,38.79 0 0 0 -0.6,3.9z" class="cls-7"/><path id="svg_55" fill="#d2ad79" d="m379.55,334.02l-1.94,0l-1.89,-0.17c-1.23,-2.44 -4.08,-1.7 -5.89,-3a1.32,1.32 0 0 1 1.08,-1.44a15.23,15.23 0 0 1 8.64,4.61z" class="cls-16"/><path id="svg_56" fill="#d2ad79" d="m426.45,301.28l-1.62,-1c0.29,-1.51 -0.49,-2.79 -0.9,-4.14c-0.34,-1.14 -0.67,-2.11 0.89,-2.51c0.47,2.71 2,5 3.12,7.42l-1.49,0.23z" class="cls-16"/><path id="svg_57" fill="#d97f78" d="m452.9,286.27a5.81,5.81 0 0 0 -0.58,0.09l-2,-3.45c2.45,-0.13 1.77,2.19 2.58,3.36z" class="cls-7"/><path id="svg_58" fill="#ee946c" d="m345.35,200.81a2.44,2.44 0 0 1 1.52,-2.39c0.02,1.14 -0.11,2.14 -1.52,2.39z" class="cls-13"/><path id="svg_59" fill="#ee946c" d="m348.28,197.02a1.47,1.47 0 0 1 1.47,-1.53a1.38,1.38 0 0 1 -1.47,1.53z" class="cls-13"/><path id="svg_60" fill="#fffffe" d="m471.7,302.37l-0.3,-0.86l0.3,0.86z" class="cls-15"/><path id="svg_61" fill="#d2ad79" d="m425.32,292.98c0.16,0.44 -0.09,0.57 -0.46,0.62l0.46,-0.62z" class="cls-16"/><path id="svg_62" fill="#f4b28a" d="m307.47,223.14l0.51,-0.86l-0.51,0.86z" class="cls-12"/><path id="svg_63" fill="#d97f78" d="m454.7,286.24c-0.19,0.43 -0.41,0.53 -0.71,0.09a1,1 0 0 1 0.71,-0.09z" class="cls-7"/><path id="svg_64" fill="#de8583" d="m305.26,476.64a133.85,133.85 0 0 1 -37.37,6.27q-31.51,0.84 -63,1.54c-7.49,0.18 -15,1.51 -22.49,1.08c-6.45,-0.37 -13.08,0.5 -19.35,-2.21c-4.75,-2 -7.47,-5.41 -7.61,-10.62c0.12,-1.59 0.58,-3.21 -0.55,-4.64c0.5,-0.09 1,-0.19 1.07,-0.81c2.57,-0.29 3.58,-1.66 3.41,-4.28a12.41,12.41 0 0 1 0.75,-4.35c1.44,-4.69 3.39,-9.2 4,-14.17c0.22,-1.8 1.09,-4.16 3.29,-4.62c6.75,-1.41 13.39,4.24 13.48,11.22c0.06,4.65 1.34,5.47 5.66,3.9c4.66,-1.7 8.43,-5.12 13.2,-6.63c3.32,-1.05 7.83,0.53 8.43,3.88c0.69,3.93 2.82,7.34 3.33,11.32c0.45,3.55 3.85,5 7.14,3.75a5.47,5.47 0 0 0 2.59,-1.89a61.27,61.27 0 0 1 5.43,-6.07c1,-1 2.15,-2.22 3.87,-1.79c2,0.5 1.83,2.46 2.31,3.88a12.54,12.54 0 0 1 0.18,3c0.07,0.77 0.36,1.51 1.23,1.61s0.78,-0.73 1,-1.29c0.86,-2.55 2.34,-4.79 3.25,-7.39c2.81,-8.07 7.12,-9.87 15.46,-7.46a44.54,44.54 0 0 1 5.68,2.52c1.41,0.62 2.93,1.94 4.45,0.83s0.73,-2.86 0.38,-4.44c-0.66,-3.07 -0.29,-5.64 2.64,-7.8c3.86,-2.84 8,-5.41 11.16,-9.12c0.56,-0.66 2,-1.24 1,-2.34c-0.68,-0.73 -1.9,-0.47 -2.8,0c-0.64,0.35 -1.12,1 -1.76,1.36c-2.94,1.66 -5.74,0.44 -6.71,-2.9l37.83,0.37c1.42,1.19 4.27,0.88 4,3.82c0.09,5.93 -1.31,11.62 -2.36,17.42a118.14,118.14 0 0 0 -2.22,27.05z" class="cls-8"/><path id="svg_65" fill="#513d32" d="m436.17,455.16a160,160 0 0 0 4,29.56c0.63,2.64 -0.06,3.25 -2.57,3.24c-16.34,-0.07 -32.68,-0.11 -49,0c-3.27,0 -3.31,-1.51 -2.89,-3.9a162.63,162.63 0 0 0 2.85,-31.68c1,-10.27 0.06,-20.48 -0.92,-30.69c-0.61,-4.78 -1,-9.6 -1.91,-14.33c-0.52,-2.87 -0.05,-3.83 3.12,-3.79c11.27,0.15 22.54,0 33.82,-0.05l4.61,0.1a12.77,12.77 0 0 0 5,-0.17l7.65,0.07c1.22,0.92 0.35,2 0.2,3c-0.53,3.56 -2.15,6.95 -1.75,10.67c-2.29,10.07 -2.54,20.29 -2.28,30.55c0.04,2.49 0.05,4.95 0.07,7.42z" class="cls-10"/><path id="svg_66" fill="#513d32" d="m126.35,416.44l3.07,1.49a78.85,78.85 0 0 1 11.53,7.63c-0.77,1.51 -2.33,1.13 -3.57,1.45c-6.84,1.77 -11.7,5.64 -13.44,12.74c-1,4.1 0.19,5.32 4.13,4.31c4.27,-1.09 5.95,0.19 5.95,4.66a34.64,34.64 0 0 1 -0.42,4c-1.54,2.63 -3.48,2 -5.52,0.69c-1.26,-0.66 -1.71,-3.68 -3.51,-2.07a3.76,3.76 0 0 1 -2.74,0.93c-1.94,0.16 -3.92,0.06 -5.83,0.36c-2.28,0.35 -2.4,1.39 -0.5,2.67l0,2.12l-0.06,0.07c-0.71,0.08 -1.84,0.09 -1.52,1s1.5,0.29 2.31,0.32a37.61,37.61 0 0 0 12.48,0.09c2.14,5.46 4.31,10.92 2.39,17a3.23,3.23 0 0 1 -1.07,1.84c-2.33,-0.18 -4.69,-0.23 -7,-0.57c-9.38,-1.35 -13.34,-5.83 -13.53,-15.37c-0.23,-11.37 2.08,-22.29 6,-32.94c1.6,-4.37 4.06,-8.43 4.86,-13.1a2.69,2.69 0 0 1 2.34,-0.72l3.65,1.4z" class="cls-10"/><path id="svg_67" fill="#b7b86e" d="m305.26,476.64a118.14,118.14 0 0 1 2.17,-27.08c1,-5.8 2.45,-11.49 2.35,-17.42c1.52,-0.24 2.48,0.85 3.62,1.52c2.48,1.47 4.81,3.67 7.48,4.24a16.07,16.07 0 0 0 13.23,-2.77c1,1.69 0.82,3.58 0.77,5.41a62.61,62.61 0 0 0 1.52,16.88l-0.06,3a30.64,30.64 0 0 1 0,4.39c-0.28,2 -2.42,3.06 -3.36,1.82c-2.08,-2.72 -3.66,-0.22 -5.43,-0.19c-2,-1.58 -2.35,-3.68 -2.38,-6.15c0,-3.55 -0.63,-7.1 -1,-10.64l-1.05,0c-0.91,6.6 -2,13.18 -1.6,19.93c-1.08,2.38 -3.27,3.83 -5.14,5.4c-0.9,0.76 -2.33,1 -3.15,2.21a1.77,1.77 0 0 1 -2.61,0.5c-1.63,-1.13 -3.52,-0.89 -5.36,-1.05z" class="cls-5"/><path id="svg_68" fill="#ce6361" d="m336.34,460.37l0.06,-3c5.81,-4.57 10.5,-19.26 8.42,-26.33c-0.45,-1.53 -1.19,-3 -1,-4.68c8.72,-3.67 17.3,-7.54 22.71,-15.93c3.35,5 4,10.61 3.11,16.45a48.81,48.81 0 0 1 -4.31,11.37c-1.82,3.18 -3.91,6.21 -5.89,9.3c-1.53,2 -4.42,2.61 -5.31,5.25c-4.41,1.16 -7.67,4.52 -11.86,6.22a14.87,14.87 0 0 1 -5.93,1.35z" class="cls-6"/><path id="svg_69" fill="#f4b28a" d="m133.6,452.71a34.64,34.64 0 0 0 0.42,-4c0,-4.47 -1.68,-5.75 -5.95,-4.66c-3.94,1 -5.14,-0.21 -4.13,-4.31c1.74,-7.1 6.6,-11 13.44,-12.74c1.24,-0.32 2.8,0.06 3.57,-1.45c0.72,0.83 1.43,1.67 2.71,1.42c1.37,1.56 3.26,1.42 5.07,1.56l9.82,3.09a8.17,8.17 0 0 0 -3.12,5.16a53.59,53.59 0 0 0 -0.61,8.83c-0.29,7.28 -2.46,12.31 -11.34,11.84a4.7,4.7 0 0 0 -2.79,0.84l-2.21,-0.46c-0.44,-1.06 -1.45,-1.27 -2.39,-1.58a7.16,7.16 0 0 0 -2.49,-3.54z" class="cls-12"/><path id="svg_70" fill="#fffffe" d="m348.39,499.73l-0.92,0.14l-0.66,0.36c-5.57,-0.57 -11.15,0.42 -16.68,0.17c-4.16,-0.18 -5.84,-4 -7.65,-7.24l2.49,0c0.68,4 3.42,4.56 7.13,4.3c-1.79,-2.28 -3.92,-3.9 -4.86,-6.37c0.09,-0.86 0.43,-1.8 -0.74,-2.24c-0.17,-0.57 -0.33,-1.14 -0.5,-1.71c-0.11,-1.26 0.15,-2.59 -0.69,-3.71c0.62,-1 -0.17,-1.93 0,-2.89c0.7,-0.28 1.75,0.28 2.09,-0.86a1.31,1.31 0 0 0 0.06,-0.68l0,0.05c3.66,-4.45 8.09,-7.29 14.13,-6.74l2.34,-0.18a3.79,3.79 0 0 1 0.66,0.18c0.23,1.45 0.83,2.48 2.54,2.24c0.54,0.51 0.95,1.3 1.91,0.79l-0.06,0c-0.29,0.8 0.08,0.95 0.77,0.78l-0.05,0c0.64,3.06 3.23,5.42 3.15,8.74c1.07,0.9 1.15,2.64 2.65,3.19l-0.52,0.73c-1.33,0 -1.61,1.24 -2.37,1.91c-1.36,1.2 -0.65,3.77 -3,4.15l-5.38,3.83c2.85,0.77 4.19,-0.63 5.52,-2c0.28,1.28 -0.49,2.19 -1.36,3.06zm-19.77,-1.24c2.75,1.66 4.62,2 7.45,0l-7.45,0z" class="cls-15"/><path id="svg_71" fill="#ce6361" d="m120.3,415.72c-0.8,4.67 -3.26,8.73 -4.86,13.1c-3.9,10.65 -6.21,21.57 -6,32.94c0.19,9.54 4.15,14 13.53,15.37c2.32,0.34 4.68,0.39 7,0.57c0.8,3.82 -1.94,4 -4.45,4.17c-6.55,0.36 -13,-0.57 -19.57,-1a96.37,96.37 0 0 1 -4.16,-11.94c-0.91,-2.9 0,-6.17 -2,-8.78c-0.79,-4.63 1.2,-8.79 3.11,-12.58a71.36,71.36 0 0 0 6.91,-21.41a17,17 0 0 1 4.49,-9.5c1.97,-0.57 3.88,-1.44 6,-0.94z" class="cls-6"/><path id="svg_72" fill="#decdc2" d="m473.18,490.68c3,1.06 4.08,3 3.8,5.84c-0.32,3.16 -2.71,3.81 -5.1,4.56a17.8,17.8 0 0 1 -14.37,-1.42a10.67,10.67 0 0 0 -7.78,-1a65,65 0 0 1 -22.89,0.43a5.69,5.69 0 0 1 -3.58,-1.37c4.34,-3.42 9.55,-4.58 14.6,-5.9a42.07,42.07 0 0 1 11.35,-1.69c2,0 3.43,-1 4.87,-2.27c4.27,-3.84 9.15,-6.22 15.1,-6c2.34,0.08 4.42,0.25 5.58,2.72s0.86,4.29 -1.58,6.1zm-8.87,8.52a16.45,16.45 0 0 0 8.18,-1.6c0.65,-0.34 1.42,-0.65 1.36,-1.55s-0.77,-1.18 -1.47,-1.46c-2.66,-1.08 -5.35,-0.62 -8,-0.09c-2,0.4 -5.14,0.69 -5,2.79c0.08,2.72 3.32,1.42 4.93,1.91zm-2.14,-9c2.72,0.34 5.08,-0.89 7.58,-1.55a2.4,2.4 0 0 0 1.92,-2.34c0,-1.38 -1.48,-1.39 -2.58,-1.49a18,18 0 0 0 -7.68,0.91c-1.67,0.6 -4.42,0.84 -4,3s3.02,1.29 4.76,1.49l0,-0.02zm-34.94,6.77l0.07,0.79l22.74,-2.38c1.09,-0.11 2.12,-0.47 1.86,-1.74s-1.43,-0.71 -2.18,-0.58c-7.5,1.29 -15.02,2.62 -22.49,3.93l0,-0.02zm39.92,-5c-3.38,-0.29 -6.76,-0.49 -9.85,1.3c3.48,1.01 6.62,-0.5 9.85,-1.26l0,-0.04z" class="cls-11"/><path id="svg_73" fill="#aaa652" d="m359.44,447.56c0.3,1.19 0.59,2.38 0.89,3.56q3.4,16 6.84,32c0.22,1 1.09,2.31 -0.31,2.85c-1,0.39 -1.61,-0.88 -2.13,-1.69a11.81,11.81 0 0 1 -1.66,-4c-1.83,-8.63 -5.49,-16.76 -7.11,-25.46c-0.2,-1 -0.61,-1.89 -1.83,-2c0.89,-2.62 3.78,-3.26 5.31,-5.26z" class="cls-14"/><path id="svg_74" fill="#ce6361" d="m138.48,457.8l2.21,0.46l8.91,5.51c1,2.35 3.44,2.95 5.28,4.29c1.13,1.43 0.67,3 0.55,4.64c-3.74,-0.75 -7.6,0.2 -11.34,-0.88c-1.25,-0.37 -2.38,-0.67 -2.83,-2c-1.33,-3.9 -3.2,-7.7 -2.78,-12.02z" class="cls-6"/><path id="svg_75" fill="#decdc2" d="m325.31,483.41c0.84,1.12 0.58,2.45 0.69,3.71c-1.53,1.8 -0.62,4 -1,6l-2.49,0c-1.8,-6.6 -2.27,-13.67 1.55,-19.18s10.94,-6.88 17.74,-6.48c5.71,0.34 10.65,2.54 13.74,7.61c2.56,4.2 2.81,8.59 0,12.88c-1.5,-0.55 -1.58,-2.29 -2.65,-3.19c2,-3.37 -0.32,-6 -1.56,-8.78c4.32,1.63 3.07,5.82 4.08,9.19c1.23,-7.83 -1.85,-13.28 -8.84,-15.35a22.82,22.82 0 0 0 -18.87,2.5c-2.66,1.58 -4.33,3.7 -4.42,6.79c-0.11,4.15 0,8.29 0,12.68c0.72,-2.95 1.42,-5.66 2.03,-8.38z" class="cls-11"/><path id="svg_76" fill="#decdc2" d="m348.39,499.73c0.87,-0.87 1.64,-1.78 1.38,-3.14c-0.05,-0.61 -0.09,-1.21 -0.14,-1.81c2.32,-0.38 1.61,-3 3,-4.15c0.76,-0.67 1,-1.89 2.37,-1.91c-0.33,3.18 0.54,4.85 4.27,4.19c1.88,-0.34 3.85,0 4.11,3c0.24,2.77 2.37,2.8 4.43,1.79c2.78,-1.35 5.49,-2.87 8.58,-3.44a18.82,18.82 0 0 1 13.2,2.38c-1.63,1.12 -2.51,0.29 -3.35,0c-5.63,-2 -10.94,-1.27 -16.07,1.57s-6,2.51 -8.36,-2.63c-0.84,-1.79 -5.73,-1.51 -7.38,0.45s-3.19,3.82 -6.04,3.7z" class="cls-11"/><path id="svg_77" fill="#d2ad79" d="m321.56,469.56c-0.45,-6.75 0.69,-13.33 1.6,-19.93l1.05,0c0.35,3.54 0.94,7.09 1,10.64c0,2.47 0.35,4.57 2.38,6.15c-1.68,1.68 -3.51,3.07 -6.03,3.14z" class="cls-16"/><path id="svg_78" fill="#693112" d="m99.8,460.15c2,2.61 1.11,5.88 2,8.78a96.37,96.37 0 0 0 4.16,11.94c-2.9,-1.31 -2.39,-4.53 -3.73,-6.72c-0.74,-1.21 -0.55,-2.92 -2,-3.82c-0.22,-1.35 -0.45,-2.7 -0.68,-4c0.71,-1.92 0.23,-3.85 0,-5.78a0.53,0.53 0 0 1 0.25,-0.4z" class="cls-9"/><path id="svg_79" fill="#ce6361" d="m128.7,458.89a37.61,37.61 0 0 1 -12.48,-0.09c-0.27,-0.44 -0.53,-0.88 -0.79,-1.32l0.06,-0.07c3.77,-1.24 7.65,-0.9 11.51,-0.74l2.34,0.59a1.34,1.34 0 0 1 -0.64,1.63z" class="cls-6"/><path id="svg_80" fill="#decdc2" d="m129.32,457.26l-2.34,-0.59l-0.48,-1.6l1.58,-1.67c2,1.31 4,1.94 5.52,-0.69a7.16,7.16 0 0 1 2.49,3.51l-6.77,1.04z" class="cls-11"/><path id="svg_81" fill="#decdc2" d="m346.81,500.23l0.66,-0.36l-0.66,0.36z" class="cls-11"/><path id="svg_82" fill="#999540" d="m99.7,460.5c0.2,1.93 0.68,3.86 0,5.78c-3,-0.67 -2.34,-3.44 -3,-5.42a5.33,5.33 0 0 1 3,-0.36z" class="cls-4"/><path id="svg_83" fill="#de8583" d="m474,307.93c2.33,-3.07 3.67,-7 8,-8.26c4.74,-1.37 9.38,-3.21 14.41,-1.41c-0.13,0.34 -0.16,0.83 -0.4,1c-11.22,7 -14.52,15.61 -10.82,28.31c0,0.12 0,0.24 0.06,0.37l-0.78,0.78c-3.59,-2.3 -6.12,-5.26 -5.94,-9.8c0.17,-4.36 -2.71,-7.46 -4.53,-10.99z" class="cls-8"/><path id="svg_84" fill="#de8583" d="m500.07,333.14c-0.45,0.76 -0.93,0.79 -1.44,0.05l1.44,-0.05z" class="cls-8"/><path id="svg_85" fill="#de8583" d="m497.84,298.56l0.89,0.34l-0.89,-0.34z" class="cls-8"/><path id="svg_86" fill="#b7b86e" d="m441.27,393.43c-0.19,3.41 -1.51,6.67 -1.32,10.12l-7.65,-0.07c0.26,-1.3 0.52,-2.61 0.79,-3.92c1.52,-3.2 2.27,-6.46 0.71,-9.89c2.18,-1.88 1.31,-4.62 1.82,-6.94c0.94,-4.16 0.54,-8.42 -0.09,-12.68c-3,5.93 -4.38,12.28 -6,18.56c-0.25,4.48 -2.1,8.71 -2.12,13.23c0,0.6 -0.07,1.21 -0.11,1.81l-4.6,-0.09c0.89,-5.83 2.57,-11.53 3,-17.44c1.39,-4.34 2.79,-8.68 4.16,-13c0.42,-1.3 0.67,-2.61 -0.43,-3.75c4.78,-6.79 8.34,-14.31 9.38,-22.43c1,-7.74 2,-15.56 1.78,-23.44c0,-0.47 0,-0.94 0,-1.41a32.63,32.63 0 0 0 0,-15.53c1.89,-0.48 2.54,0.85 2.61,2.2c0.16,3.11 2,5.44 3.31,8c0.19,1.79 -0.33,3.65 1.08,5.28c0.89,1 0.56,2.35 -0.34,3.39c-2.88,3.35 -0.51,7.45 -1.8,11.1a5.7,5.7 0 0 0 1.83,-1.79c3.26,-4.24 5.16,-9.5 9.63,-12.83a2.33,2.33 0 0 1 2.34,1.54c-0.95,2.55 -2.76,4.58 -4.22,6.81c-6.17,9.43 -12.88,18.65 -12.05,30.82a3.44,3.44 0 0 1 -0.84,2.34c-1.36,1.81 -0.71,3.3 1,4.25c2.17,1.18 2.67,-0.6 3.25,-2.12a11.33,11.33 0 0 0 0.8,-4.64c3,-4.53 4.89,-9.68 7.54,-14.41c3.9,-7 7.53,-14.11 13,-20.08l3.25,0c0.12,0.54 0.25,1.08 0.37,1.62c0,0.23 -0.07,0.47 -0.12,0.7c-4.9,4.78 -7.88,10.89 -11.3,16.67c-2.64,4.44 -4.71,9.22 -7,13.86c-0.58,1.18 -0.81,2.42 0.46,3.32a1.72,1.72 0 0 0 2.56,-0.57c5.23,-6.72 11,-12.94 16.76,-19.2l10.81,-8.75l3.25,-0.19l1.05,1.59c-5.44,5.32 -11.9,9.55 -16.59,15.67c-1.51,0.48 -2.39,1.75 -3.3,2.85c-5.19,6.33 -10.3,12.73 -15.44,19.1a5.55,5.55 0 0 1 -3,-1.35a11.64,11.64 0 0 1 0.73,-1.65c0.7,-1.1 1.45,-2.6 -0.64,-2.28c-1.28,0.2 -1.34,2.38 -1.56,3.82l-0.51,1.38c-0.72,1.87 1.11,2.84 1.48,4.25c0.68,2.56 -3.35,0.33 -3.21,2.74c0,0.24 -0.07,0.5 0,0.73c0.24,1.49 -1,1.88 -1.73,2.77c-1.65,2.09 -5.72,0.93 -5.85,3.58c-0.17,2.01 1.94,4.21 3.07,6.35z" class="cls-5"/><path id="svg_87" fill="#de8583" d="m497.16,340.43a8.53,8.53 0 0 1 -4.44,-2.09c1.29,-0.81 2.49,-2.19 4.21,-1.09c1.37,0.88 0.85,2.07 0.23,3.18z" class="cls-8"/><path id="svg_88" fill="#b7b86e" d="m498.64,341.24a0.78,0.78 0 0 1 -0.41,-0.41a2.27,2.27 0 0 1 0.41,0.41z" class="cls-5"/><path id="svg_89" fill="#ee946c" d="m344.85,178.26c-1.47,0.84 -2.37,0.07 -3.53,-0.88c-4,-3.3 -8.28,-4.36 -13.08,-1.33a7.39,7.39 0 0 1 -7.1,0.24c-2.68,-1.17 -5.26,-1.68 -8.13,-0.45c-2.12,0.9 -3.91,0.36 -4.35,-2.31c-0.57,-3.45 -3,-6.92 0.09,-10.34c4.15,4.44 8.47,8.4 15.15,8.57c6.11,0.15 11.65,-1.64 17.1,-4l3.37,-1.48l0.58,0.54c-0.68,3.81 -2.05,7.61 -0.1,11.44z" class="cls-13"/><path id="svg_90" fill="#ee946c" d="m312.63,165.02c8.81,0.54 15.89,-2.8 23.35,-4.23a25.23,25.23 0 0 1 7.35,-0.35a2.54,2.54 0 0 1 2.53,1.83c0.26,1.19 -0.76,1.68 -1.64,2.16c-6.34,3.49 -12.87,6.25 -20.33,5.82a16.2,16.2 0 0 1 -11.26,-5.23z" class="cls-13"/><path id="svg_94" fill="#decdc2" d="m297.91,172.35c2.21,1.49 4.44,3 6.64,4.48c3.12,2.15 2.67,5.12 1.68,8.09c-1.95,5.88 -3.36,6.73 -10.73,6.78c-1.68,-1.15 -3.71,-1.71 -5.14,-3.32c-3.1,-3.5 -3.05,-7.43 0.27,-11.51c0.4,0.08 0.57,0.28 0.36,0.69c-0.37,0.89 -0.8,1.75 -1.09,2.67a7.12,7.12 0 0 0 8.19,9.09c1.78,0.35 3.17,-0.64 4.4,-1.58c2.15,-1.64 2.19,-4 1.49,-6.39c-0.48,-1.64 -1,-3.18 -3.28,-2.32a4.37,4.37 0 0 0 -3,-3.55l0.21,-3.13z" class="cls-11"/><path id="svg_95" fill="#dee18b" class="cls-3"/><path id="svg_96" fill="#fffffe" d="m297.91,172.35l-0.19,3.13c-1.94,1.67 -4.3,2 -6.73,2.08c0.21,-0.41 0,-0.61 -0.36,-0.69c-2.08,-2.68 -1.54,-5.38 -0.07,-8.09c4.54,-0.78 6.05,-0.04 7.35,3.57z" class="cls-15"/><path id="svg_97" fill="#ee946c" d="m356.62,180.81c0,0.65 0,1.3 -0.05,1.94a37.35,37.35 0 0 1 -4,-0.79c-6.08,-1.92 -8.32,-6.06 -6.72,-12.28a28.73,28.73 0 0 1 1.58,-4.62c-0.31,7.31 -0.11,14.24 9.19,15.75z" class="cls-13"/><path id="svg_99" fill="#d2ad79" d="m293.78,115.66c7.53,-6.18 16.36,-8 25.85,-7.64a48.25,48.25 0 0 0 -25.24,8.36l-0.61,-0.72z" class="cls-16"/><path id="svg_100" fill="#d2ad79" d="m264.18,200.75c0.46,-2.29 -2.08,-3.74 -1.61,-6.1a11.17,11.17 0 0 1 1.45,-4.31c2.33,3.8 0.22,9 5,11.41c-2.26,1.47 -3,-2.06 -4.87,-1l0.03,0z" class="cls-16"/><path id="svg_101" fill="#d2ad79" d="m268.97,202.21c3.1,-0.4 5.71,0.41 8.44,-1.29c-1.79,2.92 -4.41,3.29 -8.44,1.29z" class="cls-16"/><path id="svg_102" fill="#d2ad79" d="m294.39,116.38l-1.75,1.18l-0.57,-0.6l1.71,-1.27l0.61,0.69z" class="cls-16"/><path id="svg_103" fill="#d2ad79" d="m291.35,118.56c-0.41,0.72 -0.9,1.3 -1.86,1l0,0.05l0.72,-1.55l-0.06,0l0.76,0a6.12,6.12 0 0 0 0.44,0.5z" class="cls-16"/><path id="svg_104" fill="#d2ad79" d="m292.64,117.56l-1.29,1a6.12,6.12 0 0 1 -0.39,-0.5l1.11,-1.14l0.57,0.64z" class="cls-16"/><path id="svg_105" fill="#d2ad79" d="m289.49,119.56c0,0.56 -0.24,0.78 -0.77,0.72l0.05,0l0.77,-0.71l-0.05,-0.01z" class="cls-16"/><path id="svg_106" fill="#ee946c" d="m344.37,166.27l0.75,-0.31c-0.06,0.29 -0.12,0.57 -0.17,0.85l-0.58,-0.54z" class="cls-13"/><path id="svg_107" fill="#d2ad79" d="m288.7,120.29l-0.06,0.33l0.11,-0.29l-0.05,-0.04z" class="cls-16"/><path id="svg_108" fill="#d97f78" d="m267.94,427.94c1,3.34 3.77,4.56 6.71,2.9c0.64,-0.36 1.12,-1 1.76,-1.36c0.9,-0.47 2.12,-0.73 2.8,0c1,1.1 -0.41,1.68 -1,2.34c-3.16,3.71 -7.3,6.28 -11.16,9.12c-2.93,2.16 -3.3,4.73 -2.64,7.8c0.35,1.58 1.21,3.29 -0.38,4.44s-3,-0.21 -4.45,-0.83a44.54,44.54 0 0 0 -5.68,-2.52c-8.34,-2.41 -12.65,-0.61 -15.46,7.46c-0.91,2.6 -2.39,4.84 -3.25,7.39c-0.19,0.56 -0.09,1.38 -1,1.29s-1.16,-0.84 -1.23,-1.61a12.54,12.54 0 0 0 -0.18,-3c-0.48,-1.42 -0.28,-3.38 -2.31,-3.88c-1.72,-0.43 -2.86,0.81 -3.87,1.79a61.27,61.27 0 0 0 -5.43,6.07a5.47,5.47 0 0 1 -2.59,1.89c-3.29,1.28 -6.69,-0.2 -7.14,-3.75c-0.51,-4 -2.64,-7.39 -3.33,-11.32c-0.6,-3.35 -5.11,-4.93 -8.43,-3.88c-4.77,1.51 -8.54,4.93 -13.2,6.63c-4.32,1.57 -5.6,0.75 -5.66,-3.9c-0.09,-7 -6.73,-12.63 -13.48,-11.22c-2.2,0.46 -3.07,2.82 -3.29,4.62c-0.61,5 -2.56,9.48 -4,14.17a12.41,12.41 0 0 0 -0.75,4.35c0.17,2.62 -0.84,4 -3.41,4.28l-3.6,-2.29c2.45,0 5,0.27 5.24,-3.37c0.36,-6.48 3.74,-12.09 5.36,-18.21c1.13,-4.27 2,-8.62 5.89,-11.7a11.53,11.53 0 0 1 6.53,-2.68c4.17,-0.41 7.49,2.23 11.41,2.35c2.71,1 5.37,2.14 8.13,3a107.3,107.3 0 0 0 21,4c8.87,0.83 17.72,1.09 26.5,-0.56c2,-0.37 5.17,-0.14 5.23,-3c0,-2.57 -2.9,-3.21 -4.9,-3.86a166.61,166.61 0 0 1 -24.69,-10.48a42.3,42.3 0 0 0 -12.45,-6.93a151.05,151.05 0 0 0 -14.84,-10.69c-0.46,-2.84 -3,-3.15 -5,-4c-0.07,-2.65 -1.25,-5 -2,-7.48c-3.59,-11.84 -3.42,-23.39 2.48,-34.55a14.18,14.18 0 0 0 0.83,-2.8c1.78,-0.26 1.87,-1.76 2.23,-3.05c2.16,-1.13 3.36,-3.14 4.58,-5.11a11.53,11.53 0 0 0 6.47,-5.41c1,0.16 1.55,-0.58 2.29,-1c4.31,-2.42 8.77,-4.41 13.79,-4.79l1.15,-0.08l0.06,0c-0.51,2.34 -2.72,1.81 -4.2,2.29s-2.44,0.87 -2.15,2.7c1.59,10.05 1.85,20.09 -0.88,30c-1.38,5 -3.05,10 -4.46,15a5.33,5.33 0 0 0 3.69,6.65c5.2,1.18 10.07,0.27 15,-1.84c3.16,-1.36 2.74,-4.25 4.11,-6.33c1.77,5.72 5.27,10.13 9.77,14a22,22 0 0 1 8,19.09c-0.43,5.75 1.41,8.06 6.92,9.76c4.7,1.46 9.65,1.61 14.56,2.1z" class="cls-7"/><path id="svg_109" fill="#ee946c" d="m186.78,431.35c-3.92,-0.12 -7.24,-2.76 -11.41,-2.35a11.53,11.53 0 0 0 -6.53,2.68c-3.92,3.08 -4.76,7.43 -5.89,11.7c-1.62,6.12 -5,11.73 -5.36,18.21c-0.2,3.64 -2.79,3.34 -5.24,3.37l-2.75,-1.19l-8.9,-5.51a4.7,4.7 0 0 1 2.79,-0.84c8.88,0.47 11.05,-4.56 11.34,-11.84a53.59,53.59 0 0 1 0.61,-8.83a8.17,8.17 0 0 1 3.12,-5.16c1.6,0 1.56,-1.32 1.83,-2.32c2.46,-8.89 9.17,-12.32 17.5,-13.67l8.17,1.6a14.63,14.63 0 0 0 5.25,1.25a0.58,0.58 0 0 1 0.13,0.62c-1.5,4.12 -4.11,7.81 -4.66,12.28z" class="cls-13"/><path id="svg_110" fill="#513d32" d="m177.88,415.56c-8.33,1.35 -15,4.78 -17.5,13.67c-0.27,1 -0.23,2.33 -1.83,2.32l-9.85,-3.05c1.31,-4.1 2.74,-8.16 3.9,-12.29s4.35,-7.5 4.43,-12c5.13,0.53 9.38,3.18 13.56,5.86c2.59,1.63 4.88,3.67 7.29,5.49z" class="cls-10"/><path id="svg_111" fill="#ce6361" d="m157.06,404.2c-0.08,4.51 -3.27,7.88 -4.43,12s-2.59,8.19 -3.9,12.29c-1.81,-0.14 -3.7,0 -5.07,-1.56c1.55,-4.43 2,-9.12 3,-13.67c1.29,-5.86 4.3,-8.44 10.4,-9.06z" class="cls-6"/><path id="svg_112" fill="#aaa652" d="m191.3,418.45a14.63,14.63 0 0 1 -5.25,-1.25c0.19,-6.16 -1,-12.28 -0.39,-18.45c2,0.89 4.53,1.2 5,4q0.32,7.87 0.64,15.7z" class="cls-14"/><path id="svg_113" fill="#b7b86e" d="m120.3,415.72c-2.12,-0.5 -4,0.37 -6,0.94a15.51,15.51 0 0 1 -1.11,-7.58a3.12,3.12 0 0 1 2,-2.89a3.33,3.33 0 0 1 3.7,0.93c2.16,2.2 3,5 3.78,7.88a2.69,2.69 0 0 0 -2.37,0.72z" class="cls-5"/><path id="svg_114" fill="#f4b28a" d="m237.54,316.34c-0.19,-4.83 -1.84,-9.26 -3.44,-13.77c-1.71,-4.81 -2.76,-9.85 -4.1,-14.79c3.14,0.42 4.48,-0.92 4.5,-4.12c0,-6 3.31,-11 5.87,-16.1c1.25,-2.51 4.14,-2.5 6.28,-3.18a18.3,18.3 0 0 0 9.47,-6.38c1.25,1.38 0.53,3.06 0.68,4.61c0.13,1.34 -0.08,2.77 1.42,3.54c-0.06,0.56 -0.13,1.12 -0.19,1.67c-0.57,0.71 -0.65,1.38 0.18,2a251.8,251.8 0 0 1 4.24,27.8c1.67,15.7 6.93,30.25 12.92,44.65c-2.27,3.34 -5.67,5.51 -8.71,8c-4.65,3.77 -8.6,8.47 -14.09,11.18c-0.54,-1.11 -1,-2.26 -1.61,-3.33a108.19,108.19 0 0 1 -11.16,-30.15c-0.85,-3.91 -0.66,-7.95 -2.26,-11.63z" class="cls-12"/><path id="svg_115" fill="#98a7b7" d="m334.11,435.12a16.07,16.07 0 0 1 -13.23,2.77c-2.67,-0.57 -5,-2.77 -7.48,-4.24c-1.14,-0.67 -2.1,-1.76 -3.62,-1.52c0.26,-2.94 -2.59,-2.63 -4,-3.82c-0.24,-1.74 -1.77,-2.59 -2.72,-3.82c-4.56,-5.86 -7.11,-12.46 -6.81,-19.87c0.13,-3 -1.05,-4.28 -3.49,-5.58a99.09,99.09 0 0 1 -31.68,-26.2c0.23,-2.83 3,-3 4.65,-4.27c5.36,-4 10.19,-8.76 16.35,-11.62a268.39,268.39 0 0 0 19.62,32.19a16.74,16.74 0 0 0 1.21,1.32l0,0l0.15,0.83c1.4,1.87 2.92,3.67 4.15,5.64a3.32,3.32 0 0 0 3.4,1.71c0.67,1.15 0.51,3 2.57,3c0.52,1.49 0.75,3.28 2.67,3.65c2.77,0.54 5.39,1.81 8.29,1.66l1.06,0.83a26.71,26.71 0 0 0 6.38,4.88c0.89,0.44 2,0.43 1.88,1.79c-0.13,1.63 -1.4,1.34 -2.48,1.5c-3.08,0.45 -6.08,-0.18 -9.08,-0.59c-2.41,-0.33 -4.1,0.45 -5.09,2.66a3.9,3.9 0 0 0 1.82,5.38c2.41,1.41 5.29,2.17 7.79,0.9s5.5,-2.12 8,-3.65a7.23,7.23 0 0 1 3,6.91c-1.12,2.47 -2.21,5 -3.31,7.56z" class="cls-18"/><path id="svg_116" fill="#ce6361" d="m301.41,291.56c4.86,-2 8.48,0 11.62,3.6c0.87,1 1.25,2.41 2.55,3.05c0.52,4 1.92,7.85 1.45,11.95c-0.07,1.45 -2.75,2.76 -0.91,4.07c2,1.44 3.39,3.52 5.44,4.86l2.28,3.49a30.29,30.29 0 0 1 0.61,13.62c-3.06,4.07 -7.09,5.08 -11.86,3.71c-3.87,-3 -5.88,-7 -7,-11.64c-1.22,-4.93 0.49,-8.93 3.55,-12.83c-2.16,-0.2 -3.71,1.08 -5.46,0.64l0,0c-0.45,-0.59 -0.87,-1.2 -1.36,-1.74c-6.72,-7.35 -7.04,-15.33 -0.91,-22.78z" class="cls-6"/><path id="svg_117" fill="#7c8b9e" d="m282.07,356.95c-6.16,2.86 -11,7.63 -16.35,11.62c-1.65,1.23 -4.42,1.44 -4.65,4.27c-4,0 -5.73,4.26 -9.57,5.09c0.44,-5.63 -0.93,-11.19 1.07,-16.56c5.49,-2.71 9.44,-7.41 14.09,-11.18c3,-2.45 6.44,-4.62 8.71,-8a4.92,4.92 0 0 1 5,1.64c0.17,0.18 0.34,0.36 0.52,0.53c2.23,2.15 5.55,3.94 6.42,6.54c1.05,3.27 -4.32,3.2 -5.24,6.05z" class="cls-17"/><path id="svg_118" fill="#ce6361" d="m292.46,339.08c-2.94,0.43 -5.42,2.78 -8.7,1.89c-2.55,-0.68 -3.81,-1.66 -1.69,-4.14c2.88,-1.35 6.54,1.38 9.41,-1.85c-5.22,-0.83 -9.53,-2.51 -10.94,-8c1.26,-4.42 4.91,-3.55 8.11,-3.67c3.35,2.83 9.1,4.53 4.67,10.78c2.44,0 3.12,-2.5 5.14,-2.51c2.74,0 3.95,2.12 5.3,4c2.17,3 4.82,5.21 8.82,5c0,2.05 2.37,0.94 2.94,2.24a1.92,1.92 0 0 0 -1.6,1.34a1.06,1.06 0 0 0 -0.66,0l-1.59,0.62l-1.36,0.12a16.13,16.13 0 0 1 -8.77,-1.38c-0.9,-0.18 -1.8,-1.3 -2.7,0c-1.96,-1.69 -2.79,-5.05 -6.38,-4.44z" class="cls-6"/><path id="svg_119" fill="#b7b86e" d="m292.46,339.08c3.59,-0.61 4.42,2.75 6.39,4.47l0.93,4.34l10.8,50.72a3.32,3.32 0 0 1 -3.4,-1.71c-1.23,-2 -2.75,-3.77 -4.15,-5.64c0.38,-0.36 0.76,-0.71 -0.15,-0.83l0,0c-0.26,-6.2 -2.18,-12.08 -3.4,-18.09c-2.22,-11.09 -4.66,-22.17 -7.02,-33.26z" class="cls-5"/><path id="svg_120" fill="#de8583" d="m301.41,291.56c-6.13,7.5 -5.81,15.48 0.89,22.8c0.49,0.54 0.91,1.15 1.36,1.74c-3.19,0.64 -5.49,-0.83 -7.29,-3.23s-3.84,-4.78 -6.93,-5.77c-1.18,-7.32 4.26,-14.32 11.97,-15.54z" class="cls-8"/><path id="svg_121" fill="#ce6361" d="m289.44,307.05c3.09,1 5.07,3.29 6.93,5.77s4.1,3.87 7.29,3.23l0,0c-0.37,3.1 -2.69,4.27 -5.19,5.26c-1.31,-1 -2.94,-1.11 -4.46,-1.53l-5.12,-2.29c-0.39,-2.22 -2.82,-3.08 -3.43,-5.19c-0.47,-1.62 -1.94,-3.23 -0.81,-4.89c1.26,-1.85 3.15,-0.51 4.79,-0.36z" class="cls-6"/><path id="svg_122" fill="#d97f78" d="m294,319.76c1.52,0.42 3.15,0.51 4.46,1.53c1.89,1.79 -2.05,1.56 -1,2.86c1.81,2.33 0.68,5 1,7.45c-2,0 -2.7,2.53 -5.14,2.51c4.43,-6.25 -1.32,-7.95 -4.67,-10.78c0.1,-1.13 0.19,-2.25 0.28,-3.38c1.2,-0.61 2,0 2.83,0.81c0.54,0.53 0.78,1.85 1.75,1.32c0.45,-0.25 0.35,-1.52 0.49,-2.32z" class="cls-7"/><path id="svg_123" fill="#de8583" d="m317.03,310.11c0.47,-4.1 -0.93,-8 -1.45,-11.95c2.36,-1.25 4.27,-3.67 7.42,-2.83c-0.49,2.93 -2.11,5.67 -1.47,8.79c-1.9,1.7 -1.74,4.94 -4.5,5.99z" class="cls-8"/><path id="svg_124" fill="#de8583" d="m280.54,327c1.41,5.47 5.72,7.15 10.94,8c-2.87,3.23 -6.53,0.5 -9.41,1.85c-3.22,-2.89 -3.56,-5.08 -1.53,-9.85z" class="cls-8"/><path id="svg_125" fill="#693112" d="m294,319.76c-0.14,0.8 0,2.07 -0.49,2.32c-1,0.53 -1.21,-0.79 -1.75,-1.32c-0.81,-0.81 -1.63,-1.42 -2.83,-0.81c0,-0.83 0,-1.65 -0.06,-2.48l5.13,2.29z" class="cls-9"/><path id="svg_126" fill="#decdc2" d="m258.21,269.78c-0.83,-0.58 -0.75,-1.25 -0.18,-2l0.18,2z" class="cls-11"/><path id="svg_127" fill="#fffffe" d="m318.55,210.34c-1.9,0.19 -3.34,-1.08 -4.32,-3a7,7 0 0 1 -0.14,-6.45c0.61,-1.29 1.64,-1.17 2.32,-0.18a9.82,9.82 0 0 0 8.73,4.67c1.85,0 1.73,1.3 0.6,2.16a11.91,11.91 0 0 1 -7.19,2.8z" class="cls-15"/><path id="svg_128" fill="#693112" d="m328.51,183.88c5.62,-5.14 11.47,-4.89 15.6,0.75c-5.3,-1.33 -9.96,-2.17 -15.6,-0.75z" class="cls-9"/><path id="svg_129" fill="#693112" d="m340.7,190.03c-0.48,1.83 -1.42,3.3 -3.7,3.13a3.29,3.29 0 0 1 -3.35,-3.61a3.22,3.22 0 0 1 3.66,-3.27c2.16,0.11 3.2,1.5 3.39,3.75z" class="cls-9"/><path id="svg_130" fill="#f4b28a" d="m245.94,261.97l-0.15,-0.23l0.34,-0.18c0,0.09 0.06,0.2 0,0.28s-0.11,0.09 -0.19,0.13z" class="cls-12"/><path id="svg_131" fill="#f4b28a" d="m245.2,257.56a1.48,1.48 0 0 1 -0.11,-0.43s0.17,-0.05 0.26,-0.08l-0.15,0.51z" class="cls-12"/><path id="svg_132" fill="#d97f78" d="m317.03,310.11c2.76,-1.05 2.6,-4.29 4.5,-6c1.37,0.11 2.12,-1.15 3.31,-1.51c2.64,-0.81 4.65,0.67 3.85,3.31c-1.09,3.59 -1.88,7.43 -5,10.08c-1.51,0.45 -2.66,1.17 -2.17,3c-2.05,-1.34 -3.41,-3.42 -5.44,-4.86c-1.8,-1.26 0.88,-2.57 0.95,-4.02z" class="cls-7"/><path id="svg_133" fill="#de8583" d="m324.45,336.15a30.29,30.29 0 0 0 -0.61,-13.62l1.21,-0.72c1.93,-1.25 3.66,-3.58 6.29,-1.22c-0.06,0.46 -0.11,0.93 -0.17,1.4c-1.52,1.19 -2.6,2.4 -0.09,3.68l0.14,0.17c-1.91,3.33 -3.8,6.67 -5.75,10c-0.13,0.21 -0.67,0.21 -1.02,0.31z" class="cls-8"/><path id="svg_134" fill="#d2ad79" d="m331.17,321.99c0.06,-0.47 0.11,-0.94 0.17,-1.4a5,5 0 0 1 0.67,0a5.33,5.33 0 0 0 1.27,3a2,2 0 0 0 2,0.55c0.7,-0.14 1.14,-0.65 0.95,-1.31c-0.64,-2.23 0.69,-4.61 -0.58,-6.76a3.64,3.64 0 0 1 2.93,1.49l0,3c-1.74,1.7 0.32,4.34 -1.49,6c-2,-0.24 -4,0.32 -5.9,-0.71l-0.14,-0.17l0.12,-3.69z" class="cls-16"/><path id="svg_135" fill="#b7b86e" d="m335.7,316.08c1.27,2.15 -0.06,4.53 0.58,6.76c0.19,0.66 -0.25,1.17 -0.95,1.31a2,2 0 0 1 -2,-0.55a5.33,5.33 0 0 1 -1.27,-3c0,-1.5 0,-3 0,-4.5l3,-0.19a2.26,2.26 0 0 1 0.64,0.17z" class="cls-5"/><path id="svg_137" fill="#d2ad79" d="m335.05,315.91l-3,0.19a2,2 0 0 1 -0.05,-2.44c1.26,0.41 2.6,0.72 3.05,2.25z" class="cls-16"/><path id="svg_140" fill="#de8583" d="m430.77,292.86c0.4,-1.91 1.3,-3.65 1.76,-5.58a4.8,4.8 0 0 1 5,-4c-0.55,3.74 -1.29,7.44 -0.14,11.25c0.61,2 1.07,4 2.82,5.4c0.49,0.39 1.06,0.91 0.67,1.51a1.49,1.49 0 0 1 -2,0.26a11.8,11.8 0 0 1 -2.85,-2.25c-1.83,-2.13 -3.51,-4.38 -5.26,-6.59z" class="cls-8"/><path id="svg_142" fill="#d97f78" d="m456.87,321.88l-0.69,-1.88c0,-0.58 0,-1.15 0,-1.73c3.36,0.05 6.63,3.2 10.12,0.34c0.1,-0.08 0.85,0.32 0.84,0.46c-0.3,3.25 3.08,4.58 3.79,7.28l-3.25,0c-2.42,-2.14 -5.76,-1.68 -8.48,-3a2.33,2.33 0 0 0 -2.33,-1.47z" class="cls-7"/><path id="svg_143" fill="#aaa652" d="m434.6,307.87c0.09,-0.93 0.82,-1.17 1.53,-1.44l0.83,0.4c-0.49,1.02 -1.4,1.09 -2.36,1.04z" class="cls-14"/><path id="svg_144" fill="#d97f78" d="m454.7,316.78l1.4,0c0,0.5 0,1 0.05,1.49a1.32,1.32 0 0 1 -1.45,-1.49z" class="cls-7"/><path id="svg_145" fill="#de8583" d="m437.57,283.27l0.84,-0.78l-0.84,0.78z" class="cls-8"/><path id="svg_146" fill="#aaa652" d="m439.93,306.33l-0.91,0.14c0.19,-0.74 0.52,-0.61 0.91,-0.14z" class="cls-14"/><path id="svg_147" fill="#fffffe" d="m471.19,328.67c0.05,-0.23 0.09,-0.47 0.12,-0.7a0.88,0.88 0 0 0 0.53,-0.06a0.64,0.64 0 0 0 0.59,0.21c3,3.31 7.17,4.29 11,5.87l-10.73,8.76c-0.17,-4.73 0.15,-9.51 -1.51,-14.08z" class="cls-15"/><path id="svg_148" fill="#d97f78" d="m472.43,328.12a0.64,0.64 0 0 1 -0.59,-0.21c0.43,-0.58 0.55,-0.29 0.59,0.21z" class="cls-7"/><path id="svg_149" fill="#513d32" d="m252.57,361.37c-2,5.37 -0.63,10.93 -1.07,16.56c3.84,-0.83 5.61,-5.06 9.57,-5.09a99.09,99.09 0 0 0 31.68,26.2c2.44,1.3 3.62,2.56 3.49,5.58c-0.3,7.41 2.25,14 6.81,19.87c0.95,1.23 2.48,2.08 2.72,3.82l-37.83,-0.37c-4.91,-0.49 -9.86,-0.64 -14.63,-2.11c-5.51,-1.7 -7.35,-4 -6.92,-9.76a22,22 0 0 0 -8,-19.09c-4.5,-3.91 -8,-8.32 -9.77,-14c-0.31,-1.83 -0.67,-3.64 -0.93,-5.47c-1.67,-11.82 -1,-23.63 0.31,-35.43c0.15,-1.33 0.72,-2.67 -1.06,-3.44c-3.15,-1.36 -6,-3.41 -9.43,-4.16l-0.06,0l-0.87,-0.84l-4.31,-1.61l-1,-1.11c1.57,-6.08 1.57,-6.08 7.42,-4.35a5.89,5.89 0 0 0 0.71,0.13a1.21,1.21 0 0 0 0.3,0.22c3.74,1.26 8.24,4.39 11,3.26c3.1,-1.26 3.6,-6.86 5.27,-10.55c0.5,-1.1 1,-2.2 1.55,-3.29c1.6,3.68 1.41,7.72 2.26,11.55a108.19,108.19 0 0 0 11.16,30.15c0.62,1.07 1.09,2.22 1.63,3.33z" class="cls-10"/><path id="svg_151" fill="#dee18b" d="m224.13,295.82a0.54,0.54 0 0 1 0,-0.48l0.2,0.36l-0.2,0.12z" class="cls-3"/><path id="svg_153" fill="#d97f78" d="m338.61,320.56l0,-3c3.72,2.13 7.15,1.59 10.45,-1a5.49,5.49 0 0 1 2.08,-0.55c1.79,0 3.48,-0.1 3.93,-2.33c3.47,1.62 -0.16,3 -0.14,4.52l-1.66,0.48c0.29,0.35 0.52,0.81 0.88,1a20.73,20.73 0 0 0 2.32,1c0,0.16 0,0.32 0,0.49c-0.13,2.31 -1.9,3.18 -3.69,3.63c-5.52,1.41 -10.48,0.58 -14.17,-4.24z" class="cls-7"/><path id="svg_154" fill="#de8583" d="m355.07,313.67c-0.45,2.23 -2.14,2.36 -3.93,2.33a2.88,2.88 0 0 1 2.42,-3.17l1.51,0.84z" class="cls-8"/><path id="svg_156" fill="#de8583" d="m369.83,330.85c1.81,1.3 4.66,0.56 5.89,3c-7.77,0.16 -12.94,5.66 -13.36,14.19l-1.4,1.48c-0.9,-2.14 -2.15,-4.24 -1.35,-6.68c1,-2.92 0.6,-5.88 0.46,-8.84c1.86,-0.86 2.72,-3.44 5.3,-3.08l1.55,-0.11l2.91,0.04z" class="cls-8"/><path id="svg_157" fill="#f4b28a" d="m365.37,330.92c-2.58,-0.36 -3.44,2.22 -5.3,3.08c-1.44,-0.76 -2.55,-3.92 -4.37,-1.69s-4,4 -5.94,6c-2.13,-0.31 -1.27,-2 -1.52,-3.22c-0.43,-2.08 -1.14,-3.42 -3.3,-1.4c-0.62,0.59 -1.27,1.15 -1.9,1.72c-1.67,-1.36 -3.14,-3 -5.22,-3.77c-0.23,-1.71 -0.47,-3.42 -0.7,-5.13c1.81,-1.69 -0.25,-4.33 1.49,-6c3.69,4.86 8.65,5.69 14.18,4.27c1.79,-0.45 3.56,-1.32 3.69,-3.63a2.09,2.09 0 0 1 0.75,2c-0.4,3.68 1.89,5.23 4.88,6.31c1.12,0.38 2.43,0.39 3.26,1.46z" class="cls-12"/><path id="svg_158" fill="#f4b28a" d="m356.47,320.67a20.73,20.73 0 0 1 -2.32,-1c-0.36,-0.2 -0.59,-0.66 -0.88,-1l1.66,-0.48a2.31,2.31 0 0 1 1.54,2.48z" class="cls-12"/><path id="svg_159" fill="#98a7b7" d="m385.89,342.15a5.23,5.23 0 0 0 2.1,3.34c12,8.21 24,16.38 35.81,24.74c2.51,1.78 4.07,1.54 5.6,-0.9c1.1,1.14 0.85,2.45 0.43,3.75c-1.37,4.35 -2.77,8.69 -4.16,13a92.89,92.89 0 0 1 -43.18,-8.86c-4.94,-2.34 -9.11,-5.93 -14.22,-7.86c0.57,-2.77 3.42,-4.26 3.94,-7.05l1.49,0a3.88,3.88 0 0 0 4.33,0a7.36,7.36 0 0 0 6,-3c1.41,-1.85 -0.78,-3 -1.68,-4.33c-1.11,-1.67 0.33,-2.08 1.37,-2.7s2.5,-0.88 2.34,-2.49s-1.66,-1.56 -2.8,-1.9c0.13,-2.28 1.51,-3.95 2.63,-5.74z" class="cls-18"/><path id="svg_160" fill="#ce6361" d="m362.36,348.04c0.42,-8.53 5.59,-14 13.36,-14.19l1.89,0.17c4.52,3.58 3.5,8.51 3.27,13.26a2.73,2.73 0 0 0 -2,1.39c-5.08,6.84 -8.24,7.75 -15.66,4.57a1.48,1.48 0 0 0 -0.76,-1.47l-0.1,-3.73z" class="cls-6"/><path id="svg_161" fill="#d97f78" d="m363.18,353.24c7.42,3.18 10.58,2.27 15.66,-4.57a2.73,2.73 0 0 1 2,-1.39c0.77,0.26 1.46,0.86 2.36,0.57c1.14,0.34 2.64,0.26 2.8,1.9s-1.32,1.89 -2.34,2.49s-2.48,1 -1.37,2.7c0.9,1.35 3.09,2.48 1.68,4.33a7.36,7.36 0 0 1 -6,3l-4.33,0l-1.44,0a10.8,10.8 0 0 1 -7.62,-4.75c0.45,-1.76 -1.4,-2.71 -1.5,-4.27l0.1,-0.01z" class="cls-7"/><path id="svg_162" fill="#693112" d="m149.6,463.77l2.75,1.19l3.6,2.29c-0.09,0.62 -0.57,0.72 -1.07,0.81c-1.84,-1.34 -4.27,-1.94 -5.28,-4.29z" class="cls-9"/><path id="svg_164" fill="#b7b86e" d="m438.4,417.21c1,3.75 0.38,7.59 0.64,11.38c0.34,4.92 0.37,9.88 1,14.77c0.43,3.39 -0.66,4.67 -3.92,4.4c-0.26,-10.26 -0.01,-20.48 2.28,-30.55z" class="cls-5"/><path id="svg_165" fill="#decdc2" d="m433.09,399.56c-0.27,1.31 -0.53,2.62 -0.79,3.92a12.77,12.77 0 0 1 -5,0.17c0,-0.6 0.07,-1.21 0.11,-1.82l5.68,-2.27z" class="cls-11"/><path id="svg_166" fill="#7c8b9e" d="m441.27,393.43c-1.13,-2.14 -3.24,-4.34 -3.14,-6.42c0.13,-2.65 4.2,-1.49 5.85,-3.58c0.71,-0.89 2,-1.28 1.73,-2.77c0,-0.23 0.05,-0.49 0,-0.73c-0.14,-2.41 3.89,-0.18 3.21,-2.74c-0.37,-1.41 -2.2,-2.38 -1.48,-4.25l0.51,-1.38l1.47,0.11a5.55,5.55 0 0 0 3,1.35c2.26,0.81 4.18,2.45 6.66,2.71c2.4,2.86 3,5.26 1.59,9.48c-1.08,3.13 -3.58,5.29 -4.23,8.55c-0.48,2.44 -7.62,4.18 -9.94,2.92c-1.8,-0.99 -3.04,-2.88 -5.23,-3.25z" class="cls-17"/><path id="svg_168" fill="#ce6361" d="m128.08,453.4l-1.58,1.68l-8.07,0.1l-1.64,-0.09l-1.29,0.2c-1.9,-1.28 -1.78,-2.32 0.5,-2.67c1.91,-0.3 3.89,-0.2 5.83,-0.36a3.76,3.76 0 0 0 2.74,-0.93c1.8,-1.61 2.25,1.41 3.51,2.07z" class="cls-6"/><path id="svg_169" fill="#693112" d="m115.5,455.29l1.3,-0.19c0.5,0.78 1,0.88 1.63,0.08l8.07,-0.1l0.48,1.59c-3.86,-0.16 -7.74,-0.5 -11.51,0.74l0.03,-2.12z" class="cls-9"/><path id="svg_170" fill="#693112" d="m115.41,457.48c0.26,0.44 0.52,0.88 0.79,1.32c-0.81,0 -2,0.51 -2.31,-0.32s0.81,-0.92 1.52,-1z" class="cls-9"/><path id="svg_171" fill="#de8583" d="m334.11,435.12c1.1,-2.54 2.19,-5.09 3.29,-7.63l6.42,-1.09c-0.19,1.67 0.55,3.15 1,4.68c2.08,7.07 -2.61,21.76 -8.42,26.33a62.61,62.61 0 0 1 -1.52,-16.85c0.05,-1.86 0.28,-3.75 -0.77,-5.44z" class="cls-8"/><path id="svg_172" fill="#513d32" d="m343.82,426.4l-6.42,1.09a7.21,7.21 0 0 0 -3,-6.9c-0.72,-11.26 1.16,-21.91 7.31,-31.58c2.22,-3.5 3.37,-7.68 6.62,-10.54c1,1.39 1.25,3.29 2.92,4.21a11.12,11.12 0 0 0 3,6.26c1.24,4.49 4,8.12 7.13,11.36c2.84,2.91 5,6 5.1,10.17c-5.36,8.39 -13.94,12.26 -22.66,15.93z" class="cls-10"/><path id="svg_173" fill="#aaa652" d="m325.31,483.41c-0.66,2.72 -1.31,5.43 -2,8.38c0,-4.39 -0.09,-8.53 0,-12.68c0.09,-3.09 1.76,-5.21 4.42,-6.79a22.82,22.82 0 0 1 18.79,-2.46c7,2.07 10.07,7.52 8.84,15.35c-1,-3.37 0.24,-7.56 -4.08,-9.19l0,0c-1.09,-3.28 -3.86,-3.55 -6.67,-3.72a3.79,3.79 0 0 0 -0.66,-0.18c-6.8,-5.09 -16.91,-0.52 -18.59,8.41c-0.22,0.95 0.57,1.93 -0.05,2.88z" class="cls-14"/><path id="svg_174" fill="#decdc2" d="m325.35,480.56c1.68,-8.93 11.79,-13.5 18.59,-8.41l-2.34,0.18c-6.3,-2.33 -13.15,0.93 -14.13,6.74l0,-0.05c-0.09,0.07 -0.26,0.15 -0.25,0.19a2.26,2.26 0 0 0 0.19,0.49c-0.31,1.1 -1.36,0.54 -2.06,0.86z" class="cls-11"/><path id="svg_175" fill="#aaa652" d="m324.97,493.14c0.41,-2 -0.5,-4.22 1,-6c0.17,0.57 0.33,1.14 0.5,1.71a2.89,2.89 0 0 0 0.74,2.24c0.94,2.47 3.07,4.09 4.86,6.37c-3.68,0.24 -6.37,-0.34 -7.1,-4.32z" class="cls-14"/><path id="svg_176" fill="#aaa652" d="m327.47,479.03c1,-5.81 7.83,-9.07 14.13,-6.74c-6.04,-0.55 -10.47,2.27 -14.13,6.74z" class="cls-14"/><path id="svg_177" fill="#aaa652" d="m351.28,476.02c1.24,2.8 3.52,5.41 1.56,8.78c0.08,-3.32 -2.51,-5.68 -3.15,-8.74l1.58,0l0.01,-0.04z" class="cls-14"/><path id="svg_178" fill="#decdc2" d="m351.27,476.01l-1.58,0l0.07,0c0,-0.5 -0.31,-0.71 -0.77,-0.78l0.06,0c-0.43,-0.77 -1.18,-0.74 -1.91,-0.79c-1.71,0.24 -2.31,-0.79 -2.54,-2.24c2.81,0.26 5.58,0.53 6.67,3.81z" class="cls-11"/><path id="svg_179" fill="#b7b86e" d="m349.63,494.78c0.05,0.6 0.09,1.2 0.14,1.81c-1.33,1.39 -2.67,2.79 -5.52,2l5.38,-3.81z" class="cls-5"/><path id="svg_180" fill="#decdc2" d="m328.62,498.49l7.45,0c-2.83,1.98 -4.7,1.66 -7.45,0z" class="cls-11"/><path id="svg_181" fill="#decdc2" d="m327.24,491.07a2.89,2.89 0 0 1 -0.74,-2.24c1.2,0.44 0.83,1.38 0.74,2.24z" class="cls-11"/><path id="svg_182" fill="#aaa652" d="m347.14,474.56c0.73,0 1.48,0 1.91,0.79c-0.96,0.48 -1.35,-0.31 -1.91,-0.79z" class="cls-14"/><path id="svg_183" fill="#aaa652" d="m327.44,479.66a2.26,2.26 0 0 1 -0.19,-0.49s0.16,-0.12 0.25,-0.19a1.31,1.31 0 0 1 -0.06,0.68z" class="cls-14"/><path id="svg_184" fill="#aaa652" d="m348.99,475.28c0.46,0.07 0.76,0.28 0.77,0.78c-0.69,0.17 -1.06,0.02 -0.77,-0.78z" class="cls-14"/><path id="svg_185" fill="#999540" d="m464.31,499.2c-1.61,-0.49 -4.85,0.81 -5,-1.91c-0.1,-2.1 3,-2.39 5,-2.79c2.68,-0.53 5.37,-1 8,0.09c0.7,0.28 1.42,0.6 1.47,1.46s-0.71,1.21 -1.36,1.55a16.45,16.45 0 0 1 -8.11,1.6z" class="cls-4"/><path id="svg_186" fill="#999540" d="m462.17,490.22c-1.74,-0.2 -4.43,0.62 -4.8,-1.49s2.37,-2.38 4,-3a18,18 0 0 1 7.68,-0.91c1.1,0.1 2.54,0.11 2.58,1.49a2.4,2.4 0 0 1 -1.92,2.34c-2.46,0.68 -4.82,1.91 -7.54,1.57z" class="cls-4"/><path id="svg_187" fill="#aaa652" d="m427.23,496.99c7.49,-1.31 15,-2.64 22.49,-3.91c0.75,-0.13 1.93,-0.6 2.18,0.58s-0.77,1.63 -1.86,1.74l-22.74,2.38l-0.07,-0.79z" class="cls-14"/><path id="svg_188" fill="#aaa652" d="m467.15,492.01c-3.23,0.76 -6.37,2.27 -9.85,1.3c3.09,-1.75 6.47,-1.59 9.85,-1.3z" class="cls-14"/><path id="svg_191" fill="#98a7b7" d="m429.49,388.61c1.66,-6.28 3.07,-12.63 6,-18.56c0.63,4.26 1,8.52 0.09,12.68c-0.51,2.32 0.36,5.06 -1.82,6.94l-4.27,-1.06z" class="cls-18"/><path id="svg_193" fill="#98a7b7" d="m442.94,361.05l4.24,-0.17a11.33,11.33 0 0 1 -0.8,4.64c-0.58,1.52 -1.08,3.3 -3.25,2.12c-1.74,-0.95 -2.39,-2.44 -1,-4.25a3.44,3.44 0 0 0 0.81,-2.34z" class="cls-18"/><path id="svg_195" fill="#693112" d="m290.99,177.56c2.43,-0.12 4.79,-0.41 6.73,-2.08a4.37,4.37 0 0 1 3,3.55a18.93,18.93 0 0 1 -2.61,10.29a7.12,7.12 0 0 1 -8.19,-9.09c0.27,-0.92 0.7,-1.78 1.07,-2.67z" class="cls-9"/><path id="svg_196" fill="#f4b28a" d="m298.09,189.32a18.93,18.93 0 0 0 2.61,-10.29c2.24,-0.86 2.8,0.68 3.28,2.32c0.7,2.41 0.66,4.75 -1.49,6.39c-1.23,0.94 -2.62,1.93 -4.4,1.58z" class="cls-12"/><path id="svg_197" fill="#de8583" d="m217.54,334.44c3.43,0.75 6.28,2.8 9.43,4.16c1.78,0.77 1.21,2.11 1.06,3.44c-1.35,11.8 -2,23.61 -0.31,35.43c0.26,1.83 0.62,3.64 0.93,5.47c-1.37,2.08 -0.95,5 -4.11,6.33c-4.93,2.11 -9.8,3 -15,1.84a5.33,5.33 0 0 1 -3.69,-6.65c1.41,-5 3.08,-10 4.46,-15c2.73,-9.92 2.47,-20 0.88,-30c-0.29,-1.83 0.65,-2.21 2.15,-2.7s3.69,0.02 4.2,-2.32z" class="cls-8"/><path id="svg_198" fill="#ce6361" d="m186.78,431.35c0.55,-4.47 3.16,-8.16 4.65,-12.28c3.55,-3.14 7.46,-5.14 12.39,-3.85c4.65,2 9.14,4.33 14.2,5.1a167.17,167.17 0 0 0 24.68,10.48c2,0.65 4.94,1.29 4.9,3.86c-0.06,2.91 -3.24,2.68 -5.23,3c-8.78,1.65 -17.63,1.39 -26.5,0.56a107.3,107.3 0 0 1 -21,-4c-2.72,-0.73 -5.38,-1.87 -8.09,-2.87z" class="cls-6"/><path id="svg_201" fill="#de8583" d="m216.33,334.56l0.29,-0.92l0.86,0.84l-1.15,0.08z" class="cls-8"/><path id="svg_202" fill="#b7b86e" d="m341.72,389.01c-6.15,9.67 -8,20.32 -7.31,31.58c-2.52,1.52 -5.39,2.3 -8,3.64s-5.38,0.51 -7.79,-0.9a3.9,3.9 0 0 1 -1.82,-5.38c1,-2.21 2.68,-3 5.09,-2.66c3,0.41 6,1 9.08,0.59c1.08,-0.16 2.35,0.13 2.48,-1.5c0.1,-1.36 -1,-1.35 -1.88,-1.79a26.71,26.71 0 0 1 -6.38,-4.88c0.41,-4.42 0.85,-8.83 1.22,-13.25c1,-11.77 2.82,-23.46 3.33,-35.28c1.27,-1.18 0.23,-3.11 1.41,-4.32l3.85,-0.08c1.38,2.9 -1.09,5.9 0.44,9.19l1.9,-9.17c2.08,-0.43 3.66,-2.19 5.87,-2.29l-3,15.75c-1.9,6.76 -2.55,13.71 -3.3,20.67a74.29,74.29 0 0 0 5,-8.6c1.09,-2.27 3.31,-4 3.2,-6.86c3.56,-3.21 6,-7.27 8.42,-11.31c1.87,-0.54 2.48,-2.08 3,-3.7c1.16,-0.84 2.64,-0.91 3.74,-2.11c1.68,-1.83 2.09,-0.27 2.23,1.26a45.18,45.18 0 0 1 -4.19,5.46c-1.45,1.76 -3.44,3.69 -1.75,6.44c-2,-0.16 -3.75,0.17 -4.56,2.34l-10.28,17.16z" class="cls-5"/><path id="svg_203" fill="#b7b86e" d="m313.26,344.18a1.06,1.06 0 0 1 0.66,0c0.57,2.32 1.13,4.63 1.7,6.95q0.81,5.73 1.63,11.45a32.8,32.8 0 0 0 -0.36,-11.06c0.61,-2.51 -1.18,-4.89 -0.39,-7.41l5,0.09c0.35,1.51 -0.48,3.22 0.77,4.58l0,0c0.2,2.15 -0.45,4.39 0.7,6.43c0.17,3.81 0.35,7.62 0.5,11.43c0.55,13.41 1.46,26.82 0.66,40.25c-2.9,0.15 -5.52,-1.12 -8.29,-1.66c-1.92,-0.37 -2.15,-2.16 -2.66,-3.65a331.42,331.42 0 0 0 -8.41,-54.88c1.58,-1.44 4.07,0 5.56,-1.77l1.36,-0.11c0.68,0.21 1.27,0.16 1.57,-0.64z" class="cls-5"/><path id="svg_204" fill="#513d32" d="m304.75,346.69a331.42,331.42 0 0 1 8.41,54.87c-2.07,0.06 -1.91,-1.81 -2.58,-3l-10.8,-50.72l-0.93,-4.34c0.89,-1.31 1.79,-0.19 2.69,0c-0.32,2.51 2.67,1.59 3.21,3.19z" class="cls-10"/><path id="svg_205" fill="#513d32" d="m324.11,406.88c0.8,-13.43 -0.11,-26.84 -0.66,-40.25c-0.15,-3.81 -0.33,-7.62 -0.5,-11.43l6.77,4c-0.51,11.82 -2.35,23.51 -3.33,35.28c-0.37,4.42 -0.81,8.83 -1.22,13.25l-1.06,-0.85z" class="cls-10"/><path id="svg_206" fill="#513d32" d="m302.88,390.43c0.91,0.12 0.53,0.47 0.15,0.83l-0.15,-0.83z" class="cls-10"/><path id="svg_207" fill="#de8583" d="m298.46,331.56c-0.36,-2.47 0.77,-5.12 -1,-7.45c-1,-1.3 2.93,-1.07 1,-2.86c2.5,-1 4.82,-2.16 5.19,-5.26c1.75,0.44 3.3,-0.84 5.46,-0.64c-3.06,3.9 -4.77,7.9 -3.55,12.83c1.15,4.68 3.16,8.67 7,11.64l0,0.75c-4,0.21 -6.65,-2 -8.82,-5c-1.33,-1.85 -2.54,-3.92 -5.28,-4.01z" class="cls-8"/><path id="svg_208" fill="#d97f78" d="m312.58,340.61l0,-0.75c4.78,1.37 8.81,0.36 11.87,-3.71c0.35,-0.1 0.89,-0.1 1,-0.32c2,-3.32 3.84,-6.66 5.75,-10c1.87,1 3.93,0.47 5.9,0.71c0.23,1.71 0.47,3.42 0.7,5.13c-3,-1 -4.75,1.9 -7.32,2.23c-2.12,0.66 -2,3.33 -3.91,4.27c-2.79,1.35 -2.1,3.21 -0.1,4.66c1.45,1.05 1.69,1.82 0.25,2.94l-1.02,-0.21c-0.54,-3 -2.38,-2.1 -4.16,-1.39l-5,-0.09l-1,-1.27c-0.59,-1.25 -2.97,-0.15 -2.96,-2.2z" class="cls-7"/><path id="svg_210" fill="#d2ad79" d="m304.75,346.69c-0.54,-1.6 -3.53,-0.68 -3.21,-3.15a16.13,16.13 0 0 0 8.77,1.38c-1.49,1.75 -3.98,0.33 -5.56,1.77z" class="cls-16"/><path id="svg_211" fill="#d2ad79" d="m313.26,344.18c-0.3,0.8 -0.89,0.85 -1.59,0.63l1.59,-0.63z" class="cls-16"/><path id="svg_212" fill="#d97f78" d="m331.17,321.99l-0.09,3.68c-2.51,-1.28 -1.38,-2.49 0.09,-3.68z" class="cls-7"/><path id="svg_213" fill="#ce6361" d="m349.76,338.35c2,-2 4.12,-3.81 5.94,-6s2.93,0.93 4.37,1.69c0.14,3 0.5,5.92 -0.46,8.84c-0.8,2.44 0.45,4.54 1.35,6.68l0.18,2.36l-0.21,0.89a12.58,12.58 0 0 1 -7.47,-8.37a15.69,15.69 0 0 1 -0.64,-3.58c0.1,-2.42 -1.29,-2.63 -3.06,-2.51z" class="cls-6"/><path id="svg_214" fill="#d97f78" d="m361.14,351.88l-0.18,-2.36l1.4,-1.48l0.06,3.73l-0.17,0.17l-1.11,-0.06z" class="cls-7"/><path id="svg_215" fill="#ce6361" d="m330.5,333.91c2.57,-0.33 4.36,-3.22 7.32,-2.23c2.08,0.79 3.55,2.41 5.22,3.77c0.43,0.87 0.9,1.72 1.31,2.6c3.3,7.13 0.57,11.48 -7.19,11.48a14.79,14.79 0 0 1 -4.28,-3.72c-2.8,-3.71 -2.53,-7.75 -2.38,-11.9z" class="cls-6"/><path id="svg_216" fill="#d97f78" d="m337.16,349.56c7.76,0 10.49,-4.35 7.19,-11.48c-0.41,-0.88 -0.88,-1.73 -1.31,-2.6c0.63,-0.57 1.28,-1.13 1.9,-1.72c2.16,-2 2.87,-0.68 3.3,1.4c0.25,1.19 -0.61,2.91 1.52,3.22c1.77,-0.12 3.16,0.09 3.06,2.47a15.69,15.69 0 0 0 0.64,3.58c-1.35,0.49 -1.56,1.83 -2.14,2.89c-1.21,-0.12 -1.53,1 -2.28,1.57c-2.86,0.21 -5.17,2.54 -8.19,2.14l-3.74,-0.07c0.01,-0.5 0.03,-0.96 0.05,-1.4z" class="cls-7"/><path id="svg_217" fill="#7c8b9e" d="m356.55,369.56c-1.69,-2.75 0.3,-4.68 1.75,-6.44a45.18,45.18 0 0 0 4.19,-5.46l2.09,0a10.84,10.84 0 0 0 7.63,4.75c-0.52,2.8 -3.37,4.29 -3.94,7.06c-3.76,4.76 -3.76,4.75 -9.23,1.13a11.39,11.39 0 0 0 -1.66,-0.76l-0.83,-0.28z" class="cls-17"/><path id="svg_218" fill="#7c8b9e" d="m373.7,362.35l4.33,0a3.88,3.88 0 0 1 -4.33,0z" class="cls-17"/><path id="svg_219" fill="#d97f78" d="m362.42,351.77a1.48,1.48 0 0 1 0.76,1.47l-0.09,0.07l-0.84,-1.37l0.17,-0.17z" class="cls-7"/><path id="svg_220" fill="#d2ad79" d="m362.25,351.94l0.84,1.37c0.1,1.56 1.95,2.51 1.5,4.27l-2.1,0c-0.14,-1.53 -0.55,-3.09 -2.23,-1.26c-1.1,1.2 -2.58,1.27 -3.74,2.11c-0.71,-0.5 -1.78,-0.55 -2,-1.62c1.69,0.15 3.6,0.64 3.49,-2.15c1.29,-0.18 2.56,-0.37 2.94,-1.92l0.21,-0.89l1.09,0.09z" class="cls-16"/><path id="svg_221" fill="#aaa652" d="m356.55,369.56l0.83,0.25c-0.51,5.45 -2,10.79 -1.78,16.32a3,3 0 0 1 -1.3,2.86a11.12,11.12 0 0 1 -3,-6.26c0.24,-3.61 0.49,-7.22 0.73,-10.83c0.77,-2.22 2.52,-2.55 4.52,-2.34z" class="cls-14"/><path id="svg_222" fill="#513d32" d="m118.43,455.18c-0.59,0.8 -1.13,0.7 -1.63,-0.08l1.63,0.08z" class="cls-10"/><path id="svg_225" fill="#ce6361" d="m337.11,350.93l3.74,0.07c-1.18,1.44 -3,1.83 -4.47,2.89l-1.4,0.89l-3.85,0.08c-3.55,-1.18 -6.21,-3.64 -8.88,-6.09l0,0c-0.36,-2.65 1.33,-3.12 3.39,-3.19l1.09,0.18a5.75,5.75 0 0 1 3.56,1.8a10.79,10.79 0 0 0 6.82,3.37z" class="cls-6"/><path id="svg_226" fill="#513d32" d="m340.16,368.26c2.05,1.36 3.23,3.54 5,5.21c0.11,2.83 -2.11,4.59 -3.2,6.86a74.29,74.29 0 0 1 -5,8.6c0.65,-6.96 1.3,-13.91 3.2,-20.67z" class="cls-10"/><path id="svg_228" fill="#aaa652" d="m353.53,362.16a53.39,53.39 0 0 1 -4.61,-10.33l0.78,-1.58l4.8,6.59c0.24,1.07 1.31,1.12 2,1.62c-0.49,1.62 -1.1,3.16 -2.97,3.7z" class="cls-14"/><path id="svg_229" fill="#d2ad79" d="m349.7,350.25l-0.78,1.58c-2,-0.17 -3.93,-0.46 -5.73,0.68c-2.21,0.1 -3.79,1.86 -5.88,2.29l-0.93,-0.91c1.43,-1.06 3.29,-1.45 4.47,-2.89c3,0.4 5.33,-1.93 8.19,-2.14l0.66,1.39z" class="cls-16"/><path id="svg_231" fill="#513d32" d="m315.62,351.14l1.27,0.39a32.8,32.8 0 0 1 0.36,11.06q-0.82,-5.73 -1.63,-11.45z" class="cls-10"/><path id="svg_233" fill="#de8583" d="m337.11,350.93a10.79,10.79 0 0 1 -6.81,-3.37a5.75,5.75 0 0 0 -3.56,-1.8c1.44,-1.12 1.2,-1.89 -0.25,-2.94c-2,-1.45 -2.69,-3.31 0.1,-4.66c1.95,-0.94 1.79,-3.61 3.91,-4.27c-0.15,4.15 -0.42,8.19 2.38,11.9a14.79,14.79 0 0 0 4.28,3.72c-0.02,0.49 -0.04,0.95 -0.05,1.42z" class="cls-8"/><path id="svg_234" fill="#f4b28a" d="m360.93,352.77c-0.38,1.55 -1.65,1.74 -2.94,1.92c-2.25,-2.44 -4,-5.32 -6.67,-7.4c0.58,-1.06 0.79,-2.4 2.14,-2.89a12.58,12.58 0 0 0 7.47,8.37z" class="cls-12"/><path id="svg_235" fill="#ee946c" d="m351.32,347.29c2.65,2.08 4.42,5 6.67,7.4c0.11,2.79 -1.8,2.3 -3.49,2.15l-4.8,-6.59l-0.66,-1.39c0.75,-0.53 1.07,-1.69 2.28,-1.57z" class="cls-13"/></g></svg>