<svg xmlns="http://www.w3.org/2000/svg" xmlns:xlink="http://www.w3.org/1999/xlink" id="Capa_1" width="382" height="96" x="0" y="0" enable-background="new 0 0 382 96" version="1.1" viewBox="0 0 382 96" xml:space="preserve"><g><defs><rect id="SVGID_1_" width="406" height="423" x="-17" y="-268"/></defs><clipPath id="SVGID_2_"><use overflow="visible" xlink:href="#SVGID_1_"/></clipPath><path fill="#2C8F98" d="M30.162,59.957c-6.384-6.261-10.51-13.468-11.717-21.993 c-0.056-0.399,0.4-0.737,0.889-0.657c8.505,1.403,16.065,4.376,22.882,8.97c0.496,0.286,0.982,0.582,1.476,0.869 c0.761-0.341,0.412-0.184,1.174-0.526c-0.12-1.368-0.234-2.674-0.3-3.974c-0.037-0.731-0.299-1.243-0.945-1.71 c-5.921-4.285-12.656-7.093-20.025-8.765c-3.9-0.882-7.85-1.453-12.11-1.551c-0.423-0.01-0.781,0.28-0.771,0.619 c0.373,11.541,4.572,21.678,13.541,29.935c6.639,6.11,14.652,9.764,23.81,10.92c0.866,0.111,1.208-0.868,0.394-1.13 C41.429,68.704,35.327,65.026,30.162,59.957" clip-path="url(#SVGID_2_)"/><path fill="#2C8F98" d="M44.616,41.99c-0.124-0.002-0.193-0.172-0.253-0.368 c-0.01-0.011-0.02-0.019-0.029-0.028c-0.064-0.069-0.124-0.143-0.187-0.212c-0.05-0.049-0.102-0.099-0.156-0.145 c-0.079-0.067-0.147-0.141-0.218-0.212c-0.455-0.043-0.996,0.55-1.367,1.62l-0.052,0.148c-0.412,1.173-0.475,2.501-0.215,3.291 c0.042,0.128,0.146,0.229,0.279,0.309c0.706,0.412,1.397,0.841,2.122,1.232c0.286,0.153,0.584,0.302,0.882,0.445 c0.046,0.021,0.093,0.04,0.141,0.057c1.344,0.431,2.764,0.639,4.273,0.571c0.149-0.008,0.335-0.144,0.503-0.222 C48.124,46.934,46.229,44.746,44.616,41.99" clip-path="url(#SVGID_2_)"/><path fill="#F18325" d="M64.099,52.686c-3.472,0.086-6.473-2.163-6.301-4.942 c0.179-2.931,2.3-4.681,5.871-5.014c3.364-0.313,6.333,2.035,6.456,4.846C70.256,50.538,67.832,52.593,64.099,52.686" clip-path="url(#SVGID_2_)"/><path fill="#2C8F98" d="M63.574,9.215c11.398,6.435,19.811,21.961,16.817,31.251 c-0.856,2.655-2.854,5.069-4.857,7.488c6.973-13.228-2.159-22.507-11.036-31.99c-12.264,7.681-16.966,21.578-11.16,32.146 c-4.237-2.424-7.042-7.291-6.649-12.434C47.516,24.863,54.595,16.639,63.574,9.215" clip-path="url(#SVGID_2_)"/><path fill="#2C8F98" d="M97.383,60.771c6.867-5.987,11.319-12.873,12.655-21.007 c0.074-0.453-0.439-0.844-0.998-0.762c-9.178,1.353-17.339,4.208-24.698,8.615c-0.521,0.267-1.031,0.542-1.548,0.811 c-0.808-0.387-0.498-0.239-1.305-0.626c0.125-1.266,0.242-2.473,0.309-3.676c0.04-0.704,0.325-1.194,1.024-1.645 c6.405-4.121,13.692-6.819,21.664-8.425c4.206-0.847,8.464-1.394,13.055-1.492c0.484-0.01,0.891,0.318,0.876,0.709 c-0.429,11.049-4.976,20.753-14.644,28.663c-6.888,5.636-15.141,9.095-24.542,10.353c-0.983,0.13-1.366-1.012-0.436-1.3 C85.895,68.798,92.092,65.382,97.383,60.771" clip-path="url(#SVGID_2_)"/><path fill="#2C8F98" d="M81.746,43.497c0.135-0.002,0.209-0.166,0.274-0.356 c0.009-0.009,0.021-0.018,0.031-0.026c0.07-0.066,0.134-0.136,0.2-0.204c0.056-0.047,0.114-0.093,0.171-0.138 c0.084-0.067,0.159-0.134,0.234-0.204c0.493-0.041,1.078,0.53,1.48,1.558c0.019,0.047,0.038,0.095,0.056,0.143 c0.482,1.224,0.522,2.622,0.154,3.348c-0.843,0.429-1.658,0.883-2.518,1.295c-0.333,0.161-0.681,0.314-1.027,0.461 c-1.478,0.43-3.04,0.64-4.704,0.572c-0.16-0.006-0.361-0.138-0.543-0.212C77.949,48.248,80.001,46.146,81.746,43.497" clip-path="url(#SVGID_2_)"/><path fill="#FCC010" d="M63.768,61.184c-3.078-3.425-9.072-4.602-11.852-8.928 c10.19,6.895,15.001,6.236,23.839,0.276c0.139,0.114,0.276,0.229,0.414,0.345c-1.936,1.41-3.818,2.873-5.824,4.216 C68.285,58.473,66.104,59.739,63.768,61.184" clip-path="url(#SVGID_2_)"/><path fill="#FCC010" d="M65.3,59.789c-1.443,9.184-0.848,5.392-2.29,14.574h-0.001 c-0.069,0-0.126-0.021-0.126-0.047V59.738c0-0.026,0.067-0.048,0.141-0.046L65.3,59.789z" clip-path="url(#SVGID_2_)"/><path fill="#2C8F98" d="M72.495,71.413c4.14,2.618,3.875,5.723-0.831,9.719 c-6.906,5.865-10.972,5.814-17.709-0.223c-4.534-4.062-4.591-7.101-0.186-9.787c-1.519,4.433,3.36,11.219,8.762,12.163 c0.347,0.061,0.739,0.063,1.084,0C68.791,82.358,73.765,75.696,72.495,71.413" clip-path="url(#SVGID_2_)"/><path fill="#99C981" d="M31.037,75.646h17.825c-7.201,2.446-14.596,2.048-22.133,1.601 c1.657-5.545,6.246-9.377,9.74-8.41C34.804,70.923,33.138,73.014,31.037,75.646" clip-path="url(#SVGID_2_)"/><path fill="#99C981" d="M97.647,20.883c-6.286,1.195-12.063,3.01-17.653,5.452 c0.835,0.815,1.277,1.815,1.935,2.719c0.193,0.266,0.386,0.534,0.573,0.805c3.165-0.997,6.206-1.923,9.203-2.917 c1.476-0.49,2.003-0.127,2.199,0.953c0.368,2.042,0.8,4.081,1.238,6.219c1.851-0.104,3.646-0.526,5.445-0.907 C100.38,29.062,99.423,25.014,97.647,20.883" clip-path="url(#SVGID_2_)"/><path fill="#99C981" d="M46,29.734c0.974-1.08,1.318-2.436,2.186-3.552 c-5.428-2.329-11.04-4.074-17.13-5.232c-1.641,3.819-2.569,7.569-2.865,11.388c0.244,0.178,0.533,0.315,0.865,0.442 c0.336,0.132,0.683,0.244,1.02,0.373c0.747,0.285,1.436,0.628,2.23,0.778c0.122,0.023,0.217,0.086,0.292,0.161 c0.319,0.038,0.64,0.069,0.964,0.088c0.437-2.138,0.869-4.18,1.236-6.218c0.196-1.082,0.724-1.444,2.198-0.955 c2.916,0.968,5.879,1.874,8.951,2.838C45.96,29.808,45.969,29.769,46,29.734" clip-path="url(#SVGID_2_)"/><path fill="#99C981" d="M97.048,75.646H79.259c7.187,2.446,14.567,2.048,22.088,1.601 c-1.653-5.545-6.234-9.377-9.72-8.41C93.287,70.923,94.952,73.014,97.048,75.646" clip-path="url(#SVGID_2_)"/></g><text transform="matrix(1.2421 0 0 1 122.3262 66.7891)"><tspan x="0" y="0" fill="#676767" font-family="'Code-Bold'" font-size="48.929">F</tspan><tspan x="27.212" y="0" fill="#676767" font-family="'Code-Bold'" font-size="48.929" letter-spacing="-3.22">L</tspan><tspan x="53.577" y="0" fill="#676767" font-family="'Code-Bold'" font-size="48.929">O</tspan><tspan x="88.911" y="0" fill="#676767" font-family="'Code-Bold'" font-size="48.929" letter-spacing="-.805">O</tspan><tspan x="123.267" y="0" fill="#676767" font-family="'Code-Bold'" font-size="48.929">WY</tspan></text></svg>