<?xml version="1.0" encoding="UTF-8"?>
<!-- Generator: Adobe Illustrator 25.2.1, SVG Export Plug-In . SVG Version: 6.00 Build 0)  -->
<svg xmlns="http://www.w3.org/2000/svg" xmlns:xlink="http://www.w3.org/1999/xlink" version="1.1" id="Capa_1" x="0px" y="0px" viewBox="0 0 512 512" style="enable-background:new 0 0 512 512;" xml:space="preserve" width="512" height="512">
<g>
	<path style="fill:#B4D5C9;" d="M184.642,350.713c0,0-6.843-27.577-36.337-42.147s-76.018-8.249-64.774-1.727   S186.509,360.128,184.642,350.713z"/>
	<path style="fill:#2B2330;" d="M55.149,132.044c-0.982,0-1.913,0-4.585-10.655c-9.058-1.74-9.836-2.787-10.097-3.139   c-0.239-0.319-0.342-0.919-0.234-1.303c0.161-0.568,0.532-1.883,10.853-6.039c3.699-9.65,4.922-9.65,5.735-9.65   c0.407,0,0.977,0.299,1.22,0.623c0.655,0.879,1.253,3.187,2.162,6.886c0.291,1.183,0.643,2.617,0.841,3.217   c0.532,0.241,1.758,0.681,2.775,1.045c5.193,1.863,6.634,2.539,6.87,3.754c0.088,0.444-0.143,1.107-0.48,1.409   c-1.075,0.962-6.235,2.875-8.912,3.829c-4.367,9.932-5.311,9.982-6.074,10.022C55.201,132.044,55.171,132.044,55.149,132.044z    M43.675,117.145c1.775,0.532,5.196,1.313,8.174,1.871c0.495,0.093,0.891,0.465,1.012,0.954c0.758,3.079,1.758,6.592,2.456,8.495   c1.002-1.77,2.576-5.073,3.85-7.988c0.143-0.326,0.414-0.58,0.751-0.698c2.549-0.896,5.434-2.004,7.147-2.767   c-1.225-0.527-2.988-1.16-4.113-1.564c-3.011-1.08-3.578-1.311-3.953-1.816c-0.329-0.442-0.552-1.251-1.291-4.254   c-0.299-1.218-0.766-3.116-1.17-4.462c-0.909,1.695-2.227,4.739-3.247,7.43c-0.128,0.339-0.392,0.605-0.726,0.741   C49.268,114.4,45.526,116.083,43.675,117.145z"/>
	<path style="fill:#2B2330;" d="M316.305,170.08c-0.982,0-1.913,0-4.585-10.655c-9.058-1.74-9.839-2.787-10.1-3.136   c-0.239-0.321-0.341-0.922-0.234-1.306c0.161-0.568,0.535-1.883,10.856-6.042c3.699-9.648,4.922-9.648,5.735-9.648   c0.407,0,0.977,0.299,1.22,0.623c0.653,0.879,1.253,3.187,2.162,6.881c0.291,1.185,0.643,2.619,0.841,3.219   c0.53,0.241,1.758,0.681,2.772,1.045c5.196,1.863,6.634,2.539,6.873,3.754c0.085,0.444-0.146,1.107-0.482,1.409   c-1.07,0.964-6.233,2.878-8.91,3.829c-4.367,9.934-5.311,9.984-6.074,10.024C316.358,170.08,316.328,170.08,316.305,170.08z    M304.829,155.181c1.775,0.532,5.196,1.313,8.176,1.871c0.495,0.093,0.891,0.465,1.012,0.954c0.758,3.079,1.758,6.589,2.456,8.495   c1.002-1.773,2.576-5.075,3.85-7.99c0.143-0.326,0.414-0.58,0.751-0.698c2.551-0.896,5.437-2.004,7.149-2.767   c-1.228-0.527-2.991-1.16-4.116-1.564c-3.011-1.08-3.578-1.311-3.953-1.816c-0.331-0.442-0.542-1.2-1.291-4.254   c-0.301-1.218-0.766-3.114-1.17-4.46c-0.909,1.693-2.227,4.736-3.247,7.428c-0.128,0.339-0.392,0.605-0.726,0.741   C310.424,152.437,306.68,154.119,304.829,155.181z"/>
	<path style="fill:#2B2330;" d="M196.353,30.787c-0.984,0-1.916,0-4.585-10.655c-9.058-1.74-9.839-2.785-10.1-3.136   c-0.239-0.321-0.342-0.922-0.234-1.306c0.161-0.568,0.532-1.883,10.853-6.042C195.986,0,197.209,0,198.023,0   c0.407,0,0.977,0.299,1.22,0.623c0.655,0.879,1.253,3.187,2.162,6.886c0.291,1.183,0.643,2.617,0.841,3.217   c0.532,0.241,1.758,0.681,2.775,1.045c5.193,1.863,6.634,2.539,6.87,3.754c0.088,0.444-0.143,1.107-0.48,1.409   c-1.075,0.962-6.235,2.875-8.912,3.827c-4.364,9.934-5.309,9.984-6.072,10.024C196.406,30.787,196.376,30.787,196.353,30.787z    M184.875,15.888c1.778,0.532,5.198,1.313,8.179,1.871c0.495,0.093,0.891,0.465,1.012,0.957c0.758,3.076,1.758,6.589,2.456,8.495   c0.999-1.773,2.574-5.078,3.847-7.993c0.143-0.326,0.414-0.58,0.751-0.698c2.549-0.896,5.434-2.004,7.147-2.765   c-1.225-0.527-2.988-1.16-4.113-1.564c-3.011-1.08-3.578-1.311-3.953-1.816c-0.329-0.442-0.552-1.251-1.291-4.254   c-0.299-1.218-0.766-3.116-1.17-4.462c-0.909,1.693-2.227,4.736-3.247,7.428c-0.128,0.339-0.392,0.605-0.726,0.741   C190.469,13.141,186.725,14.826,184.875,15.888z"/>
	<path style="fill:#2B2330;" d="M60.643,355.435c-0.982,0-1.913,0-4.585-10.655c-9.058-1.74-9.839-2.787-10.1-3.136   c-0.239-0.321-0.342-0.919-0.234-1.303c0.158-0.568,0.53-1.883,10.856-6.042c3.699-9.65,4.97-9.65,5.735-9.65   c0.404,0,0.977,0.296,1.218,0.623c0.655,0.879,1.253,3.184,2.162,6.878c0.291,1.188,0.645,2.622,0.844,3.224   c0.53,0.241,1.758,0.683,2.775,1.047c5.193,1.861,6.632,2.536,6.87,3.752c0.085,0.444-0.146,1.107-0.482,1.409   c-1.07,0.962-6.235,2.875-8.912,3.829c-4.364,9.937-5.271,9.982-6.074,10.022C60.693,355.435,60.666,355.435,60.643,355.435z    M49.167,340.536c1.78,0.535,5.198,1.316,8.176,1.871c0.495,0.09,0.891,0.465,1.012,0.954c0.758,3.079,1.758,6.592,2.456,8.495   c1.002-1.77,2.574-5.073,3.847-7.988c0.143-0.326,0.414-0.58,0.751-0.698c2.551-0.896,5.437-2.004,7.149-2.767   c-1.225-0.527-2.988-1.16-4.113-1.562c-3.013-1.082-3.581-1.313-3.955-1.821c-0.329-0.439-0.552-1.251-1.291-4.256   c-0.299-1.215-0.766-3.111-1.17-4.457c-0.909,1.695-2.225,4.739-3.244,7.43c-0.128,0.339-0.392,0.605-0.726,0.741   C54.762,337.792,51.02,339.474,49.167,340.536z"/>
	<path style="fill:#2B2330;" d="M380.844,373.591c-0.982,0-1.914,0-4.585-10.655c-9.058-1.74-9.839-2.787-10.1-3.136   c-0.239-0.321-0.342-0.922-0.234-1.306c0.161-0.568,0.532-1.883,10.856-6.042c3.699-9.648,4.922-9.648,5.735-9.648   c0.407,0,0.977,0.299,1.22,0.623c0.653,0.879,1.251,3.184,2.16,6.876c0.291,1.185,0.645,2.622,0.844,3.224   c0.53,0.241,1.758,0.681,2.772,1.045c5.193,1.863,6.634,2.541,6.873,3.757c0.085,0.444-0.146,1.107-0.482,1.409   c-1.07,0.962-6.235,2.875-8.912,3.827c-4.364,9.934-5.309,9.984-6.072,10.025C380.897,373.591,380.867,373.591,380.844,373.591z    M369.368,358.692c1.775,0.532,5.196,1.313,8.176,1.871c0.495,0.09,0.891,0.465,1.012,0.954c0.758,3.079,1.758,6.589,2.456,8.495   c1.002-1.773,2.574-5.075,3.847-7.99c0.143-0.326,0.414-0.58,0.751-0.698c2.551-0.896,5.439-2.004,7.152-2.765   c-1.228-0.53-2.993-1.163-4.118-1.567c-3.011-1.08-3.578-1.313-3.953-1.818c-0.329-0.439-0.54-1.2-1.291-4.259   c-0.299-1.213-0.766-3.106-1.168-4.452c-0.912,1.695-2.227,4.739-3.247,7.428c-0.128,0.339-0.392,0.605-0.726,0.741   C374.963,355.945,371.219,357.63,369.368,358.692z"/>
	<path style="fill:#2B2330;" d="M210.463,169.068c-0.003,0-0.04,0-0.043,0c-2.554-0.01-4.952-1.014-6.752-2.83   c-1.798-1.813-2.782-4.219-2.772-6.773c0.023-5.253,4.314-9.525,9.562-9.525c2.599,0.01,4.995,1.017,6.795,2.83   c1.798,1.816,2.78,4.221,2.77,6.775C220.003,164.796,215.714,169.068,210.463,169.068z M210.491,152.512   c-3.87,0-7.006,3.124-7.024,6.963c-0.008,1.868,0.711,3.626,2.026,4.952c1.316,1.328,3.069,2.062,4.937,2.069l0.033,1.286v-1.286   c3.84,0,6.973-3.121,6.989-6.961c0.008-1.868-0.711-3.629-2.027-4.954C214.112,153.255,212.359,152.519,210.491,152.512z"/>
	<g>
		<g>
			<path style="fill:#FFFFFF;" d="M112.498,122.605c0,0,7.77-15.693-2.43-20.096c-10.2-4.403-11.288,21.69-5.147,16.816     c2.651-2.104-9.846-13.429-15.691-7.878C83.385,116.999,104.24,137.719,112.498,122.605z"/>
			<path style="fill:#2B2330;" d="M104.252,129.309L104.252,129.309c-6.755,0-14.364-6.418-16.654-12.156     c-1.107-2.772-0.841-5.13,0.746-6.637c2.732-2.591,7.222-2.386,11.752,0.364c0.758-5.231,3.312-10.158,7.739-10.158     c0.884,0,1.808,0.203,2.742,0.608c2.584,1.115,4.369,2.968,5.299,5.504c2.468,6.725-2.032,15.951-2.225,16.34     C110.879,128.252,107.011,129.309,104.252,129.309z M93.21,111.219c-1.261,0-2.273,0.379-3.096,1.16     c-1.042,0.992-0.527,2.82-0.128,3.822c1.946,4.872,8.601,10.537,14.266,10.537c3.001,0,5.396-1.597,7.119-4.749     c0.018-0.04,4.181-8.591,2.089-14.273c-0.688-1.871-1.964-3.189-3.902-4.025c-0.61-0.264-1.19-0.397-1.723-0.397     c-3.044,0-4.975,4.671-5.344,9.289c2.052,1.687,4.066,4.003,4.081,5.906c0.005,0.748-0.296,1.404-0.851,1.843     c-1.497,1.188-3.109,1.15-4.214-0.003c-1.482-1.557-1.672-4.703-1.647-6.526C97.577,112.175,95.126,111.219,93.21,111.219z      M102.557,116.161c0.171,1.225,0.487,2.054,0.814,2.393c0.148,0.095,0.347,0.085,0.753-0.236     C104.066,118.169,103.619,117.313,102.557,116.161z"/>
		</g>
		<g>
			<path style="fill:#FFFFFF;" d="M120.494,129.283c0,0,17.497,0.706,16.47,11.768c-1.027,11.062-24.447-0.495-17.225-3.547     c3.117-1.317,7.064,15.079-0.611,17.547C111.454,157.519,103.272,129.282,120.494,129.283z"/>
			<path style="fill:#2B2330;" d="M118.163,156.49c-5.065,0-9.141-8.751-9.141-15.996c0-3.468,0.881-6.439,2.546-8.586     c1.986-2.559,5.07-3.91,8.922-3.91c0.1,0,10.494,0.427,15.321,5.723c1.881,2.064,2.699,4.57,2.433,7.448     c-0.347,3.724-2.951,5.861-7.147,5.861c-1.898,0-4.098-0.442-6.26-1.243c0.221,4.505-1.065,9.12-5.316,10.487     C119.078,156.417,118.62,156.49,118.163,156.49z M120.441,130.57c-3.458,0-5.977,1.278-7.43,3.797     c-2.539,4.397-1.394,11.637,1.18,16.094c1.446,2.504,3.139,3.817,4.543,3.367c3.237-1.042,3.872-5.482,3.425-9.233     c-1.926-1.012-5.15-3.084-5.085-5.562c0.018-0.678,0.321-1.934,2.165-2.712c0.276-0.116,0.568-0.176,0.864-0.176     c2.313,0,3.774,3.48,4.389,6.727c2.247,0.999,4.676,1.587,6.607,1.587c4.256,0,4.505-2.654,4.585-3.526     c0.196-2.102-0.349-3.855-1.662-5.356C130.039,131.019,120.536,130.572,120.441,130.57z M120.004,138.701     c-0.216,0.178-0.359,0.357-0.362,0.399c-0.008,0.321,0.517,1.087,1.728,1.989C120.85,139.61,120.263,138.814,120.004,138.701z"/>
		</g>
		<path style="fill:#ECD673;" d="M102.864,131.84c0,0-9.242-4.012-14.916,2.311c-5.674,6.323-8.581,15.252-3.186,18.19    c5.394,2.938,15.311,2.643,19.668-4.863C108.787,139.972,105.734,132.698,102.864,131.84z"/>
		<g>
			<path style="fill:#FFFFFF;" d="M94.111,130.779c0,0,9.033,12.704,11.715,13.61"/>
			<path style="fill:#2B2330;" d="M105.826,145.674c-0.136,0-0.276-0.023-0.412-0.068c-2.855-0.964-10.175-11.024-12.35-14.083     c-0.412-0.58-0.276-1.381,0.301-1.793c0.578-0.409,1.381-0.276,1.793,0.301c4.229,5.946,9.668,12.661,11.079,13.138     c0.673,0.229,1.035,0.957,0.806,1.63C106.863,145.335,106.364,145.674,105.826,145.674z"/>
		</g>
		<g>
			<path style="fill:#FFFFFF;" d="M87.647,134.898c0,0,10.993,14.506,14.414,15.63"/>
			<path style="fill:#2B2330;" d="M102.059,151.814c-0.133,0-0.269-0.02-0.402-0.065c-3.619-1.185-13.158-13.598-15.034-16.074     c-0.429-0.565-0.319-1.371,0.249-1.8c0.56-0.427,1.371-0.321,1.8,0.249c4.465,5.891,11.692,14.497,13.789,15.185     c0.673,0.221,1.042,0.947,0.819,1.622C103.104,151.47,102.599,151.814,102.059,151.814z"/>
		</g>
		<path style="fill:#2B2330;" d="M116.732,124.274c-0.417,0-0.824-0.203-1.072-0.575c-0.392-0.59-0.231-1.389,0.359-1.78    c0.321-0.216,7.835-5.366,5.251-14.841c-0.186-0.686,0.216-1.394,0.902-1.58c0.696-0.181,1.394,0.221,1.58,0.901    c3.081,11.303-6.218,17.598-6.313,17.661C117.219,124.206,116.976,124.274,116.732,124.274z"/>
		<g>
			<path style="fill:#FFFFFF;" d="M84.728,141.235c0,0,7.188,11.214,11.378,12.349"/>
			<path style="fill:#2B2330;" d="M96.106,154.87c-0.11,0-0.223-0.015-0.336-0.045c-4.535-1.228-11.36-11.707-12.124-12.897     c-0.384-0.598-0.208-1.391,0.389-1.775c0.59-0.384,1.389-0.213,1.775,0.389c2.677,4.174,7.933,11.069,10.632,11.802     c0.686,0.186,1.09,0.891,0.904,1.577C97.19,154.493,96.673,154.87,96.106,154.87z"/>
		</g>
		<path style="fill:#2B2330;" d="M118.023,127.077c-0.357,0-0.711-0.148-0.964-0.434c-0.47-0.532-0.419-1.346,0.113-1.816    c10.208-8.995,19.009-2.888,19.095-2.825c0.578,0.412,0.711,1.215,0.296,1.793c-0.414,0.58-1.215,0.706-1.788,0.299    c-0.306-0.211-7.28-4.937-15.901,2.662C118.628,126.971,118.324,127.077,118.023,127.077z"/>
	</g>
	<g>
		<g>
			<path style="fill:#FFFFFF;" d="M420.371,330.151c0,0-17.024-4.104-19.06,6.817s23.651,6.208,17.538,1.297     c-2.638-2.119-10.917,12.574-4.21,17.045C421.347,359.783,436.937,334.858,420.371,330.151z"/>
			<path style="fill:#2B2330;" d="M416.44,357.13L416.44,357.13c-0.922,0-1.768-0.254-2.514-0.751     c-3.716-2.476-3.689-7.27-2.247-11.541c-0.585,0.045-1.17,0.068-1.743,0.068c-2.315,0-6.529-0.394-8.721-3.033     c-1.135-1.366-1.539-3.144-1.165-5.14c1.035-5.56,5.811-8.623,13.45-8.623c3.847,0,7.041,0.758,7.174,0.791     c6.112,1.738,9.085,6.346,8.204,12.659C427.823,349.127,421.43,357.13,416.44,357.13z M414.584,344.424     c-1.456,3.485-2.059,7.93,0.768,9.816c0.321,0.213,0.678,0.319,1.087,0.319l0,0c3.357,0,8.967-6.73,9.891-13.357     c0.49-3.518-0.206-8.081-6.31-9.816c0,0.003,0,0.003,0,0.003c-0.005,0-3.008-0.708-6.521-0.708     c-6.441,0-10.117,2.195-10.923,6.524c-0.234,1.256-0.033,2.245,0.615,3.026c1.112,1.338,3.571,2.104,6.745,2.104     c0.939,0,1.921-0.07,2.875-0.208c1.346-2.692,3.395-5.354,5.444-5.354c0.515,0,0.999,0.171,1.401,0.492     c1.559,1.253,1.509,2.541,1.341,3.199C420.382,342.864,416.714,343.977,414.584,344.424z M418.044,339.268     c-0.133,0.088-0.869,0.713-1.758,2.004c1.421-0.537,2.139-1.133,2.22-1.446C418.517,339.786,418.426,339.575,418.044,339.268z"/>
		</g>
		<g>
			<path style="fill:#FFFFFF;" d="M425.114,320.875c0,0-3.184-17.22,7.831-18.666c11.015-1.446,4.928,23.95,0.353,17.582     c-1.975-2.748,13.142-10.226,17.247-3.288C454.65,323.442,428.924,337.67,425.114,320.875z"/>
			<path style="fill:#2B2330;" d="M434.703,330.04c-5.693,0-9.545-3.154-10.843-8.882c-0.09-0.477-1.898-10.584,2.313-16.375     c1.592-2.187,3.812-3.483,6.604-3.85c2.443-0.311,4.364,0.439,5.703,2.124c1.961,2.471,2.232,6.436,1.768,9.929     c1.291-0.359,2.8-0.638,4.372-0.638c3.247,0,5.678,1.21,7.034,3.501c0.645,1.092,1.117,2.913-0.296,5.391     C448.984,325.402,441.561,330.04,434.703,330.04z M433.824,303.434c-0.226,0-0.465,0.018-0.711,0.05     c-2.094,0.274-3.684,1.193-4.859,2.81c-3.571,4.909-1.893,14.253-1.878,14.346c1.027,4.513,3.832,6.828,8.327,6.828     c5.806,0,12.4-3.96,14.422-7.501c0.643-1.13,0.748-2.074,0.314-2.807c-0.879-1.487-2.499-2.24-4.819-2.24     c-1.497,0-3.232,0.334-4.944,0.944c-0.562,2.072-2.037,6.238-4.814,6.24l0,0c-0.678,0-1.68-0.271-2.609-1.562     c-0.412-0.575-0.525-1.288-0.314-2.006c0.535-1.826,3.104-3.503,5.54-4.565c0.653-3.3,0.588-7.297-1.012-9.314     C435.813,303.836,434.949,303.434,433.824,303.434z M436.429,317.409c-1.323,0.834-1.971,1.582-2.024,1.861     c0.226,0.176,0.424,0.264,0.457,0.264C435.115,319.533,435.778,318.878,436.429,317.409z"/>
		</g>
		<path style="fill:#ECD673;" d="M431.508,337.501c0,0-1.868,9.9,5.555,14.035c7.422,4.134,16.773,4.992,18.444-0.919    c1.671-5.911-0.812-15.516-9.095-18.104C438.129,329.925,431.711,334.513,431.508,337.501z"/>
		<g>
			<path style="fill:#FFFFFF;" d="M432.412,346.273c0,0,10.389-11.621,10.68-14.437"/>
			<path style="fill:#2B2330;" d="M432.411,347.558c-0.306,0-0.613-0.108-0.856-0.326c-0.53-0.475-0.575-1.288-0.103-1.816     c4.864-5.439,10.208-12.229,10.361-13.711c0.073-0.708,0.701-1.223,1.409-1.148c0.708,0.07,1.22,0.703,1.148,1.409     c-0.306,3.001-8.498,12.365-10.999,15.162C433.116,347.412,432.762,347.558,432.411,347.558z"/>
		</g>
		<g>
			<path style="fill:#FFFFFF;" d="M437.859,351.665c0,0,11.714-13.931,12.052-17.516"/>
			<path style="fill:#2B2330;" d="M437.86,352.952c-0.294,0-0.585-0.098-0.826-0.301c-0.545-0.457-0.615-1.268-0.158-1.811     c4.756-5.66,11.549-14.615,11.755-16.812c0.065-0.708,0.748-1.195,1.401-1.16c0.708,0.068,1.225,0.696,1.16,1.401     c-0.359,3.794-10.348,15.848-12.347,18.223C438.591,352.796,438.227,352.952,437.86,352.952z"/>
		</g>
		<path style="fill:#2B2330;" d="M419.807,327.222c-0.319,0-0.638-0.116-0.886-0.352c-0.281-0.269-6.966-6.451-15.632-1.836    c-0.628,0.331-1.406,0.1-1.74-0.53c-0.334-0.628-0.095-1.406,0.53-1.74c10.331-5.502,18.535,2.165,18.618,2.245    c0.512,0.492,0.53,1.301,0.04,1.816C420.485,327.089,420.146,327.222,419.807,327.222z"/>
		<g>
			<path style="fill:#FFFFFF;" d="M444.685,353.109c0,0,9.345-9.492,9.524-13.829"/>
			<path style="fill:#2B2330;" d="M444.685,354.395c-0.326,0-0.65-0.123-0.901-0.369c-0.507-0.497-0.512-1.313-0.015-1.818     c3.478-3.536,9.04-10.185,9.156-12.98c0.03-0.713,0.635-1.23,1.338-1.233c0.711,0.03,1.261,0.63,1.233,1.338     c-0.196,4.698-8.902,13.671-9.894,14.678C445.351,354.267,445.017,354.395,444.685,354.395z"/>
		</g>
		<path style="fill:#2B2330;" d="M422.253,325.344c-0.261,0-0.525-0.078-0.753-0.244c-11.034-7.96-7.024-17.894-6.981-17.995    c0.274-0.65,1.025-0.959,1.685-0.686c0.65,0.274,0.959,1.025,0.688,1.677l0,0c-0.136,0.331-3.214,8.186,6.115,14.919    c0.575,0.414,0.706,1.218,0.289,1.795C423.044,325.158,422.65,325.344,422.253,325.344z"/>
	</g>
	<path style="fill:#2B2330;" d="M202.453,435.111c-0.01,0-0.02,0-0.03,0c-0.711-0.018-1.273-0.608-1.256-1.316   c2.531-106.247-55.69-178.437-56.28-179.153c-0.45-0.55-0.369-1.359,0.178-1.811c0.545-0.447,1.356-0.372,1.811,0.178   c0.593,0.723,59.416,73.609,56.862,180.845C203.721,434.556,203.148,435.111,202.453,435.111z"/>
	<path style="fill:#2B2330;" d="M251.309,437.683c-0.532,0-1.032-0.334-1.215-0.866c-46.032-132.98,53.347-224.183,54.356-225.089   c0.527-0.477,1.338-0.434,1.816,0.098c0.475,0.527,0.429,1.341-0.098,1.816c-0.997,0.894-99.105,90.999-53.643,222.337   c0.231,0.67-0.123,1.401-0.796,1.635C251.591,437.66,251.45,437.683,251.309,437.683z"/>
	<path style="fill:#2B2330;" d="M313.021,432.54c-0.643,0-1.2-0.485-1.276-1.14c-0.025-0.226-2.561-22.944-0.648-51.338   c1.77-26.272,7.825-62.939,26.606-88.427c0.422-0.573,1.228-0.693,1.798-0.271s0.693,1.225,0.271,1.798   c-18.404,24.976-24.356,61.111-26.106,87.026c-1.903,28.173,0.608,50.698,0.635,50.921c0.08,0.706-0.427,1.343-1.133,1.424   C313.119,432.537,313.071,432.54,313.021,432.54z"/>
	<g>
		<path style="fill:#D17D92;" d="M107.464,267.097c0,0,24.514,25.748,61.582-6.078c37.482-32.181-15.38-92.245-23.089-91.049    c-7.709,1.196-2.545,25.121-2.545,25.121s-28.356-20.396-26.286-6.033c2.07,14.363,6.06,23.654,6.06,23.654    s-23.408-12.474-24.001-3.067c-0.594,9.408,6.753,22.163,6.753,22.163s-26.574-11.51-24.092,0.421    C84.328,244.16,107.464,267.097,107.464,267.097z"/>
		<path style="fill:#2B2330;" d="M112.97,266.254c-5.655,0-12.046-7.312-12.32-7.629c-0.465-0.537-0.407-1.348,0.131-1.813    c0.537-0.465,1.351-0.407,1.813,0.131c1.667,1.924,6.765,6.883,10.527,6.737c1.11-0.043,2.014-0.557,2.765-1.572    c0.708-0.954,1.115-2.069,1.296-3.247c-2.054-0.977-3.887-2.629-5.143-4.352c-1.901-2.607-2.476-5.314-1.544-7.24    c0.794-1.632,1.984-1.888,2.624-1.893c0.01,0,0.02,0,0.03,0c2.373,0,4.169,3.013,4.834,4.314c1.095,2.15,1.838,4.796,1.876,7.395    c0.545,0.113,1.095,0.136,1.625,0.065c1.795-0.254,3.187-1.703,4.138-4.312c1.248-3.415,1.61-6.742,1.537-9.565    c-1.901-2.134-3.136-4.477-3.192-6.597c-0.038-1.487,0.08-3.076,1.246-3.601c0.623-0.274,1.333-0.133,1.903,0.392    c1.175,1.095,2.318,4.455,2.564,8.734c2.802,2.795,6.989,5.168,10.441,5.406c3.362,0.206,5.419-1.587,6.049-5.404    c0.497-3.018,0.344-5.997-0.178-8.729c-4.656-3.217-8.661-7.86-8.761-11.722c-0.043-1.67,0.404-2.762,1.328-3.252    c0.578-0.306,1.547-0.472,2.858,0.472c2.22,1.597,5.399,6.662,6.848,12.947c2.438,1.577,5.015,2.694,7.149,2.865    c2.381,0.211,3.686-0.783,4.118-3.071c0.344-1.818,0.289-3.739-0.038-5.622c-0.234-0.083-0.462-0.176-0.693-0.271    c-4.42-1.871-7.466-5.753-7.757-9.889c-0.126-1.798,0.294-2.978,1.248-3.511c0.6-0.339,1.612-0.517,3.023,0.497    c2.072,1.494,5.075,5.929,6.381,11.157c3.516,0.839,7.179-0.028,10.08-2.471c7.204-6.064-1.439-17.904-1.527-18.025    c-0.422-0.57-0.304-1.374,0.266-1.798c0.575-0.422,1.374-0.306,1.798,0.264c3.553,4.781,8.362,15.431,1.12,21.528    c-3.244,2.73-7.255,3.852-11.232,3.222c0.213,1.778,0.196,3.604-0.143,5.396c-0.675,3.576-3.159,5.452-6.85,5.158    c-1.903-0.153-4.133-0.939-6.368-2.132c0.284,2.393,0.281,4.897-0.133,7.403c-0.846,5.125-4.015,7.898-8.764,7.551    c-3.448-0.239-7.242-2.054-10.268-4.508c-0.151,2.586-0.648,5.349-1.637,8.058c-1.622,4.445-4.264,5.703-6.195,5.974    c-0.736,0.105-1.472,0.08-2.197-0.04c-0.274,1.436-0.814,2.797-1.69,3.983c-1.23,1.66-2.825,2.536-4.739,2.609    C113.134,266.254,113.053,266.254,112.97,266.254z M113.154,247.945c-0.008,0-0.013,0-0.018,0.003    c-0.025,0.008-0.163,0.108-0.326,0.442c-0.497,1.025,0.015,2.833,1.308,4.605c0.786,1.077,1.878,2.157,3.099,2.951    c-0.274-2.438-1.223-4.814-2.258-6.333C113.995,248.199,113.297,247.945,113.154,247.945z M139.835,220.968    c-0.023,0.161-0.04,0.394-0.033,0.721c0.055,2.2,2.205,5.138,5.09,7.677C143.35,224.906,141.065,221.669,139.835,220.968z     M153.616,214.871c-0.023,0.191-0.035,0.475-0.005,0.881c0.198,2.83,2.147,5.535,5.065,7.152c-0.731-2.172-1.763-4.166-2.87-5.723    C154.856,215.846,154.063,215.147,153.616,214.871z"/>
	</g>
	<path style="fill:#2B2330;" d="M194.683,363.797c-0.449,0-0.889-0.239-1.122-0.66c-0.249-0.442-25.177-44.299-67.108-44.299   c-0.03,0-0.085-0.005-0.085,0c-0.708,0-1.286-0.575-1.286-1.283c0-0.738,0.708-1.296,1.371-1.288   c43.463,0,69.099,45.163,69.353,45.62c0.347,0.62,0.123,1.404-0.497,1.748C195.11,363.744,194.897,363.797,194.683,363.797z"/>
	<g>
		<path style="fill:#B4D5C9;" d="M187.609,333.654c0,0-27.653-69.133,31.604-96.787C248.254,223.315,213.287,277.36,187.609,333.654    z"/>
		<path style="fill:#2B2330;" d="M187.607,334.939c-0.645,0-1.203-0.487-1.276-1.143c-3.948-35.538,11.835-65.631,11.993-65.93    c0.334-0.628,1.117-0.861,1.74-0.53c0.625,0.334,0.864,1.112,0.53,1.74c-0.156,0.294-15.564,29.712-11.707,64.434    c0.078,0.708-0.429,1.343-1.135,1.421C187.702,334.937,187.654,334.939,187.607,334.939z"/>
	</g>
	<g>
		<path style="fill:#B4D5C9;" d="M313.451,410.798c0,0,0.921-84.838,46.564-55.909C376.978,365.64,342.08,372.153,313.451,410.798z"/>
		<path style="fill:#2B2330;" d="M313.453,412.084c-0.043,0-0.085-0.003-0.131-0.008c-0.706-0.068-1.22-0.698-1.15-1.406    c2.772-27.906,24.293-44.538,25.207-45.233c0.568-0.427,1.374-0.316,1.803,0.246c0.429,0.565,0.319,1.374-0.246,1.803    c-0.216,0.163-21.546,16.677-24.207,43.44C314.663,411.589,314.106,412.084,313.453,412.084z"/>
	</g>
	<g>
		<path style="fill:#B4D5C9;" d="M244.88,347.37c0,0-9.84-57.034,39.685-68.471C308.837,273.293,273.509,308.725,244.88,347.37z"/>
		<path style="fill:#2B2330;" d="M244.883,348.655c-0.043,0-0.085-0.003-0.131-0.008c-0.706-0.068-1.22-0.698-1.15-1.406    c2.752-27.746,19.677-48.136,19.848-48.34c0.462-0.54,1.266-0.613,1.811-0.156s0.615,1.268,0.158,1.813    c-0.166,0.196-16.586,20.009-19.26,46.938C246.094,348.16,245.536,348.655,244.883,348.655z"/>
	</g>
	<g>
		<path style="fill:#B4D5C9;" d="M246.594,410.798c0,0-9.84-57.034,39.685-68.471C310.551,336.721,278.373,374.817,246.594,410.798z    "/>
		<path style="fill:#2B2330;" d="M246.596,412.084c-0.043,0-0.085-0.003-0.131-0.008c-0.706-0.068-1.22-0.698-1.15-1.406    c2.755-27.746,19.68-48.136,19.851-48.34c0.46-0.542,1.266-0.615,1.811-0.156c0.545,0.457,0.615,1.268,0.158,1.813    c-0.166,0.196-16.586,20.009-19.263,46.938C247.806,411.589,247.249,412.084,246.596,412.084z"/>
	</g>
	<g>
		<g>
			<path style="fill:#ECD673;" d="M242.434,210.559c0,0-16.692,31.39,25.209,56.514c42.369,25.404,82.671-43.716,79.103-50.654     s-24.64,5.516-24.64,5.516s10.401-33.345-2.574-26.846c-12.975,6.498-20.531,13.218-20.531,13.218s4.446-26.149-4.668-23.742     s-18.897,13.405-18.897,13.405s2.531-28.849-8.006-22.727C256.894,181.364,242.434,210.559,242.434,210.559z"/>
		</g>
		<path style="fill:#2B2330;" d="M309.972,260.978c-1.788,0-3.614-0.462-5.414-1.564c-3.614-2.217-5.944-5.678-6.604-9.64    c-1.62,0.763-3.355,1.323-5.163,1.567c-3.631,0.51-6.18-1.288-7.059-4.874c-0.455-1.853-0.414-4.219,0.013-6.712    c-2.182,1.022-4.558,1.811-7.069,2.21c-5.108,0.814-8.749-1.343-9.929-5.931c-0.864-3.347-0.337-7.521,1.037-11.167    c-2.504,0.673-5.276,1.077-8.166,0.992c-4.731-0.136-6.758-2.247-7.624-3.993c-0.329-0.663-0.542-1.369-0.655-2.097    c-1.449,0.188-2.913,0.11-4.312-0.347c-1.964-0.643-3.3-1.878-3.975-3.671c-2.009-5.356,3.054-13.967,3.27-14.331    c0.364-0.613,1.153-0.811,1.76-0.447c0.61,0.362,0.811,1.15,0.449,1.763c-1.298,2.187-4.382,8.628-3.071,12.111    c0.392,1.042,1.165,1.738,2.366,2.129c1.125,0.369,2.313,0.399,3.49,0.193c0.281-2.255,1.268-4.51,2.506-6.243    c1.876-2.624,4.292-4.028,6.383-3.752c1.8,0.236,2.418,1.286,2.627,1.891c0.776,2.26-1.532,4.932-2.559,5.974    c-1.695,1.723-3.973,3.262-6.429,4.118c0.065,0.552,0.211,1.08,0.452,1.562c0.806,1.625,2.622,2.486,5.396,2.566    c3.634,0.128,6.908-0.6,9.567-1.564c1.424-2.476,3.257-4.387,5.248-5.108c1.399-0.505,2.943-0.894,3.809,0.045    c0.462,0.502,0.547,1.223,0.229,1.926c-0.665,1.461-3.493,3.606-7.476,5.191c-1.768,3.543-2.697,8.264-1.833,11.617    c0.844,3.285,3.209,4.646,7.036,4.03c3.018-0.48,5.798-1.564,8.224-2.923c1.582-5.434,4.726-10.7,8.357-12.013    c1.569-0.562,2.752-0.49,3.503,0.236c0.475,0.452,0.939,1.316,0.457,2.86c-0.816,2.609-4.615,7.225-10.122,10.584    c-0.728,2.81-0.974,5.605-0.465,7.687c0.568,2.318,1.921,3.244,4.216,2.941c1.833-0.249,3.639-0.907,5.321-1.811    c0.008-0.246,0.02-0.495,0.04-0.743c0.379-4.784,3.101-8.9,6.933-10.484c1.665-0.688,2.92-0.663,3.729,0.075    c0.505,0.465,0.999,1.366,0.48,3.026c-0.763,2.438-4.023,6.69-8.571,9.578c0.316,3.611,2.295,6.805,5.527,8.784    c8.028,4.934,16.533-7.016,16.619-7.137c0.412-0.588,1.215-0.721,1.79-0.319c0.583,0.407,0.726,1.21,0.319,1.79    C321.981,255.348,316.202,260.978,309.972,260.978z M306.56,237.861c-0.186,0.038-0.46,0.116-0.839,0.271    c-2.622,1.085-4.575,3.789-5.188,7.071c1.833-1.384,3.4-2.991,4.528-4.535C306.027,239.345,306.439,238.373,306.56,237.861z     M296.425,226.709c-0.161,0.03-0.389,0.085-0.696,0.198c-2.069,0.746-4.179,3.711-5.678,7.25    C293.796,231.289,296.148,228.1,296.425,226.709z M261.658,209.711c-1.107,0-2.549,1.035-3.744,2.71    c-0.771,1.082-1.446,2.451-1.816,3.855c2.185-1.012,4.106-2.609,5.218-4.028c1.155-1.477,1.133-2.268,1.08-2.353    c0,0-0.105-0.113-0.522-0.168C261.803,209.716,261.731,209.711,261.658,209.711z"/>
	</g>
	<g>
		<path style="fill:#D17D92;" d="M299.912,305.987c0,0-1.826,24.083,31.097,28.29c33.291,4.253,39.519-49.746,35.407-53.09    c-4.112-3.344-13.827,10.152-13.827,10.152s-2.622-23.584-8.923-16.002c-6.301,7.582-9.17,13.823-9.17,13.823    s-4.364-17.483-9.379-13.5c-5.014,3.983-8.103,13.494-8.103,13.494s-6.292-18.641-11.179-11.958    C300.948,283.878,299.912,305.987,299.912,305.987z"/>
		<path style="fill:#2B2330;" d="M352.996,319.935c-0.374,0-0.761-0.028-1.163-0.083c-2.785-0.384-5.153-1.798-6.72-3.935    c-0.743,0.783-1.585,1.489-2.531,2.067c-2.315,1.406-4.598,0.967-6.263-1.21c-0.708-0.924-1.286-2.177-1.71-3.591    c-0.982,1.042-2.099,2.001-3.357,2.81c-3.167,2.039-6.213,1.642-8.345-1.075c-1.354-1.725-2.165-4.211-2.408-6.697    c-1.266,0.939-2.715,1.788-4.322,2.438c-3.177,1.283-5.153,0.449-6.253-0.472c-0.319-0.266-0.598-0.568-0.841-0.899    c-0.806,0.439-1.682,0.736-2.612,0.826c-1.512,0.146-2.823-0.309-3.809-1.323c-2.8-2.873-2.079-9.409-1.989-10.145    c0.088-0.706,0.703-1.22,1.434-1.117c0.703,0.088,1.205,0.728,1.117,1.434c-0.284,2.308-0.186,6.531,1.281,8.036    c0.439,0.449,0.999,0.623,1.715,0.555c0.603-0.058,1.208-0.266,1.79-0.605c-0.377-1.474-0.362-3.089-0.073-4.467    c0.49-2.33,1.67-3.93,3.239-4.387c1.401-0.402,2.207,0.188,2.566,0.578c0.884,0.959,0.929,2.725,0.121,4.841    c-0.568,1.484-1.509,3.011-2.732,4.226c0.131,0.178,0.279,0.339,0.442,0.475c0.821,0.688,2.047,0.706,3.639,0.06    c2.192-0.886,3.965-2.157,5.314-3.423c0.239-1.956,0.886-3.671,1.954-4.686c0.831-0.791,1.823-1.534,2.833-1.09    c0.583,0.254,0.924,0.824,0.914,1.519c-0.015,1.165-1.173,3.32-3.229,5.442c-0.103,2.499,0.505,5.474,1.934,7.295    c1.303,1.662,2.873,1.823,4.929,0.497c1.655-1.062,3.011-2.401,4.096-3.809c-0.485-3.887,0.09-8.061,2.087-9.957    c0.949-0.896,1.843-1.198,2.672-0.899c0.432,0.158,1.18,0.628,1.331,1.999c0.208,1.876-0.889,5.818-3.385,9.465    c0.311,1.833,0.884,3.518,1.7,4.585c0.851,1.112,1.71,1.288,2.883,0.578c0.994-0.608,1.848-1.401,2.566-2.28    c-0.035-0.093-0.07-0.188-0.103-0.281c-1.12-3.227-0.512-6.697,1.547-8.839c0.972-1.009,1.906-1.374,2.77-1.072    c0.455,0.156,1.241,0.633,1.401,2.097c0.198,1.795-0.625,5.301-2.637,8.375c1.14,1.919,3.071,3.197,5.396,3.518    c6.002,0.834,7.918-8.553,7.935-8.648c0.141-0.701,0.831-1.15,1.512-1.009c0.698,0.138,1.148,0.816,1.009,1.512    C362.548,309.622,360.401,319.935,352.996,319.935z M346.889,306.418c-0.846,1.025-1.248,2.451-1.158,3.963    C346.434,308.843,346.806,307.377,346.889,306.418z M337.474,302.329c-0.525,0.761-0.856,1.969-0.999,3.36    C337.04,304.351,337.364,303.161,337.474,302.329z M311.868,300.604c-0.578,0.274-1.133,1.072-1.411,2.403    c-0.118,0.552-0.173,1.155-0.158,1.758c0.211-0.304,0.414-0.625,0.603-0.969C311.718,302.319,311.906,301.124,311.868,300.604z"/>
	</g>
	<g>
		<path style="fill:#ECD673;" d="M206.826,330.879c0,0-0.371,24.15,32.746,26.364c33.487,2.238,36.448-52.038,32.141-55.128    s-13.19,10.967-13.19,10.967s-4.039-23.383-9.871-15.435c-5.833,7.948-8.32,14.351-8.32,14.351s-5.411-17.188-10.176-12.91    c-4.765,4.278-7.274,13.958-7.274,13.958s-7.405-18.227-11.88-11.263S206.826,330.879,206.826,330.879z"/>
		<path style="fill:#2B2330;" d="M260.164,341.614c-0.221,0-0.444-0.008-0.673-0.028c-2.805-0.213-5.253-1.482-6.946-3.521    c-0.696,0.826-1.494,1.582-2.406,2.215c-2.217,1.544-4.523,1.246-6.323-0.829c-0.761-0.881-1.414-2.097-1.921-3.483    c-0.919,1.1-1.976,2.124-3.184,3.006c-3.038,2.222-6.105,2.016-8.392-0.57c-1.456-1.64-2.416-4.071-2.807-6.537    c-1.205,1.012-2.602,1.946-4.169,2.692c-3.089,1.474-5.115,0.758-6.27-0.093c-0.334-0.246-0.63-0.532-0.894-0.846    c-0.778,0.487-1.635,0.834-2.559,0.982c-1.489,0.239-2.838-0.141-3.88-1.092c-2.968-2.699-2.644-9.269-2.597-10.007    c0.045-0.708,0.658-1.286,1.364-1.203c0.708,0.045,1.246,0.655,1.203,1.364c-0.143,2.323,0.208,6.534,1.76,7.945    c0.467,0.424,1.014,0.568,1.748,0.452c0.598-0.093,1.188-0.339,1.75-0.713c-0.465-1.449-0.547-3.061-0.342-4.452    c0.349-2.358,1.429-4.025,2.968-4.575c1.369-0.485,2.215,0.053,2.597,0.422c0.942,0.904,1.09,2.664,0.412,4.826    c-0.477,1.514-1.323,3.094-2.471,4.379c0.141,0.171,0.296,0.324,0.47,0.449c0.854,0.638,2.082,0.583,3.636-0.158    c2.132-1.017,3.829-2.393,5.098-3.739c0.121-1.969,0.663-3.716,1.67-4.794c0.781-0.836,1.72-1.64,2.76-1.261    c0.595,0.221,0.972,0.766,1.004,1.464c0.053,1.163-0.972,3.383-2.895,5.622c0.045,2.501,0.834,5.437,2.368,7.167    c1.399,1.577,2.978,1.647,4.952,0.201c1.587-1.163,2.86-2.579,3.857-4.05c-0.718-3.852-0.394-8.051,1.487-10.065    c0.886-0.954,1.76-1.306,2.609-1.06c0.439,0.133,1.215,0.555,1.449,1.914c0.319,1.861-0.535,5.861-2.807,9.653    c0.419,1.813,1.092,3.46,1.971,4.475c0.922,1.062,1.785,1.183,2.913,0.404c0.957-0.668,1.76-1.512,2.426-2.431    c-0.043-0.093-0.083-0.183-0.121-0.279c-1.313-3.151-0.914-6.652,1.012-8.912c0.909-1.067,1.826-1.482,2.699-1.238    c0.462,0.128,1.276,0.557,1.524,2.009c0.306,1.78-0.304,5.329-2.127,8.518c1.256,1.846,3.259,3.006,5.6,3.184    c5.992,0.555,7.385-9.013,7.398-9.108c0.1-0.703,0.763-1.183,1.449-1.097c0.703,0.098,1.195,0.746,1.097,1.449    C269.565,330.74,267.978,341.614,260.164,341.614z M253.743,328.478c-0.783,1.072-1.097,2.519-0.914,4.023    C253.434,330.924,253.718,329.44,253.743,328.478z M218.436,324.784c-0.562,0.306-1.067,1.14-1.266,2.486    c-0.083,0.557-0.1,1.163-0.053,1.76c0.196-0.314,0.379-0.65,0.547-1.002C218.388,326.504,218.504,325.301,218.436,324.784z     M244.1,324.965c-0.477,0.794-0.733,2.011-0.794,3.405C243.789,327.006,244.037,325.801,244.1,324.965z"/>
	</g>
	<path style="fill:#2B2330;" d="M451.244,512c-0.462,0-0.922-0.008-1.376-0.025c-0.711-0.03-1.263-0.628-1.236-1.336   c0.03-0.708,0.638-1.258,1.336-1.235c1.65,0.068,3.31,0.005,4.954-0.163c0.65-0.073,1.336,0.442,1.406,1.15   c0.073,0.706-0.442,1.336-1.15,1.406C453.876,511.93,452.553,511.997,451.244,512z M444.813,511.415   c-0.078,0-0.158-0.008-0.236-0.023c-1.74-0.321-3.473-0.781-5.153-1.364c-0.67-0.234-1.025-0.967-0.794-1.637   c0.236-0.673,0.967-1.02,1.637-0.794c1.559,0.542,3.164,0.969,4.776,1.268c0.698,0.128,1.16,0.799,1.03,1.497   C445.961,510.983,445.421,511.415,444.813,511.415z M460.119,510.958c-0.588,0-1.117-0.402-1.253-0.999   c-0.158-0.691,0.274-1.381,0.967-1.539c1.582-0.364,3.192-0.836,4.789-1.406c0.67-0.231,1.404,0.108,1.642,0.778   c0.239,0.668-0.108,1.404-0.778,1.642c-1.69,0.605-3.398,1.107-5.08,1.492C460.31,510.948,460.212,510.958,460.119,510.958z    M435.125,508.065c-0.193,0-0.389-0.043-0.573-0.133c-1.625-0.809-3.172-1.662-4.6-2.541c-0.605-0.372-0.794-1.163-0.422-1.768   c0.369-0.608,1.163-0.799,1.768-0.422c1.364,0.836,2.843,1.655,4.4,2.426c0.635,0.316,0.894,1.09,0.58,1.725   C436.052,507.804,435.597,508.065,435.125,508.065z M469.799,507.523c-0.477,0-0.934-0.266-1.158-0.726   c-0.309-0.638-0.043-1.406,0.598-1.718c1.504-0.728,2.988-1.537,4.41-2.401c0.6-0.372,1.396-0.183,1.765,0.429   c0.369,0.605,0.178,1.396-0.429,1.765c-1.489,0.909-3.046,1.755-4.626,2.521C470.178,507.482,469.988,507.523,469.799,507.523z    M426.402,502.661c-0.279,0-0.557-0.088-0.791-0.271c-1.441-1.125-2.772-2.318-3.96-3.546c-0.495-0.51-0.48-1.323,0.03-1.818   c0.51-0.492,1.328-0.48,1.818,0.03c1.105,1.143,2.348,2.255,3.694,3.305c0.56,0.437,0.66,1.246,0.223,1.806   C427.162,502.49,426.783,502.661,426.402,502.661z M478.578,502.184c-0.392,0-0.778-0.178-1.032-0.517   c-0.424-0.57-0.306-1.376,0.264-1.8c1.328-0.989,2.637-2.062,3.89-3.184c0.527-0.477,1.338-0.434,1.816,0.098   c0.475,0.527,0.429,1.341-0.098,1.816c-1.311,1.175-2.679,2.298-4.071,3.335C479.116,502.101,478.847,502.184,478.578,502.184z    M486.22,495.316c-0.314,0-0.628-0.113-0.876-0.344c-0.52-0.485-0.547-1.298-0.065-1.818c1.133-1.218,2.222-2.506,3.239-3.832   c0.429-0.568,1.236-0.676,1.801-0.239c0.565,0.429,0.67,1.238,0.239,1.801c-1.065,1.391-2.207,2.745-3.395,4.023   C486.908,495.178,486.564,495.316,486.22,495.316z M419.323,495.266c-0.409,0-0.814-0.196-1.062-0.562   c-1.032-1.514-1.901-3.104-2.586-4.726c-0.276-0.655,0.033-1.409,0.686-1.685c0.653-0.269,1.409,0.028,1.685,0.686   c0.618,1.467,1.404,2.905,2.34,4.279c0.399,0.585,0.249,1.386-0.339,1.785C419.825,495.193,419.574,495.266,419.323,495.266z    M492.455,487.155c-0.231,0-0.465-0.063-0.676-0.193c-0.605-0.372-0.791-1.165-0.417-1.768c0.884-1.431,1.685-2.908,2.386-4.389   c0.304-0.643,1.07-0.912,1.713-0.613c0.64,0.304,0.917,1.07,0.613,1.713c-0.741,1.567-1.59,3.129-2.526,4.641   C493.306,486.939,492.884,487.155,492.455,487.155z M415.378,485.849c-0.608,0-1.148-0.432-1.261-1.052   c-0.276-1.487-0.417-3.011-0.417-4.53c0-0.299,0.005-0.588,0.015-0.869c0.028-0.708,0.693-1.238,1.333-1.238   c0.711,0.028,1.263,0.625,1.238,1.333c-0.01,0.251-0.015,0.51-0.015,0.773c0,1.361,0.126,2.727,0.372,4.063   c0.131,0.698-0.331,1.369-1.03,1.497C415.536,485.841,415.455,485.849,415.378,485.849z M496.819,477.871   c-0.133,0-0.269-0.02-0.402-0.065c-0.676-0.221-1.042-0.947-0.819-1.622c0.525-1.595,0.932-3.212,1.213-4.804   c0.123-0.698,0.799-1.18,1.489-1.042c0.698,0.123,1.165,0.788,1.042,1.489c-0.301,1.713-0.738,3.448-1.303,5.16   C497.864,477.527,497.359,477.871,496.819,477.871z M415.762,475.654c-0.116,0-0.234-0.015-0.352-0.05   c-0.683-0.193-1.08-0.904-0.884-1.587c0.286-1.009,0.512-1.808,1.519-1.808c0.711,0,1.286,0.575,1.286,1.286   c0,0.183-0.038,0.357-0.105,0.512c-0.035,0.09-0.121,0.336-0.229,0.713C416.837,475.285,416.322,475.654,415.762,475.654z    M498.557,467.776c-0.013,0-0.023,0-0.035,0c-0.711-0.02-1.271-0.613-1.251-1.321c0.003-1.461-0.083-2.694-0.249-3.902   c-0.045-0.337-0.093-0.66-0.146-0.979c-0.111-0.701,0.367-1.361,1.067-1.474c0.681-0.11,1.361,0.367,1.474,1.067   c0.053,0.339,0.105,0.688,0.153,1.042c0.181,1.316,0.274,2.667,0.274,4.01l-0.003,0.306   C499.822,467.224,499.25,467.776,498.557,467.776z M482.104,458.678c-1.087,0-2.042-0.465-2.692-1.306   c-0.434-0.562-0.331-1.369,0.231-1.803c0.555-0.434,1.366-0.337,1.803,0.231c0.166,0.216,0.362,0.306,0.653,0.306   c0.321,0,1.035-0.126,2.157-0.954c0.568-0.417,1.376-0.301,1.798,0.271s0.301,1.376-0.271,1.798   C484.477,458.184,483.239,458.676,482.104,458.678z M497.088,457.629c-0.565,0-1.085-0.374-1.241-0.947   c-0.472-1.73-1.042-3.272-1.693-4.58c-0.314-0.638-0.055-1.409,0.58-1.725c0.638-0.311,1.406-0.058,1.725,0.58   c0.723,1.459,1.351,3.156,1.868,5.047c0.186,0.686-0.216,1.391-0.902,1.579C497.314,457.614,497.198,457.629,497.088,457.629z    M488.527,453.744c-0.261,0-0.522-0.078-0.751-0.241c-0.578-0.414-0.708-1.218-0.294-1.795c0.891-1.238,1.74-2.662,2.524-4.236   c0.01-0.023,0.023-0.043,0.033-0.065c-0.728-0.362-1.489-0.542-2.273-0.542c-0.711,0-1.356-0.575-1.356-1.283   c0-0.711,0.505-1.286,1.215-1.286v1.286l0.073-1.286c0.003,0,0.005,0,0.008,0c1.986,0,3.847,0.741,5.442,2.139   c0.535,0.467,0.588,1.281,0.121,1.813c-0.261,0.299-0.721,0.465-0.994,0.439c-0.836,1.67-1.745,3.192-2.702,4.523   C489.321,453.558,488.927,453.744,488.527,453.744z M480.057,452.923c-0.133,0-0.271-0.02-0.404-0.065   c-0.676-0.223-1.04-0.952-0.816-1.625c0.598-1.803,1.763-3.493,3.285-4.764c0.542-0.455,1.354-0.384,1.811,0.163   c0.454,0.545,0.382,1.356-0.163,1.811c-1.158,0.967-2.042,2.245-2.491,3.598C481.099,452.581,480.597,452.923,480.057,452.923z    M493.165,444.598c-0.143,0-0.291-0.025-0.434-0.075c-0.668-0.241-1.014-0.977-0.776-1.645c0.552-1.537,1.045-3.151,1.467-4.801   c0.176-0.686,0.874-1.1,1.564-0.927c0.688,0.176,1.102,0.876,0.927,1.564c-0.442,1.725-0.959,3.42-1.537,5.032   C494.187,444.272,493.693,444.598,493.165,444.598z M495.739,434.652c-0.073,0-0.146-0.005-0.221-0.018   c-0.701-0.121-1.17-0.786-1.05-1.487c0.279-1.617,0.505-3.3,0.673-5.002c0.073-0.708,0.711-1.183,1.406-1.155   c0.708,0.07,1.223,0.701,1.155,1.406c-0.176,1.765-0.409,3.511-0.698,5.188C496.897,434.21,496.352,434.652,495.739,434.652z    M496.761,424.429c-0.015,0-0.03,0-0.045,0c-0.711-0.025-1.266-0.623-1.241-1.331c0.035-0.967,0.053-1.951,0.053-2.956   c0-0.711-0.018-1.404-0.05-2.077c-0.038-0.711,0.51-1.313,1.218-1.348c0.786-0.078,1.313,0.512,1.349,1.218   c0.038,0.718,0.055,1.451,0.055,2.207c0,1.035-0.018,2.049-0.053,3.046C498.022,423.884,497.452,424.429,496.761,424.429z    M496.156,414.191c-0.6,0-1.138-0.424-1.258-1.037c-0.331-1.68-0.788-3.262-1.364-4.703c-0.261-0.658,0.06-1.406,0.721-1.67   c0.653-0.259,1.406,0.06,1.67,0.721c0.63,1.587,1.135,3.322,1.494,5.155c0.138,0.698-0.316,1.374-1.012,1.509   C496.322,414.183,496.239,414.191,496.156,414.191z M470.613,408.639c-0.507,0-0.987-0.301-1.19-0.801   c-0.269-0.658,0.048-1.409,0.706-1.675c1.17-0.477,2.448-1.449,3.598-2.737c0.472-0.527,1.286-0.575,1.816-0.103   c0.53,0.472,0.575,1.286,0.103,1.816c-1.426,1.597-2.998,2.775-4.548,3.405C470.939,408.609,470.773,408.639,470.613,408.639z    M466.15,407.486c-0.472,0-0.929-0.264-1.153-0.716c-0.404-0.819-0.61-1.831-0.613-3.011c0-0.246,0.005-0.497,0.028-0.758   c0.053-0.786,0.234-1.564,0.54-2.303c0.274-0.658,1.03-0.969,1.68-0.696c0.655,0.271,0.967,1.025,0.696,1.68   c-0.198,0.48-0.316,0.984-0.352,1.502c-0.015,0.208-0.02,0.394-0.02,0.573c0.003,0.768,0.121,1.419,0.347,1.873   c0.314,0.638,0.053,1.409-0.583,1.723C466.537,407.443,466.344,407.486,466.15,407.486z M492.312,404.741   c-0.404,0-0.804-0.191-1.052-0.547c-0.932-1.331-2.021-2.511-3.239-3.511c-0.547-0.452-0.628-1.261-0.178-1.811   c0.457-0.547,1.266-0.625,1.811-0.178c1.399,1.15,2.649,2.504,3.711,4.023c0.409,0.583,0.266,1.384-0.314,1.79   C492.824,404.666,492.568,404.741,492.312,404.741z M477.531,401.301c-0.193,0-0.389-0.043-0.573-0.136   c-0.635-0.314-0.894-1.087-0.578-1.723c0.703-1.414,1.263-2.948,1.665-4.558c0.171-0.688,0.864-1.11,1.559-0.937   c0.336,0.085,0.61,0.294,0.781,0.568c1.574,0.259,3.111,0.703,4.575,1.328c0.653,0.279,0.957,1.035,0.678,1.687   c-0.279,0.65-1.032,0.957-1.688,0.678c-1.235-0.527-2.529-0.906-3.855-1.135c-0.389,1.225-0.861,2.401-1.416,3.513   C478.458,401.04,478.003,401.301,477.531,401.301z M469.558,398.76c-0.437,0-0.864-0.223-1.105-0.628   c-0.364-0.61-0.163-1.399,0.447-1.763c1.497-0.894,3.32-1.537,5.271-1.863c0.683-0.128,1.361,0.354,1.479,1.057   c0.118,0.701-0.357,1.361-1.057,1.479c-1.637,0.274-3.149,0.806-4.377,1.537C470.01,398.702,469.784,398.76,469.558,398.76z    M480.055,391.405c-0.025,0-0.05,0-0.075-0.003c-0.708-0.04-1.251-0.65-1.208-1.359c0.03-0.53,0.048-1.07,0.048-1.62   c-0.003-1.087-0.065-2.2-0.183-3.302c-0.075-0.706,0.434-1.341,1.14-1.416c0.696-0.07,1.341,0.434,1.416,1.14   c0.128,1.193,0.196,2.396,0.198,3.576c0,0.603-0.018,1.193-0.053,1.773C481.298,390.877,480.73,391.405,480.055,391.405z    M479.02,381.215c-0.58,0-1.105-0.394-1.248-0.982c-0.407-1.66-0.924-3.229-1.542-4.666c-0.281-0.65,0.02-1.409,0.673-1.688   c0.648-0.286,1.406,0.018,1.688,0.673c0.676,1.564,1.238,3.272,1.677,5.073c0.168,0.688-0.254,1.384-0.944,1.552   C479.224,381.202,479.121,381.215,479.02,381.215z M474.907,371.873c-0.399,0-0.794-0.186-1.045-0.535   c-0.957-1.333-2.059-2.506-3.272-3.485c-0.552-0.444-0.638-1.256-0.191-1.808c0.444-0.552,1.256-0.638,1.808-0.191   c1.391,1.122,2.649,2.463,3.744,3.983c0.414,0.578,0.284,1.379-0.294,1.795C475.432,371.795,475.168,371.873,474.907,371.873z    M466.987,365.527c-0.161,0-0.326-0.03-0.485-0.095c-2.541-1.035-4.5-1.06-4.52-1.06c-0.708-0.005-1.281-0.583-1.278-1.291   c0.003-0.708,0.575-1.281,1.283-1.281c0.098,0,2.448,0.015,5.484,1.251c0.658,0.266,0.974,1.017,0.706,1.675   C467.974,365.226,467.494,365.527,466.987,365.527z"/>
	<g>
		<path style="fill:#D17D92;" d="M391.214,68.365c61.041,45.446,83.876,144.366,89.941,177.17l15.531-2.844    c0,0-26.12-330.814-315.067-168.082l5.888,14.966C207.925,77.29,319.325,14.844,391.214,68.365z"/>
		<path style="fill:#9D7F95;" d="M351.49,109.268c-62.426-32.097-133.829-0.329-152.615,9.203l1.223,3.11    c0,0,174.428-70.616,220.877,134.972l10.21-1.869C425.836,219.401,407.662,138.149,351.49,109.268z"/>
		<path style="fill:#B4D5C9;" d="M373.837,88.63c-63.238-47.411-153.701,2.108-179.567,18.134l4.605,11.707    c17.682-14.055,89.095-38.085,151.945-6.828c62.954,31.309,71.991,109.075,77.341,144.357l29.43-6.151    C453.626,217.463,437.537,136.388,373.837,88.63z"/>
		<path style="fill:#ECD673;" d="M396.4,69.461c-93.733-58.573-188.474,7.829-208.893,20.114l5.126,22.068    c25.866-16.026,116.512-64.43,180.256-21.558c54.371,36.568,78.213,128.664,82.178,161.049l26.088-5.6    C475.089,212.731,454.55,105.799,396.4,69.461z"/>
		<path style="fill:#2B2330;" d="M477.641,234.719c-0.645,0-1.2-0.485-1.276-1.143c-0.158-1.414-16.923-141.732-102.711-174.941    C287.794,25.398,220.272,74.9,219.599,75.407c-0.565,0.424-1.374,0.311-1.8-0.259c-0.424-0.568-0.309-1.374,0.259-1.8    c0.683-0.512,69.35-50.858,156.527-17.108c87.242,33.77,104.177,175.622,104.338,177.051c0.078,0.706-0.429,1.341-1.135,1.421    C477.739,234.717,477.689,234.719,477.641,234.719z"/>
		<path style="fill:#2B2330;" d="M457.59,251.135c-0.593,0-1.125-0.409-1.256-1.012c-0.269-1.23-27.58-123.611-86.662-160.538    c-58.939-36.836-139.102,3.41-139.906,3.819c-0.623,0.321-1.404,0.075-1.73-0.56c-0.324-0.633-0.073-1.406,0.56-1.73    c0.816-0.419,82.288-41.306,142.437-3.709c60.001,37.499,87.541,160.927,87.812,162.17c0.153,0.693-0.289,1.379-0.982,1.529    C457.771,251.125,457.68,251.135,457.59,251.135z"/>
		<path style="fill:#2B2330;" d="M425.879,243.189c-0.64,0-1.195-0.48-1.273-1.133c-7.154-59.793-29.18-101.737-65.466-124.666    c-57.395-36.266-131.629-11.928-132.373-11.677c-0.673,0.223-1.401-0.136-1.627-0.809c-0.226-0.673,0.136-1.401,0.809-1.627    c0.751-0.254,76.105-24.988,134.55,11.928c36.982,23.361,59.409,65.938,66.658,126.544c0.085,0.706-0.417,1.346-1.122,1.429    C425.982,243.187,425.932,243.189,425.879,243.189z"/>
		<g>
			<path style="fill:#FFFFFF;" d="M175.329,74.03c0,0-4.633-23.384,18.562-17.222s17.196,28.234,8.063,21.405     c-9.133-6.829,5.484-32.942,23.578-22.906s15.61,31.941,3.391,34.336c-12.219,2.395,5.828-25.695,22.422-10.142     s-15.343,47.935-29.921,37.733s-4.891-28.818-0.86-18.116s-4.242,21.989-28.851,23.157c-24.609,1.168-15.868-37.376-6.563-26.923     s-4.156,23.801-22.336,11.954S162.681,67.367,175.329,74.03z"/>
			<path style="fill:#2B2330;" d="M190.628,123.586c-9.841,0-13.643-6.13-15.094-10.379c-4.279-0.218-8.897-1.876-13.42-4.824     c-7.159-4.666-9.909-12.583-7.355-21.182c2.579-8.673,9.829-15.469,16.506-15.469c0.859,0,1.695,0.108,2.509,0.319     c-0.286-3.234-0.261-9.276,3.119-13.392c3.415-4.161,9.289-5.226,17.329-3.096c3.287,0.874,6.182,2.104,8.628,3.666     c6.017-7.408,15.147-9.575,23.306-5.047c7.827,4.342,12.837,11.496,13.62,19.336c4.319-0.218,8.631,1.464,12.448,5.042     c5.286,4.954,6.486,12.011,3.38,19.871c-4.643,11.74-17.565,22.038-27.653,22.038c-2.75,0-5.193-0.736-7.265-2.185     c-1.203-0.841-2.295-1.773-3.259-2.775c-5.321,4.728-14.148,7.503-25.654,8.048c-0.387,0.02-0.771,0.028-1.143,0.028H190.628z      M178.248,113.147c1.547,3.887,4.944,7.867,12.38,7.867h0.003c0.331,0,0.675-0.008,1.022-0.023     c13.54-0.643,20.541-4.249,24.12-7.451c-4.013-5.484-4.043-11.858-2.27-15.647c0.974-2.082,2.443-3.277,4.033-3.277     c1.235,0,2.973,0.703,4.231,4.048c2.044,5.424,1.14,10.713-2.534,15.012c0.859,0.901,1.841,1.74,2.931,2.501     c1.63,1.143,3.576,1.72,5.786,1.72c9,0,21.038-9.731,25.262-20.413c1.906-4.816,2.976-11.684-2.745-17.046     c-3.302-3.096-6.911-4.58-10.587-4.349c-0.153,7.576-4.44,13.585-10.708,14.813c-0.598,0.118-1.135,0.171-1.612,0.171l0,0     c-2.27,0-3.774-1.281-3.925-3.347c-0.316-4.334,5.69-12.069,13.593-13.851c-0.668-7.039-5.206-13.497-12.317-17.442     c-7.046-3.91-14.718-2.064-19.971,4.302c5.949,4.821,7.3,11.129,5.916,15.436c-1.424,4.432-5.801,5.961-9.673,3.071     c-4.967-3.716-3.837-11.775,0.151-17.93c-2.192-1.379-4.801-2.473-7.769-3.262c-6.946-1.846-11.946-1.095-14.685,2.242     c-3.95,4.809-2.305,13.399-2.288,13.485c0.098,0.487-0.095,0.984-0.492,1.281c-0.397,0.301-0.932,0.342-1.369,0.108     c-1.082-0.57-2.247-0.861-3.465-0.861c-5.509,0-11.807,6.115-14.04,13.63c-1.062,3.576-2.576,12.516,6.293,18.294     c3.847,2.506,7.724,3.993,11.32,4.349c-1.092-5.627-0.02-12.144,2.72-15.78c2.418-3.204,5.828-3.37,8.553-0.301     c3.28,3.684,4.219,8.156,2.511,11.961C186.944,110.194,183.054,112.665,178.248,113.147z M217.535,97.189     c-0.429,0-1.122,0.555-1.703,1.795c-1.416,3.026-1.386,8.114,1.743,12.659c2.78-3.498,3.42-7.732,1.785-12.071     C218.697,97.814,217.961,97.189,217.535,97.189z M181.891,94.838c-0.944,0-1.76,0.819-2.28,1.507     c-2.107,2.795-3.398,8.764-2.137,14.286c4.133-0.269,7.451-2.22,8.799-5.226c1.301-2.898,0.542-6.25-2.082-9.201     C183.634,95.582,182.785,94.838,181.891,94.838z M237.292,76.505c-6.516,1.72-11.308,8.078-11.094,11.036     c0.03,0.384,0.07,0.962,1.359,0.962c0.003,0,0.003,0,0.003,0c0.331,0,0.703-0.04,1.115-0.121     C233.603,87.415,237.006,82.632,237.292,76.505z M203.422,62.819c-3.217,5.037-4.372,11.619-0.698,14.364     c2.448,1.833,4.776,1.03,5.683-1.798C209.474,72.065,208.311,66.857,203.422,62.819z"/>
		</g>
		<g>
			<path style="fill:#FFFFFF;" d="M428.632,230.857c0,0-5.018-20.992,16.186-16.237c21.203,4.756,16.555,24.937,8.051,19.081     c-8.504-5.856,3.798-29.997,20.523-21.557s15.251,28.347,4.281,30.946c-10.97,2.599,4.365-23.454,19.928-9.968     c15.563,13.486-12.188,43.911-25.738,35.195s-5.443-25.9-1.418-16.36s-3.061,20.044-25.285,21.97s-15.676-33.255-6.889-24.127     s-2.919,21.68-19.786,11.604C401.618,251.328,416.953,225.276,428.632,230.857z"/>
			<path style="fill:#2B2330;" d="M443.437,275.287c-6.396,0-11.092-3.139-13.319-8.869c-3.872-0.065-8.116-1.414-12.295-3.907     c-6.833-4.086-9.578-11.358-7.343-19.456c2.423-8.789,10.087-15.361,16.531-14.083c-0.364-3.016-0.492-8.495,2.516-12.307     c3.003-3.802,8.264-4.934,15.572-3.3c2.976,0.668,5.617,1.665,7.875,2.971c5.231-6.911,13.417-9.166,20.998-5.339     c7.23,3.649,12.026,9.929,13.053,16.99c3.995-0.342,7.855,1.077,11.416,4.163c5.123,4.437,6.406,10.996,3.619,18.469     c-4.078,10.934-15.624,20.526-24.71,20.526c-2.3,0-4.382-0.588-6.185-1.748c-1.092-0.703-2.089-1.484-2.981-2.33     c-4.678,4.437-12.558,7.242-22.914,8.139C444.638,275.262,444.027,275.287,443.437,275.287z M432.835,266.242     c1.607,3.511,5.103,7.014,12.214,6.403c12.089-1.047,18.269-4.487,21.402-7.478c-3.862-4.929-4.045-10.755-2.484-14.271     c0.854-1.924,2.197-3.026,3.686-3.026c1.122,0,2.725,0.62,3.975,3.586c2.044,4.846,1.429,9.67-1.713,13.711     c0.783,0.748,1.667,1.441,2.639,2.067c1.381,0.889,2.996,1.341,4.794,1.341c7.99,0,18.62-8.985,22.301-18.854     c1.688-4.523,2.554-10.906-2.893-15.627c-3.031-2.627-6.235-3.835-9.53-3.543c0.088,6.865-3.606,12.45-9.261,13.789     c-3.006,0.721-5.055-0.477-5.276-2.868c-0.369-4.01,4.701-11.092,11.8-13.033c-0.879-6.26-5.178-11.865-11.679-15.147     c-6.439-3.254-13.191-1.374-17.691,4.47c5.58,4.239,6.958,10.105,5.801,13.967c-1.21,4.035-5.158,5.527-8.781,3.031     c-4.661-3.209-3.965-10.539-0.6-16.282c-1.999-1.133-4.349-2.006-7.004-2.602c-6.205-1.391-10.635-0.595-12.985,2.376     c-3.485,4.407-1.687,12.229-1.67,12.31c0.116,0.48-0.058,0.987-0.444,1.296c-0.387,0.311-0.919,0.369-1.361,0.161     c-0.901-0.432-1.858-0.65-2.843-0.65c-4.887,0-10.391,5.55-12.275,12.37c-0.917,3.322-2.15,11.586,6.185,16.564     c3.483,2.082,6.978,3.285,10.18,3.508c-1.168-5.143-0.372-11.089,2.057-14.447c1.411-1.951,2.946-2.36,3.983-2.36     c1.323,0,2.614,0.64,3.835,1.908c3.131,3.252,4.146,7.315,2.715,10.866C440.529,263.211,437.132,265.594,432.835,266.242z      M435.364,249.573c-0.794,0-1.472,0.703-1.898,1.296c-1.795,2.481-2.797,7.963-1.507,12.895c3.629-0.404,6.481-2.247,7.571-4.949     c1.055-2.622,0.259-5.582-2.185-8.121C436.853,250.18,436.11,249.573,435.364,249.573z M467.655,250.442     c-0.324,0-0.879,0.47-1.338,1.499c-1.017,2.293-1.243,6.989,1.866,11.247c2.28-3.199,2.669-6.958,1.077-10.733     C468.589,250.866,467.936,250.442,467.655,250.442z M484.658,231.073c-5.622,1.816-9.645,7.559-9.404,10.163     c0.038,0.424,0.138,0.751,1.014,0.751c0.316,0,0.691-0.05,1.107-0.148C481.699,240.814,484.557,236.492,484.658,231.073z      M453.685,219.899c-2.988,5.135-3.091,10.675-0.088,12.742c2.185,1.509,4.131,0.804,4.862-1.65     C459.355,227.994,458.193,223.386,453.685,219.899z"/>
		</g>
	</g>
	<g>
		<path style="fill:#86B98A;" d="M63.357,459.154c0,0,387.575,5.217,390.3-4.824c2.725-10.041-23.787-72.637-33.387-63.211    s-25.945,44.787-25.945,44.787s-8.549-48.497-15.563-44.274s-32.115,45.897-32.115,45.897s-7.743-54.711-16.498-48.398    c-8.755,6.313-33.881,45.919-33.881,45.919s-12.978-49.476-20.005-46.287c-7.027,3.189-18.893,43.665-18.893,43.665    s-13.835-47.397-25.24-41.052c-11.404,6.346-28.684,37.582-28.684,37.582s-15.602-47.375-26.148-43.109    s-29.478,44.83-29.478,44.83s-14.744-49.454-24.382-43.13c-9.638,6.324-24.115,49.934-24.115,49.934s-10.303-47.441-21.758-45.231    S47.41,456.793,63.357,459.154z"/>
		<path style="fill:#2B2330;" d="M124.73,451.961c-0.409,0-0.811-0.196-1.062-0.56c-8.684-12.691,3.257-36.919,3.769-37.943    c0.319-0.633,1.09-0.889,1.725-0.575c0.635,0.316,0.891,1.09,0.575,1.725c-0.118,0.239-11.777,23.896-3.945,35.342    c0.399,0.585,0.249,1.386-0.336,1.788C125.235,451.888,124.981,451.961,124.73,451.961z"/>
		<path style="fill:#2B2330;" d="M183.232,450.032c-0.065,0-0.128-0.005-0.193-0.015c-0.703-0.105-1.185-0.758-1.08-1.461    c1.848-12.322-7.506-31.839-7.601-32.035c-0.309-0.64-0.043-1.409,0.598-1.718c0.643-0.309,1.406-0.043,1.718,0.598    c0.399,0.829,9.793,20.436,7.827,33.536C184.405,449.575,183.858,450.032,183.232,450.032z"/>
		<path style="fill:#2B2330;" d="M232.087,451.318c-0.527,0-1.022-0.326-1.21-0.851c-5.894-16.373,3.496-37.366,3.897-38.252    c0.296-0.648,1.057-0.927,1.703-0.638c0.645,0.294,0.932,1.055,0.638,1.703c-0.093,0.206-9.357,20.935-3.817,36.319    c0.241,0.668-0.108,1.404-0.776,1.645C232.378,451.293,232.232,451.318,232.087,451.318z"/>
		<path style="fill:#2B2330;" d="M272.586,450.675c-0.234,0-0.47-0.063-0.681-0.196c-0.603-0.377-0.786-1.17-0.409-1.77    c6.125-9.798,3.694-34.3,3.669-34.546c-0.073-0.706,0.439-1.336,1.148-1.409c0.688-0.08,1.336,0.437,1.409,1.148    c0.108,1.042,2.541,25.631-4.045,36.168C273.433,450.462,273.013,450.675,272.586,450.675z"/>
		<path style="fill:#2B2330;" d="M325.941,449.39c-0.635,0-1.19-0.475-1.273-1.122c-0.133-1.037-3.222-25.518,0.105-32.838    c0.294-0.648,1.057-0.924,1.703-0.638c0.645,0.294,0.932,1.055,0.638,1.703c-2.511,5.525-0.776,24.574,0.105,31.447    c0.09,0.703-0.407,1.348-1.112,1.439C326.051,449.387,325.996,449.39,325.941,449.39z"/>
		<path style="fill:#2B2330;" d="M369.657,447.461c-0.178,0-0.357-0.038-0.53-0.113c-0.645-0.294-0.934-1.055-0.643-1.703    c2.413-5.344,7.837-20.26,4.025-25.024c-0.442-0.555-0.354-1.364,0.201-1.808c0.56-0.439,1.366-0.352,1.808,0.201    c5.477,6.845-2.735,25.576-3.689,27.69C370.614,447.18,370.147,447.461,369.657,447.461z"/>
		<path style="fill:#2B2330;" d="M423.657,449.39c-0.178,0-0.359-0.038-0.532-0.116c-0.645-0.294-0.932-1.055-0.638-1.703    c6.069-13.354-4.962-32.047-5.075-32.236c-0.364-0.608-0.168-1.399,0.442-1.763c0.603-0.362,1.396-0.171,1.763,0.442    c0.487,0.811,11.843,20.031,5.211,34.621C424.611,449.111,424.144,449.39,423.657,449.39z"/>
	</g>
	<path style="fill:#2B2330;" d="M58.215,374.133c-0.01,0-0.023,0-0.035,0c-1.79-0.048-3.523-0.146-5.203-0.286   c-0.706-0.058-1.233-0.681-1.173-1.389c0.06-0.708,0.693-1.2,1.389-1.173c1.63,0.136,3.317,0.229,5.057,0.276   c0.708,0.02,1.268,0.61,1.251,1.321C59.48,373.581,58.91,374.133,58.215,374.133z M47.984,373.259   c-0.065,0-0.128-0.005-0.193-0.015c-1.753-0.264-3.483-0.59-5.145-0.969c-0.693-0.158-1.125-0.846-0.967-1.539   c0.156-0.688,0.841-1.133,1.539-0.967c1.6,0.364,3.267,0.681,4.954,0.934c0.703,0.105,1.185,0.761,1.08,1.461   C49.157,372.802,48.61,373.259,47.984,373.259z M37.978,370.944c-0.131,0-0.264-0.02-0.397-0.063   c-1.693-0.547-3.347-1.18-4.922-1.878c-0.648-0.289-0.942-1.05-0.653-1.698c0.289-0.65,1.05-0.939,1.698-0.653   c1.492,0.663,3.061,1.263,4.671,1.783c0.676,0.218,1.045,0.942,0.826,1.62C39.025,370.597,38.52,370.944,37.978,370.944z    M28.621,366.758c-0.226,0-0.452-0.058-0.658-0.181c-1.539-0.917-3.008-1.929-4.372-3.006c-0.555-0.442-0.65-1.251-0.211-1.808   c0.447-0.555,1.256-0.645,1.808-0.211c1.273,1.009,2.649,1.956,4.091,2.815c0.61,0.364,0.811,1.153,0.447,1.763   C29.485,366.534,29.058,366.758,28.621,366.758z M20.603,360.385c-0.342,0-0.681-0.136-0.934-0.402   c-1.215-1.281-2.348-2.667-3.37-4.116c-0.409-0.58-0.271-1.381,0.309-1.79c0.58-0.414,1.384-0.271,1.79,0.309   c0.952,1.348,2.006,2.637,3.139,3.829c0.487,0.515,0.465,1.328-0.05,1.818C21.238,360.267,20.922,360.385,20.603,360.385z    M14.692,352.017c-0.465,0-0.917-0.254-1.145-0.698c-0.786-1.534-1.494-3.172-2.107-4.864c-0.241-0.668,0.105-1.406,0.773-1.647   c0.673-0.229,1.404,0.105,1.647,0.773c0.573,1.592,1.238,3.126,1.976,4.563c0.324,0.633,0.073,1.406-0.557,1.733   C15.091,351.972,14.89,352.017,14.692,352.017z M11.199,342.375c-0.585,0-1.112-0.399-1.251-0.992   c-0.392-1.665-0.708-3.41-0.942-5.183c-0.09-0.706,0.404-1.351,1.107-1.444c0.688-0.09,1.351,0.404,1.444,1.107   c0.221,1.69,0.522,3.35,0.891,4.932c0.163,0.691-0.266,1.384-0.957,1.544C11.395,342.365,11.294,342.375,11.199,342.375z    M9.843,332.197c-0.688,0-1.256-0.542-1.286-1.233c-0.038-0.939-0.058-1.886-0.058-2.84c0-0.796,0.013-1.597,0.04-2.401   c0.025-0.708,0.648-1.238,1.331-1.241c0.711,0.025,1.266,0.62,1.241,1.331c-0.028,0.773-0.04,1.544-0.04,2.31   c0,0.919,0.02,1.831,0.058,2.735c0.028,0.711-0.525,1.308-1.233,1.338C9.878,332.197,9.86,332.197,9.843,332.197z M10.174,321.921   c-0.045,0-0.088-0.003-0.133-0.008c-0.706-0.07-1.22-0.701-1.148-1.409c0.173-1.713,0.402-3.438,0.683-5.173   c0.11-0.703,0.788-1.193,1.474-1.062c0.701,0.113,1.178,0.771,1.062,1.474c-0.271,1.685-0.495,3.36-0.663,5.022   C11.385,321.427,10.825,321.921,10.174,321.921z M11.801,311.774c-0.09,0-0.183-0.01-0.276-0.03   c-0.693-0.153-1.133-0.839-0.979-1.532c0.141-0.635,0.284-1.268,0.434-1.903c0.259-1.09,0.535-2.145,0.829-3.167   c0.198-0.681,0.899-1.082,1.592-0.879c0.683,0.196,1.075,0.909,0.879,1.592c-0.284,0.982-0.55,1.996-0.799,3.046   c-0.146,0.62-0.289,1.243-0.424,1.863C12.924,311.364,12.394,311.774,11.801,311.774z M14.674,301.91   c-0.153,0-0.309-0.028-0.462-0.085c-0.663-0.256-0.992-0.999-0.738-1.662c0.645-1.672,1.366-3.295,2.142-4.816   c0.321-0.635,1.1-0.881,1.73-0.56c0.633,0.321,0.884,1.097,0.56,1.73c-0.736,1.441-1.419,2.981-2.032,4.57   C15.679,301.596,15.191,301.91,14.674,301.91z M19.36,292.79c-0.246,0-0.495-0.07-0.716-0.218c-0.59-0.394-0.748-1.193-0.352-1.783   c0.997-1.489,2.092-2.905,3.249-4.204c0.47-0.527,1.281-0.575,1.816-0.103c0.53,0.472,0.575,1.286,0.103,1.816   c-1.08,1.21-2.099,2.531-3.033,3.922C20.181,292.589,19.774,292.79,19.36,292.79z M26.195,285.158   c-0.369,0-0.738-0.158-0.992-0.467c-0.452-0.547-0.374-1.359,0.173-1.811c1.379-1.138,2.85-2.167,4.374-3.061   c0.608-0.352,1.399-0.153,1.76,0.46c0.359,0.613,0.153,1.401-0.46,1.76c-1.406,0.824-2.765,1.773-4.038,2.825   C26.775,285.063,26.484,285.158,26.195,285.158z M56.718,284.319c-0.836,0-1.708-0.08-2.592-0.236   c-0.701-0.123-1.165-0.791-1.042-1.489c0.126-0.698,0.809-1.183,1.489-1.042c1.316,0.236,2.571,0.269,3.729,0.07   c0.294-0.05,0.565-0.105,0.804-0.171c0.693-0.181,1.394,0.221,1.58,0.901c0.186,0.686-0.216,1.394-0.902,1.58   c-0.314,0.085-0.665,0.161-1.055,0.226C58.082,284.267,57.409,284.319,56.718,284.319z M49.481,282.484   c-0.186,0-0.377-0.04-0.555-0.126c-1.549-0.743-3.096-1.685-4.598-2.8c-0.568-0.424-0.688-1.23-0.264-1.801   c0.063-0.083,0.136-0.158,0.213-0.223c-0.299-0.216-0.502-0.56-0.53-0.957c-0.048-0.708,0.49-1.321,1.198-1.369   c0.849-0.058,1.667-0.078,2.504-0.08c0.972,0,1.916,0.043,2.83,0.118c0.706,0.058,1.233,0.681,1.173,1.389   c-0.058,0.708-0.678,1.215-1.389,1.173c-0.866-0.073-1.768-0.078-2.699-0.108c-0.392,0-0.791,0.008-1.19,0.02   c1.268,0.919,2.566,1.698,3.862,2.318c0.64,0.306,0.912,1.075,0.605,1.715C50.42,282.215,49.961,282.484,49.481,282.484z    M59.988,280.585c-0.246,0-0.492-0.07-0.713-0.216c-1.004-0.668-2.551-1.293-4.352-1.755c-0.688-0.178-1.102-0.879-0.927-1.564   c0.178-0.691,0.886-1.107,1.564-0.927c2.104,0.54,3.88,1.268,5.14,2.107c0.59,0.392,0.751,1.19,0.357,1.783   C60.811,280.384,60.402,280.585,59.988,280.585z M35.024,279.978c-0.515,0-1.002-0.311-1.198-0.821   c-0.259-0.663,0.07-1.406,0.733-1.662c1.645-0.64,3.365-1.158,5.108-1.539c0.198-0.045,0.394-0.038,0.578,0.005   c-1.203-1.241-2.333-2.584-3.36-4c-0.417-0.575-0.291-1.379,0.284-1.795c0.57-0.414,1.379-0.294,1.795,0.284   c0.977,1.343,2.052,2.619,3.194,3.792c0.495,0.507,0.485,1.321-0.025,1.818c-0.329,0.319-0.791,0.427-1.203,0.326   c0.128,0.153,0.223,0.342,0.269,0.55c0.153,0.693-0.286,1.379-0.979,1.532c-1.617,0.354-3.207,0.834-4.731,1.424   C35.336,279.95,35.18,279.978,35.024,279.978z M35.2,268.13c-0.46,0-0.907-0.249-1.135-0.683c-0.834-1.574-1.562-3.207-2.165-4.854   c-0.244-0.668,0.1-1.406,0.766-1.65c0.668-0.246,1.406,0.103,1.65,0.766c0.562,1.537,1.241,3.064,2.019,4.533   c0.334,0.628,0.095,1.406-0.532,1.738C35.61,268.082,35.404,268.13,35.2,268.13z M31.685,258.502c-0.593,0-1.128-0.414-1.256-1.017   c-0.367-1.73-0.618-3.501-0.746-5.261c-0.05-0.708,0.482-1.323,1.19-1.376c0.691-0.06,1.323,0.482,1.376,1.19   c0.118,1.645,0.352,3.295,0.696,4.909c0.148,0.696-0.296,1.379-0.989,1.527C31.865,258.492,31.775,258.502,31.685,258.502z    M30.951,248.279c-0.03,0-0.058,0-0.085-0.003c-0.708-0.045-1.246-0.658-1.2-1.366c0.113-1.738,0.344-3.508,0.688-5.258   c0.133-0.701,0.821-1.158,1.507-1.015c0.698,0.136,1.153,0.811,1.015,1.507c-0.321,1.645-0.537,3.305-0.643,4.932   C32.187,247.757,31.622,248.279,30.951,248.279z M32.91,238.21c-0.131,0-0.264-0.02-0.394-0.063   c-0.678-0.218-1.047-0.942-0.829-1.617c0.527-1.635,1.168-3.292,1.901-4.927c0.289-0.65,1.055-0.937,1.7-0.645   c0.648,0.291,0.937,1.052,0.645,1.7c-0.696,1.549-1.301,3.116-1.8,4.661C33.957,237.863,33.452,238.21,32.91,238.21z    M37.096,228.836c-0.216,0-0.434-0.055-0.635-0.168c-0.618-0.352-0.834-1.135-0.482-1.753c0.839-1.477,1.78-2.973,2.795-4.445   c0.407-0.593,1.21-0.733,1.788-0.331c0.585,0.404,0.733,1.205,0.331,1.788c-0.974,1.414-1.876,2.848-2.679,4.259   C37.978,228.602,37.543,228.836,37.096,228.836z M64.694,220.416l-0.354-0.01c-0.708-0.038-1.253-0.643-1.215-1.351   c0.038-0.708,0.663-1.283,1.351-1.215l0.218,0.005c1.298,0,2.305-0.545,2.993-1.622c0.382-0.6,1.178-0.773,1.775-0.389   c0.598,0.382,0.773,1.175,0.389,1.775C68.696,219.419,66.863,220.416,64.694,220.416z M42.909,220.366   c-0.284,0-0.57-0.093-0.809-0.286c-0.552-0.444-0.638-1.253-0.191-1.808c0.48-0.595,0.974-1.193,1.489-1.79   c0.658-0.763,1.298-1.484,1.924-2.165c0.485-0.52,1.298-0.55,1.818-0.075c0.522,0.482,0.555,1.296,0.075,1.818   c-0.61,0.66-1.23,1.361-1.868,2.099c-0.495,0.578-0.974,1.155-1.439,1.73C43.655,220.202,43.284,220.366,42.909,220.366z    M59.609,218.716c-0.229,0-0.457-0.06-0.665-0.186c-1.366-0.829-2.805-1.929-4.276-3.275c-0.522-0.48-0.56-1.293-0.08-1.818   c0.477-0.522,1.291-0.56,1.818-0.08c1.346,1.233,2.649,2.232,3.87,2.973c0.608,0.369,0.801,1.16,0.434,1.765   C60.467,218.495,60.043,218.716,59.609,218.716z M69.784,213.254c-0.648,0-1.205-0.49-1.276-1.15   c-0.161-1.524-0.743-2.936-1.637-3.978c-0.465-0.54-0.402-1.351,0.136-1.813c0.542-0.46,1.354-0.402,1.813,0.136   c1.233,1.436,2.032,3.347,2.245,5.384c0.075,0.708-0.437,1.341-1.143,1.414C69.874,213.252,69.829,213.254,69.784,213.254z    M49.9,212.837c-0.347,0-0.693-0.141-0.947-0.417c-0.48-0.522-0.447-1.336,0.078-1.816c0.246-0.226,0.49-0.447,0.736-0.66   c-0.718-0.937-1.366-1.878-1.934-2.812c-0.367-0.608-0.173-1.399,0.432-1.768c0.608-0.362,1.399-0.173,1.768,0.432   c0.502,0.831,1.077,1.667,1.713,2.504c0.475-0.367,0.944-0.713,1.406-1.037c0.583-0.407,1.384-0.269,1.79,0.314   c0.409,0.583,0.266,1.384-0.314,1.79c-0.46,0.324-0.927,0.668-1.399,1.037c0.07,0.429-0.078,0.884-0.434,1.185   c-0.364,0.311-0.851,0.382-1.271,0.234c-0.251,0.218-0.502,0.444-0.756,0.676C50.523,212.724,50.212,212.837,49.9,212.837z    M58.376,207.112c-0.512,0-0.994-0.306-1.195-0.814c-0.261-0.658,0.063-1.406,0.723-1.667c2.009-0.796,3.942-1.107,5.622-0.927   c0.708,0.073,1.22,0.703,1.148,1.409c-0.073,0.708-0.753,1.225-1.409,1.148c-1.286-0.131-2.795,0.121-4.417,0.761   C58.694,207.084,58.534,207.112,58.376,207.112z M46.754,203.106c-0.537,0-1.04-0.342-1.22-0.879   c-0.593-1.783-0.934-3.596-1.012-5.389c-0.03-0.708,0.52-1.308,1.23-1.341c0.698-0.035,1.308,0.522,1.341,1.23   c0.065,1.554,0.362,3.131,0.881,4.686c0.223,0.673-0.141,1.401-0.814,1.627C47.025,203.086,46.89,203.106,46.754,203.106z    M46.335,192.977c-0.103,0-0.206-0.013-0.311-0.038c-0.691-0.173-1.107-0.871-0.937-1.559c0.422-1.688,1.082-3.39,1.961-5.062   c0.329-0.63,1.11-0.869,1.735-0.54c0.628,0.329,0.871,1.107,0.54,1.735c-0.783,1.492-1.369,3.001-1.74,4.49   C47.437,192.587,46.912,192.977,46.335,192.977z M50.995,183.901c-0.276,0-0.555-0.088-0.789-0.271   c-0.56-0.434-0.663-1.243-0.226-1.803c1.025-1.321,2.22-2.652,3.551-3.958c0.51-0.497,1.323-0.487,1.818,0.015   c0.497,0.507,0.49,1.321-0.015,1.818c-1.251,1.228-2.368,2.473-3.325,3.701C51.756,183.73,51.377,183.901,50.995,183.901z    M58.29,176.662c-0.377,0-0.748-0.166-1.002-0.482c-0.444-0.552-0.357-1.361,0.198-1.806c1.313-1.055,2.737-2.102,4.231-3.114   c0.585-0.399,1.386-0.244,1.785,0.344c0.399,0.588,0.244,1.389-0.344,1.785c-1.436,0.972-2.805,1.979-4.066,2.988   C58.858,176.569,58.574,176.662,58.29,176.662z M66.805,170.876c-0.442,0-0.874-0.231-1.112-0.643   c-0.357-0.613-0.146-1.401,0.47-1.755c2.735-1.582,4.6-2.436,4.678-2.471c0.65-0.289,1.409-0.008,1.703,0.638   c0.294,0.645,0.008,1.409-0.638,1.703c-0.018,0.008-1.838,0.841-4.457,2.355C67.247,170.821,67.026,170.876,66.805,170.876z"/>
	<path style="fill:#2B2330;" d="M76.516,453.89c-0.108,0-0.218-0.013-0.326-0.043c-0.688-0.181-1.097-0.884-0.917-1.569   c3.086-11.732-3.777-35.073-3.847-35.307c-0.201-0.681,0.186-1.396,0.866-1.6c0.691-0.196,1.399,0.188,1.6,0.866   c0.291,0.984,7.137,24.273,3.867,36.693C77.608,453.508,77.086,453.89,76.516,453.89z"/>
</g>















</svg>
